<svg id="图层_2" data-name="图层 2" xmlns="http://www.w3.org/2000/svg" width="413" height="88.822" viewBox="0 0 413 88.822">
  <g id="图层_1" data-name="图层 1" transform="translate(0)">
    <path id="路径_2088" data-name="路径 2088" d="M60.634,87.015l6.7-6.9s.409.358,1.125-.1S77.3,74.8,80.466,74.8s4.242.767,2.862,2.249-3.834,2.147-3.578,3.118,1.278.664,1.789.818,3.527.869,3.22,2.453c0,0-.2,1.278-1.942.716a6.07,6.07,0,0,0-5.929.767c-2.76,1.636-7.514,4.7-12.881,3.271l-3.374-1.176M45.376,11.457,47.7,17.271,42.59,25.947s-.217.192.217.728.319.575.639.664.575.281,1.112-.345,5.277-9.188,5.277-9.188l-2.262-6.389-.345-.92s-.511,1.214-.894,1.176A4.307,4.307,0,0,1,45.376,11.457Zm2.556,0a1.674,1.674,0,0,0,1.112.128,2.632,2.632,0,0,0,.754-.792l2.556,7.667L47.242,27.4s-.473,1.278-1.776.422c0,0-.549-.447-.613-.792l5.111-9.226s.23.166-.089-.946Zm15.96,16.65.869-1.022h1.278S65.477,29.947,64.148,30c0,0-1.022,0-.92-.46s.626.141.869-.256A1.15,1.15,0,0,0,63.892,28.107Zm2.249-1.124a7.2,7.2,0,0,1,.575-2.965,17.609,17.609,0,0,0-3.169.166l.869.767L65.9,24.58l-.46,1.444Zm-6.172-.409a2.032,2.032,0,0,1,1.367-2.211,2.773,2.773,0,0,1,1.789-.1v1.086l-1.176.664A1.981,1.981,0,0,0,59.969,26.573ZM24.65,13.118a12.778,12.778,0,0,0-11.207,7.974,4.651,4.651,0,0,0-.153,2.3,8.7,8.7,0,0,1-1.482,2.364,10.073,10.073,0,0,1-1.738,2.1s1.073-7.015-.307-9.264c0,0-6.287,4.958-2.147,14.171,0,0-.869,4.089-.971,5.776,0,0-.153-1.124-.409-2.556A22.388,22.388,0,0,0,3.68,30.765,23.206,23.206,0,0,1,2.3,27.494s-2.453,6.747-.613,9.763a6.9,6.9,0,0,0,4.7,3.373s-.256,7.769,0,8.792a15.488,15.488,0,0,0-1.942-4.7,23.142,23.142,0,0,1-2.556-3.834c-.46-.971-.818-1.022-.818-1.022s-2.1,5.674,1.278,9.878a23.487,23.487,0,0,0,4.4,2.913l.818,3.936s0,.307-1.022-1.022A12.05,12.05,0,0,0,3.476,52.91,15.909,15.909,0,0,1,.767,50.354L0,50.1s.256,5.111,2.351,7.565c0,0,.613,1.687,6.185,3.169l2.4,4.5a11.207,11.207,0,0,0-5.571-2.709,9.136,9.136,0,0,1-2.453-1.073,4.971,4.971,0,0,0-2.147-.716s.1,5.111,6.389,6.951a15.921,15.921,0,0,0,5.878.562l5.533,5.507s.256.4-1.278-.831-1.942-1.942-3.834-2.1-4.038.1-5.111,0A6.389,6.389,0,0,0,6.389,71a17.353,17.353,0,0,0,6.594,4.051,24.712,24.712,0,0,0,8.293.767l3.731,2.249,1.176-.613L24.5,75.77a14.606,14.606,0,0,0-1.278-7.424c-1.738-3.271-2.453-4.5-2.3-6.031,0,0-4.651,5.571,1.073,12.382,0,0-4.242-2.556-5.009-4.511,0,0,1.533-1.533,1.125-7.156a11.82,11.82,0,0,0-1.176-4.089,4.409,4.409,0,0,1,.2-2.862s-5.111,2.249-2.62,11.654c0,0-3.016-3.016-3.68-5.418,0,0,3.834-4.089,4.242-7.769s.524-5.686,1.8-6.5c0,0-3.591-1.176-7.271,8.7a2.939,2.939,0,0,0,.153,2.045s-1.533-3.271-1.278-4.447a14.989,14.989,0,0,0,4.549-6.389c1.022-3.527,2.045-6.134,3.182-7.156,0,0-5.942,1.687-8.242,9.52,0,0-.971-3.744-.358-5.686,0,0,1.022-.971,2.556-2.3a24.279,24.279,0,0,0,4.089-5.111c1.035-1.636,2.722-3.629,3.284-3.68a.946.946,0,0,0-1.073-.46,11.807,11.807,0,0,0-8.753,7.1,28.33,28.33,0,0,1,.716-5.111,11.207,11.207,0,0,0,5.725-4.038c2.211-3.118,3.834-5.725,3.834-5.725a2.556,2.556,0,0,0-1.738,0A10.759,10.759,0,0,0,11.143,29.3l-1.073.562s3.834-5.827,4.5-6.134A34.5,34.5,0,0,0,20.2,18.613C22.2,16.351,24.65,13.118,24.65,13.118Zm5.929,73.9-6.7-6.9s-.409.358-1.125-.1S13.9,74.8,10.734,74.8s-4.242.767-2.862,2.249,3.834,2.147,3.578,3.118-1.278.664-1.789.818-3.527.869-3.271,2.453c0,0,.2,1.278,1.942.716a6.07,6.07,0,0,1,5.929.767c2.773,1.636,7.526,4.7,12.893,3.271Zm13.034-57.5H30.08V46.866s.473,9.188,6.3,11.935A10.874,10.874,0,0,0,43.1,59.963s1.8.192,2.249,1.444a.547.547,0,0,0,0,.064h0a.2.2,0,0,0,.179.2c.179.013.307-.2.307-.2a.547.547,0,0,0,0-.064c.447-1.278,2.249-1.444,2.249-1.444A10.81,10.81,0,0,0,54.794,58.8c5.827-2.747,6.313-11.935,6.313-11.935V29.513Zm2.85,44.1a60.7,60.7,0,0,0-6.747.281C29.748,75.17,23.972,78.224,24.049,79a2.145,2.145,0,0,0,.268,1.022l6.351,6.4s.2-1.648,1.278-1.981a56.11,56.11,0,0,1,13.686-2.185A55.943,55.943,0,0,1,59.3,84.447c1.1.332,1.278,1.981,1.278,1.981l6.313-6.313s.2-.2.268-1.022-5.405-3.667-16.816-5.111a23.306,23.306,0,0,0-3.834-.319ZM27.295,28.056l-.869-1.022H25.148s.562,2.862,1.891,2.913c0,0,1.022,0,.92-.46s-.639.141-.869-.256a1.15,1.15,0,0,1,.217-1.125Zm-2.249-1.125a7.194,7.194,0,0,0-.549-2.913,17.608,17.608,0,0,1,3.169.166l-.869.767-1.482-.371.46,1.444Zm6.2-.358a2.032,2.032,0,0,0-1.38-2.262,2.773,2.773,0,0,0-1.789-.1l.038,1.086,1.176.664A1.981,1.981,0,0,1,31.243,26.573Zm35.32-13.456a12.778,12.778,0,0,1,11.194,7.974,4.651,4.651,0,0,1,.153,2.3,8.7,8.7,0,0,0,1.482,2.364C80.823,27.7,81.13,27.8,81.13,27.8s-1.073-7.015.307-9.264c0,0,6.287,4.958,2.147,14.171,0,0,.869,4.089.971,5.776,0,0,.153-1.125.409-2.556a22.388,22.388,0,0,1,2.556-5.214,23.2,23.2,0,0,0,1.38-3.169s2.466,6.747.613,9.763a6.9,6.9,0,0,1-4.7,3.322s.256,7.769,0,8.792a15.487,15.487,0,0,1,1.942-4.7,23.142,23.142,0,0,0,2.556-3.834c.46-.971.831-1.022.831-1.022s2.1,5.674-1.278,9.878a23.487,23.487,0,0,1-4.4,2.913l-.818,3.936s0,.307,1.022-1.022a12.05,12.05,0,0,1,3.067-2.658,15.436,15.436,0,0,0,2.709-2.556l.779-.256s-.256,5.111-2.364,7.565c0,0-.613,1.687-6.185,3.169l-2.4,4.5a11.207,11.207,0,0,1,5.571-2.862A9.137,9.137,0,0,0,88.3,61.395a4.971,4.971,0,0,1,2.147-.716s-.089,5.111-6.389,6.951a15.922,15.922,0,0,1-5.878.562l-5.533,5.661s-.256.4,1.278-.831,1.942-1.942,3.834-2.1,4.038.1,5.111,0a6.39,6.39,0,0,1,1.891.1,17.353,17.353,0,0,1-6.594,4.051,24.612,24.612,0,0,1-8.28.767L66.154,78.07l-1.176-.613,1.738-1.687a14.606,14.606,0,0,1,1.278-7.424c1.738-3.271,2.453-4.5,2.3-6.031,0,0,4.651,5.571-1.073,12.382,0,0,4.242-2.556,5.009-4.511,0,0-1.533-1.533-1.125-7.156a11.82,11.82,0,0,1,1.176-4.089,4.409,4.409,0,0,0-.166-2.862s5.111,2.249,2.556,11.654c0,0,3.016-3.016,3.68-5.418,0,0-3.834-4.089-4.242-7.769s-.511-5.686-1.789-6.5c0,0,3.578-1.176,7.258,8.7a2.939,2.939,0,0,1-.153,2.045s1.533-3.271,1.278-4.447a14.989,14.989,0,0,1-4.549-6.389c-1.022-3.527-2.045-6.134-3.169-7.156,0,0,5.929,1.687,8.229,9.52,0,0,.971-3.744.358-5.686,0,0-1.022-.971-2.556-2.3a24.279,24.279,0,0,1-4.089-5.111c-1.022-1.636-2.709-3.629-3.271-3.68a.933.933,0,0,1,1.073-.46,11.769,11.769,0,0,1,8.74,7.1,28.331,28.331,0,0,0-.716-5.111,11.207,11.207,0,0,1-5.725-4.038c-2.2-3.118-3.834-5.725-3.834-5.725a2.556,2.556,0,0,1,1.738,0A10.8,10.8,0,0,1,80.044,29.3l1.073.562s-3.834-5.827-4.5-6.134A34.6,34.6,0,0,1,71,18.613C69,16.351,66.563,13.118,66.563,13.118Zm-32.649,5s.716-10.593,11.5-10.964c10.3.358,11.4,10.082,11.5,10.913h.013a1.917,1.917,0,0,0-.371.077,1.588,1.588,0,0,0-.92,2.2c.358,1.125,2.556,1.278,2.556,1.278a3.45,3.45,0,0,1-3.335,1.176,1.942,1.942,0,0,1-1.176-2.556,2.556,2.556,0,0,0,1.585,0c.153-.409.511-2.453-1.431-2.2s-1.891,2.709-1.789,3.476.256,2.62,3.527,2.913,4.255-3.169,4.255-3.169c1.278-2.351,2.965-1.533,2.965-1.533,2.811,2.249-.1,3.22-.1,3.22l-.46-.613c1.176-.2,1.073-.767.818-1.482s-1.38-.511-1.38-.511a1.585,1.585,0,0,0-1.278,1.942,3.131,3.131,0,0,0,.818,1.022A3.412,3.412,0,0,0,58.333,25.3a2.837,2.837,0,0,0,2.3,3.322c1.84.2,1.38-1.993,1.38-1.993l1.278.1.1,1.124c-1.176,0-1.482.664-1.482.664-1.176,2.147,1.636,2.913,1.636,2.913,2.556.613,3.373-2.658,3.373-2.658a1.93,1.93,0,0,0,1.84.869c1.993-.818,1.125-2.147.409-2.4s-1.38.511-1.38.511a.6.6,0,0,0-.358-.511A2.057,2.057,0,0,1,70.7,27.9c0,1.942-2.249,3.016-2.249,3.016a3.834,3.834,0,0,0-1.585,4.8c2.556,4.549,5.827,1.84,5.827,1.84C73,47.939,71.725,52.654,71.419,53.83c-.192.7-.92.664-1.738,1.124s-1.482.92-1.533,1.789-.358.818-.358.818a11.82,11.82,0,0,0-.767-2.875c-.511-1.124-1.124-.46-1.124-.46.46,10.376-5.776,10.938-5.776,10.938a22.3,22.3,0,0,0,1.738-3.527s2.2,1.125,2.249-.869a2.083,2.083,0,0,0-3.373-1.278C59.3,60.666,58.947,64.6,58.947,64.6c-1.546,3.322-2.262,2.1-2.262,2.1a3.731,3.731,0,0,0-.46-5c-.716-.562-3.016-.92-3.425.92s2.351,2.4,2.351,2.4c-.2,3.016-2.045,3.527-2.045,3.527a2.7,2.7,0,0,0,.153-2.76,2.377,2.377,0,0,0-2.965-.664c-1.431,1.993,1.431,2.556,1.431,2.556C50.909,69.675,45.644,71,45.644,71v0s-5.265-1.278-6.083-3.322c0,0,2.862-.613,1.431-2.556a2.377,2.377,0,0,0-2.965.664,2.7,2.7,0,0,0,.153,2.76s-1.84-.511-2.045-3.527c0,0,2.76-.562,2.351-2.4s-2.709-1.482-3.425-.92a3.731,3.731,0,0,0-.562,4.958s-.716,1.278-2.249-2.1c0,0-.358-3.936-1.789-5.111A2.07,2.07,0,0,0,27.09,60.73c0,1.993,2.249.869,2.249.869a22.3,22.3,0,0,0,1.738,3.527s-6.236-.562-5.776-10.938c0,0-.613-.664-1.124.46a11.82,11.82,0,0,0-.716,2.862s-.307,0-.358-.818-.716-1.278-1.533-1.789-1.559-.422-1.738-1.125c-.307-1.176-1.585-5.891-1.278-16.267,0,0,3.22,2.709,5.827-1.84a3.834,3.834,0,0,0-1.585-4.8s-2.249-1.073-2.249-3.016a2.057,2.057,0,0,1,3.271-.664.6.6,0,0,0-.358.511s-.664-.767-1.38-.511-1.585,1.585.409,2.4a1.93,1.93,0,0,0,1.84-.869s.818,3.271,3.374,2.658c0,0,2.811-.767,1.636-2.913,0,0-.307-.716-1.482-.664l.1-1.124,1.278-.1s-.46,2.2,1.38,1.993a2.837,2.837,0,0,0,2.3-3.322,3.412,3.412,0,0,0-2.709-2.057,3.131,3.131,0,0,0,.818-1.022,1.585,1.585,0,0,0-1.278-1.942s-1.124-.2-1.38.511-.358,1.278.818,1.482l-.46.613s-2.913-.971-.1-3.22c0,0,1.738-.818,2.965,1.533,0,0,.971,3.489,4.242,3.169s3.425-2.147,3.527-2.913a5.112,5.112,0,0,0,0-.843.856.856,0,0,0,.128.383s2.556,5.022,2.683,5.111.332.153.268,0a.792.792,0,0,1,0-.383l5.111-8.5L44.418,9.962s-3.527,6.517-4.536,8.447a4.472,4.472,0,0,0-.588,1.93,2.287,2.287,0,0,0-1.815-2.364c-1.942-.256-1.585,1.789-1.431,2.2a2.556,2.556,0,0,0,1.585,0,1.942,1.942,0,0,1-1.176,2.556,3.425,3.425,0,0,1-3.322-1.176s2.2-.1,2.556-1.278-.1-1.942-.92-2.2a1.93,1.93,0,0,0-.856.038ZM46.245.94H44.507v.741l.077,5.188h-.741l-.217-3.9L42.169,3.3l.588,3.834-.767.153L40.265,1.924,38.987,2.4l1.9,5.226-.716.268L38.54,4.748l-1.278.716L39.332,8.4l-.741.537L34.5,4.85l-.984,1.163,4.153,3.6-.677.626L33.939,8.1,33.2,9.374l2.99,1.648-.524.843L29.9,9.783l-.5,1.278,5.84,1.585-.5,1L30.5,13.131v1.163l3.834.422L34,15.584H27.614V16.99h6.2l-.268,1.086H33.9a1.061,1.061,0,0,0-.984.984,1,1,0,0,0,.971.767c.767,0,.46.256.307.358a1.073,1.073,0,0,1-1.482,0c-.613-.664-1.278-2.556-3.373-2.453a4.153,4.153,0,0,0-3.271,5.111s-3.527,0-3.425-1.993c0,0,.562-1.942,1.942-1.431,0,0,.153,0-.409.46s-1.278,1.176.256,1.738c0,0,1.5.153,1.789-1.942.2-1.482-1.38-1.891-1.636-1.891s-1.942,0-2.811,2.556c0,0-.818.153-.358-.664a4.766,4.766,0,0,1,.869-1.176s-.716-.409-1.84.716-2.083,1.674-2.083,2.249.358.613.767.307.818-.92,1.278-.767.409.358.409.358-2.926,1.38-1.993,3.578c0,0,1.38,2.2,3.578-.371,0,0,.1-1.278-.971-1.38s-1.176.575-1.176.818-.664-1.073.767-1.431c0,0,1.431-.664,2.3,1.585l.153,1.342s-4.907-.307-4.754,2.76,1.38,2.556,1.891,2.862c0,0,1.073,1.278-.2,1.942a1.061,1.061,0,0,0-.716-1.38s-1.84.256-1.176,1.942a1.993,1.993,0,0,0,3.067,0,1.738,1.738,0,0,0,.562-1.278s3.118,2.249-.767,4.5a1.086,1.086,0,0,1-1.278-.1,1.278,1.278,0,0,0,.971-1.533,1.815,1.815,0,0,0-2.965.46s-.153,1.789-.153,3.118c0,1.086-.958,17.634,6.7,24.65,0,0,4.754,5.776,14.67,7.769a23,23,0,0,1,6.172,2.019V73.3h0v-.077a23,23,0,0,1,6.172-2.019c9.929-1.993,14.682-7.769,14.682-7.769,7.667-7.015,6.7-23.563,6.7-24.65,0-1.278-.153-3.118-.153-3.118a1.815,1.815,0,0,0-2.965-.46,1.278,1.278,0,0,0,.971,1.533,1.086,1.086,0,0,1-1.278.1c-3.834-2.249-.767-4.5-.767-4.5a1.738,1.738,0,0,0,.562,1.278,1.993,1.993,0,0,0,3.067,0,1.215,1.215,0,0,0-.92-1.942,1.061,1.061,0,0,0-.716,1.38c-1.278-.716-.2-1.942-.2-1.942.511-.256,1.738.2,1.891-2.862s-4.8-2.76-4.8-2.76l.153-1.342c.869-2.249,2.3-1.585,2.3-1.585,1.431.358.869,1.84.767,1.431s-.1-.971-1.176-.818-.971,1.38-.971,1.38c2.2,2.556,3.578.371,3.578.371.92-2.211-2.045-3.591-2.045-3.591s-.1-.2.409-.358.92.46,1.278.767.767.256.767-.307-.971-1.073-2.1-2.2-1.84-.716-1.84-.716a4.767,4.767,0,0,1,.869,1.176c.46.818-.358.664-.358.664-.869-2.556-2.556-2.556-2.811-2.556s-1.84.409-1.636,1.891c.281,2.1,1.789,1.942,1.789,1.942,1.533-.562.818-1.278.256-1.738s-.409-.46-.409-.46c1.38-.511,1.942,1.431,1.942,1.431.1,2.045-3.425,1.993-3.425,1.993A4.153,4.153,0,0,0,61.8,17.769c-2.1-.153-2.76,1.789-3.373,2.453a1.086,1.086,0,0,1-1.5,0c-.153-.1-.46-.409.307-.358a1,1,0,0,0,.984-.767,1.073,1.073,0,0,0-1.086-1l-.256-1.073h6.2V15.622H56.685l-.319-.869,3.834-.422V13.169l-4.242.511-.511-1L61.336,11.1l-.511-1.278L55.1,11.878l-.537-.843,3-1.648-.741-1.278L53.8,10.23l-.69-.626L57.26,6l-.971-1.15-4.1,4.089L51.446,8.4l2.083-2.939-1.278-.716L50.526,7.891l-.69-.268,1.917-5.252L50.475,1.9,48.762,7.265,48,7.112l.588-3.834-1.457-.294-.2,3.9h-.741l.077-5.188ZM45.606,55.7l.613,1.393,1.508.153L46.6,58.251,46.91,59.8l-1.278-.754-1.278.754.319-1.482-1.227-1.073,1.508-.153ZM38.9,51.312v.716h.716c.422,0,.639-.077.664-.319l.5-1.444H39.741l-.281.882c0,.128-.077.179-.166.166Zm.473-1.546a.537.537,0,0,0,.511.23h.882v-.741h-.549c-.115,0-.1-.128-.23-.166H38.9Zm1.763-2.032v3.757c0,.345.153.486.524.486h3.565v-.805H42.335c-.179,0-.23,0-.23-.217V48.578h2.032v.754c0,.089,0,.141-.141.141H42.91v.792h1.648c.422,0,.588-.166.588-.562V47.735Zm-.332.882v-.754h-.4c-.141,0-.179-.1-.281-.128l-.217-.077H38.9l.537.664a.677.677,0,0,0,.588.294Zm-1.866-2.428v.831h.6l.217.422h1.47l-.141-.422h2.147l-.179.422h1.278l.179-.422h.69v-.831h-.613v-.294H43.447l-.141.294H40.993l-.1-.319H39.613l-.243.319Zm13.928,2.019v.805H56.34l-.664.422v.434H52.749v.792h2.926v.7c0,.115,0,.153-.166.153h-.754v.677h1.47a.486.486,0,0,0,.5-.511V50.661h2.364v-.792H56.762v-.115l2.019-.933v-.613ZM52.7,47.99h1.15v-.319h3.91v.268h1.278v-1h-.524l.332-1.1H57.5l-.256.933h-.767l-.256-.933H55.2l.217.958h-.728l-.434-.958h-.843l.307.958H52.7Zm-6.913-1.278v1.035h2.453l-1.7,3.105a.46.46,0,0,1-.473.243h-.281v.792h.383a2.556,2.556,0,0,0,.818-.077.792.792,0,0,0,.358-.4l1.61-2.9,1.674,2.926a1,1,0,0,0,1.009.486h.5V51.07H51.88a.383.383,0,0,1-.434-.243l-1.533-2.735h-.588l.153-.447h2.658V46.61H49.58v-.741h-1.2v.805ZM32.074,50.546h.869V46.137h-.869Zm1.15-4.5v5.111c0,.307.281.077-.089.077h-.677v.894h1.176c.358,0,.511-.192.511-.639v-5.52Zm2.7.831v.473H34.5v4.587H35.4V48.105h.524v3.961h.894V48.105h.524v3.028a.075.075,0,0,1-.077.077h-.2v.69h.728c.358,0,.473-.141.473-.524v-4.1H36.815V46.8h1.393V46H34.5V46.8Zm17.2-8.357v.549H51.369v-.549Zm-4.677,0h1.738v.549H48.443Zm0-2.032H53.12v1.278h-.728l.358-1.009H51.471l-.383,1.009H50.6l-.4-1.048H48.929l.358,1.048h-.805Zm-1.355-1.355h2.862v.383H47.28V40.8h1.163v-.92h1.738v.92h1.188v-.92H53.12v.192c0,.141,0,.179-.23.179h-.6V40.8h1.022a1.367,1.367,0,0,0,.779-.153A.843.843,0,0,0,54.283,40V35.518H51.369v-.486h3.067v-.792H51.369v-.294H49.951v.294H47.088Zm-6.2,5.418c.562,0,.805-.217.805-.728V35.608H38.463v4.945Zm-4.294-.7c0,.141.064.179-.089.179h-.383v.792h.434c.473,0,1.1-.153,1.137-.524l.179-1.763H36.751Zm3.77-.409c0,.153-.064.23-.217.23h-.537V36.49h.741Zm-3.9-1.917c.115.409.307.562.652.562h.984v-.716H37.99a.319.319,0,0,1-.319-.268l-.192-.677H36.2Zm1.9-2.287h3.834V39.71c0,.192,0,.294-.268.294h-.153v.843h.7A.718.718,0,0,0,43.306,40V35.237h.281v-1H38.335Zm-1.866.371c.064.358.281.371.677.371h.92V35.2H37.99a.256.256,0,0,1-.294-.23l-.128-.728H36.291ZM56.953,80.115h.115a.2.2,0,0,1,.115,0q.613.383.153,1.278c-.319.549-.664.754-1.048.588a.639.639,0,0,1-.294-.549.664.664,0,0,0-.256-.511.383.383,0,0,0-.537.141c-.115.345.1.677.664,1.022a1.687,1.687,0,0,0,2.466-.562,1.137,1.137,0,0,0-.409-1.636h0a1.278,1.278,0,0,0,1.188-.549.92.92,0,0,0-.486-1.188,1.418,1.418,0,0,0-1.661.268l.153.179a.805.805,0,0,1,.869-.128.511.511,0,0,1,.192.741c-.128.294-.537.511-1.2.639Zm-9.482.486,2.709.077.166-1.278H50.13a.448.448,0,0,1-.524.5H48.328c.23-.243.549-.537.946-.882.69-.549,1.022-1.048,1-1.521a1.188,1.188,0,0,0-1.176-1.278A1.393,1.393,0,0,0,47.676,77.5h.268a.856.856,0,0,1,.805-.767c.447,0,.677.332.677.907s-.422,1.188-1.585,2.313l-.332.332Zm-6.9-3.693a.728.728,0,0,0-.153-.319.294.294,0,0,0-.281,0,.2.2,0,0,0-.192.141.882.882,0,0,0,0,.422l.345,1.444a.8.8,0,0,0,.141.371.217.217,0,0,0,.217,0,.307.307,0,0,0,.243-.179.639.639,0,0,0,0-.383ZM40.278,81.2v-.128a1.278,1.278,0,0,0,.831-.728,2.211,2.211,0,0,0,0-1.278v-.128a.882.882,0,0,1-.243.243.984.984,0,0,1-.319.128,1.035,1.035,0,0,1-.894-.192,1.457,1.457,0,0,1-.562-.882,1.508,1.508,0,0,1,.153-1.112,1.38,1.38,0,0,1,.894-.652,1.431,1.431,0,0,1,1.278.268,2.466,2.466,0,0,1,.767,1.342A2.556,2.556,0,0,1,41.939,80,2.773,2.773,0,0,1,40.3,81.2Zm-7.565-2.032c-.141-.268-.281-.166-.371-.217a.243.243,0,0,0-.281,0v-.077c.294-.217.728-.894,1.073-1.2L34.5,80.345a5.635,5.635,0,0,0,.626,1.022.447.447,0,0,0,.4.166h0l-.383.179-.371.2-.383.2-.4.23v-.077a.5.5,0,0,0,.1-.434,4.422,4.422,0,0,0-.434-.984l-.089-.179ZM45.606,64.014l.971,2.006,2.211.319-1.6,1.546.383,2.2-1.968-1.048-1.968,1.048.383-2.2-1.61-1.546,2.211-.319Z" transform="translate(0 0.261)" fill="#fff" fill-rule="evenodd"/>
    <path id="路径_2089" data-name="路径 2089" d="M378.736,70.092V64.38l-5.2-7.782h2.172l2.658,4.076c.486.754.946,1.521,1.367,2.275.409-.7.895-1.5,1.469-2.377l2.62-3.974h2.083l-5.392,7.782v5.712h-1.776m-12.932,0V58.2h-4.447V56.6h10.7v1.6h-4.46v11.9Zm-9.418,0V56.6h1.789V70.092Zm-14.58-4.332,1.687-.153a3.6,3.6,0,0,0,.562,1.661,3.054,3.054,0,0,0,1.355,1.061,5.341,5.341,0,0,0,2.07.4,4.933,4.933,0,0,0,1.8-.307,2.466,2.466,0,0,0,1.163-.831,1.942,1.942,0,0,0,.383-1.15,1.7,1.7,0,0,0-.371-1.112,2.556,2.556,0,0,0-1.214-.792,22.044,22.044,0,0,0-2.4-.664,11.846,11.846,0,0,1-2.556-.843,3.565,3.565,0,0,1-1.431-1.278,3.055,3.055,0,0,1-.473-1.687,3.425,3.425,0,0,1,.575-1.9,3.668,3.668,0,0,1,1.687-1.355,7.181,7.181,0,0,1,5.111,0,3.834,3.834,0,0,1,1.763,1.418,4.088,4.088,0,0,1,.664,2.134l-1.712.128a2.709,2.709,0,0,0-.933-1.93,3.655,3.655,0,0,0-2.351-.652,3.834,3.834,0,0,0-2.364.588,1.8,1.8,0,0,0-.741,1.431,1.572,1.572,0,0,0,.524,1.2,7.309,7.309,0,0,0,2.7.958,18.811,18.811,0,0,1,2.99.856,4.217,4.217,0,0,1,1.738,1.38,3.348,3.348,0,0,1,.562,1.917,3.615,3.615,0,0,1-.626,2.032,4.14,4.14,0,0,1-1.763,1.482,6.274,6.274,0,0,1-2.556.524,7.783,7.783,0,0,1-3.08-.537,4.268,4.268,0,0,1-1.942-1.6A4.639,4.639,0,0,1,341.807,65.76Zm-12.229-3.207h3.834a5.878,5.878,0,0,0,1.878-.256,2.121,2.121,0,0,0,1.406-2.019,2.057,2.057,0,0,0-.69-1.585,3.3,3.3,0,0,0-2.2-.613h-4.268Zm-1.789,7.539V56.6h5.98a7.961,7.961,0,0,1,2.747.371,2.965,2.965,0,0,1,1.5,1.278,3.835,3.835,0,0,1,.562,2.045,3.386,3.386,0,0,1-.933,2.415,4.7,4.7,0,0,1-2.862,1.278,4.766,4.766,0,0,1,1.073.664,9.786,9.786,0,0,1,1.482,1.8l2.338,3.667h-2.236l-1.789-2.811c-.524-.805-.946-1.418-1.278-1.853a3.655,3.655,0,0,0-.907-.894,2.837,2.837,0,0,0-.805-.371,5.877,5.877,0,0,0-1-.064h-2.07v5.967Zm-13.609,0V56.6h9.75v1.6h-7.961v4.1h7.463v1.585h-7.463v4.6h8.28v1.61Zm-9.8,0L299.152,56.6h1.93l3.54,9.8c.281.792.511,1.533.7,2.211.217-.728.447-1.469.728-2.211l3.68-9.8h1.827l-5.354,13.494Zm-9.827,0V56.6h1.776V70.092Zm-14.989,0V56.6h1.827l7.092,10.593V56.6h1.712V70.092h-1.827L281.275,59.5V70.092ZM273.775,56.6h1.789v7.808a9.2,9.2,0,0,1-.46,3.22,3.834,3.834,0,0,1-1.661,1.942,5.8,5.8,0,0,1-3.156.754,6.453,6.453,0,0,1-3.092-.652,3.718,3.718,0,0,1-1.725-1.891,8.945,8.945,0,0,1-.511-3.373V56.6h1.776v7.795a7.525,7.525,0,0,0,.332,2.556,2.466,2.466,0,0,0,1.125,1.278,3.936,3.936,0,0,0,1.93.46,3.706,3.706,0,0,0,2.811-.894,5.112,5.112,0,0,0,.831-3.425ZM244.946,70.092V56.6h1.789V68.507h6.645v1.585Zm-11.13-5.533h4.575l-1.418-3.744c-.422-1.124-.741-2.057-.946-2.8a18.987,18.987,0,0,1-.728,2.556Zm-3.9,5.533L235.107,56.6h1.917l5.52,13.494h-2.032L238.941,66h-5.648l-1.508,4.089Zm-15.334,0V56.6h2.7l3.195,9.533.652,1.993c.153-.486.383-1.278.716-2.16l3.233-9.392h2.4v13.52h-1.725V58.8l-3.923,11.3h-1.546l-3.833-11.5v11.5Zm-12.778-7.539h3.834a5.789,5.789,0,0,0,1.866-.256,2.1,2.1,0,0,0,1.061-.818,2.236,2.236,0,0,0,.358-1.2,2.019,2.019,0,0,0-.7-1.585,3.246,3.246,0,0,0-2.2-.613h-4.268Zm-1.776,7.539V56.6h5.98a7.884,7.884,0,0,1,2.735.371,3.041,3.041,0,0,1,1.508,1.278,3.833,3.833,0,0,1,.562,2.045,3.386,3.386,0,0,1-.933,2.415,4.779,4.779,0,0,1-2.875,1.278,4.764,4.764,0,0,1,1.073.664,9.3,9.3,0,0,1,1.482,1.8l2.351,3.667h-2.249l-1.776-2.811c-.524-.805-.958-1.418-1.278-1.853a3.833,3.833,0,0,0-.907-.894,2.747,2.747,0,0,0-.818-.371,5.876,5.876,0,0,0-1-.064h-2.07v5.967Zm-14.44-6.517a5.418,5.418,0,0,0,1.278,3.834,4.587,4.587,0,0,0,6.619,0,5.8,5.8,0,0,0,1.278-4.025,6.913,6.913,0,0,0-.562-2.875,4.268,4.268,0,0,0-1.636-1.9,4.421,4.421,0,0,0-2.4-.677,4.549,4.549,0,0,0-3.258,1.278,5.827,5.827,0,0,0-1.316,4.37Zm-1.84,0a7.373,7.373,0,0,1,1.8-5.265,6.134,6.134,0,0,1,4.651-1.891,6.389,6.389,0,0,1,3.374.894,5.8,5.8,0,0,1,2.287,2.428,8.14,8.14,0,0,1,.779,3.629,7.949,7.949,0,0,1-.818,3.667,5.738,5.738,0,0,1-2.377,2.453,6.619,6.619,0,0,1-3.271.831,6.389,6.389,0,0,1-3.412-.92,5.942,5.942,0,0,1-2.275-2.556,7.577,7.577,0,0,1-.741-3.271Zm-14.133,6.517V56.6h1.827l7.092,10.593V56.6h1.712V70.092h-1.84L171.33,59.5V70.092Zm-23,0V56.6h1.84l7.079,10.593V56.6h1.712V70.092h-1.827L148.329,59.5V70.092Zm-11.181-5.533h4.575L138.5,60.815c-.422-1.125-.741-2.057-.946-2.8a18.988,18.988,0,0,1-.728,2.556ZM131.6,70.092,136.79,56.6h1.917l5.418,13.494h-2.032L140.521,66h-5.648l-1.482,4.089Zm-13.2,0V56.6h1.84l7.079,10.593V56.6h1.712V70.092h-1.827L120.114,59.5V70.092Zm-13.558,0V56.6h9.75v1.6h-8.038v4.1h7.463v1.585h-7.463v4.6h8.28v1.61Zm-14.644,0V56.6h1.789v5.546h6.9V56.6h1.789V70.092H98.889V63.7h-7v6.389Z" transform="translate(25.061 15.651)" fill="#fff"/>
    <path id="路径_2090" data-name="路径 2090" d="M106.646,39.613a19.214,19.214,0,0,0,.1,2.172,20.448,20.448,0,0,0,.447,2.057c.115.5,0,.843.383.984s1.457,0,1.9.166a3.118,3.118,0,0,0,1.687.089c.524-.166.716-1.188.652-1.648s-.409-1.84-.409-2.045v-1.2h2.019a4.178,4.178,0,0,1-.358.882c-.192.281-.856,1.457-.524,2.006a1.968,1.968,0,0,0,1.278.831c.141,0,.882-.716,1.278-.933a18.478,18.478,0,0,0,2.4-1.355c.268-.294.268-1.278.767-1.585s1.9-1.022,1.9-1.022a9.786,9.786,0,0,1-.383-1.125c0-.281.166-1.482.664-1.278a2.134,2.134,0,0,1,.856,1.866c0,.805.179,14.567.179,14.567a13.777,13.777,0,0,1-.332,2.773c-.243.332-1.917.371-1.917.371l-2.479-.332s-.613,1.1-.422,1.533a79.559,79.559,0,0,0,7.092,4.089,1.418,1.418,0,0,0,.958-.153,19.27,19.27,0,0,0,2.837-3.22c0-.332-.077-11.5-.077-11.5l-.141-5.674V32.163s.371-1.866.371-2.262a4.881,4.881,0,0,0-1.61-2.3A12.855,12.855,0,0,0,123,26.528a2.977,2.977,0,0,0-1.47,1.891,43.657,43.657,0,0,0-.153,4.4l.128,1.278-3.629-1.418a4.482,4.482,0,0,0-.524.549,6.964,6.964,0,0,1-2.16,2.083,25.022,25.022,0,0,0-3.195.984c-.434.358-3.118,2.76-3.118,2.76a4.038,4.038,0,0,0-1.431-.664c-.473,0-.792,1.214-.792,1.214M168.9,45.989a4.37,4.37,0,0,1-1.9,0c-.524-.256-.294-.613-.141-1.278a8.946,8.946,0,0,1,1.7-2.543c.422-.409,2.683-2.8,3.016-3.246a3,3,0,0,0,.358-1.981,5.661,5.661,0,0,0-2.76-.383A50.537,50.537,0,0,0,165.5,40.3c-.217.243-3.092,2.275-4.153,2.16s-1.572-.511-1.572-1.086,1.559-1.84,2.862-2.4,9.827-5.955,9.827-5.955l5.814-2.965s1.15-.754,1.533-.613a1.725,1.725,0,0,1,.946,2.057c-.192,1.38-1.38,6.019-1.469,7.156s-1.048,9.124-1.048,9.124-.256,4.064-.307,5.277a7.425,7.425,0,0,1-.447,3.041c-.358.524-1.278.307-1.572.2a27.713,27.713,0,0,1-3.834-2.671c-1.125-.971-1.763-.831-2.07-1.278s-.575-.716-.217-.958a4.025,4.025,0,0,0,1.188-1.38c0-.256-.409-.332-.741-.243s-1.406.843-1.661.843,0-2.415.064-2.8.243-1.815.243-1.815Zm2.556-19.168c.217-.319,1.086-1.278,1.815-2.185s2.556-1.521,2.888-1.827.192-1.035-.141-1.751a4.064,4.064,0,0,0-2.351-1.355,10.363,10.363,0,0,0-1.891,1.124,8.191,8.191,0,0,1-1.687.741,3.91,3.91,0,0,1-.077-2.083A25.562,25.562,0,0,0,170.972,16a3.667,3.667,0,0,0-1.278-2.39c-.907-.971-5.367-5.635-5.367-5.635a2.274,2.274,0,0,0-.524.1c-.192,0-.4.537-.4,1.214a13.419,13.419,0,0,0,.639,2.888,29.625,29.625,0,0,1,.716,3.936,20.765,20.765,0,0,1-1.278,4.613,28.113,28.113,0,0,0-.882,3.936,34.692,34.692,0,0,1-5.047,2.875,52.253,52.253,0,0,1-6.2,1.623s-.256.818,0,1.073a16.063,16.063,0,0,0,4.23,2.466,28.381,28.381,0,0,0,4.153,1.022,3.284,3.284,0,0,1,.779.153,2.134,2.134,0,0,1,0,1.47,22.465,22.465,0,0,1-3.463,4.14,53.533,53.533,0,0,1-5.725,3.322,16.293,16.293,0,0,0-4.1,2.121,2.786,2.786,0,0,0-.779,2.057,8.076,8.076,0,0,1-.128,2.888,5.405,5.405,0,0,0-.831,2.9c.115,1.278.562,4.421,1.648,5.661s2.045.907,2.223.779a8.115,8.115,0,0,0,1.214-3.156,16.459,16.459,0,0,0,.064-3.322,19.247,19.247,0,0,0-1.712-2.99,6.53,6.53,0,0,1-1.125-2.811c0-.843,0-1.01.141-1.1a38.862,38.862,0,0,1,3.834-1.763c.818-.243,2.722-.958,3.463-1.061s1.5-.192,1.9.409,1,1.648,1.661,1.84a7.667,7.667,0,0,0,2.338.192,22.182,22.182,0,0,0,2.453-2.466,22.221,22.221,0,0,1,2.671-2.4,3.834,3.834,0,0,1,1.38-.549,3.425,3.425,0,0,1,0,2.121,36.93,36.93,0,0,1-3.834,4.127,15.182,15.182,0,0,0-2.185,2.747c-.243.716-.166,1.15.141,1.431l.767.767s-1.8,2.121-2.057,2.556a4.025,4.025,0,0,0-.192,1.661c0,.383.166,1.457.345,1.47s1.278,0,1.278,0a2.337,2.337,0,0,1-.128-.664c0-.141.332-.179.332-.179l1.278.626.115,2.377.664-.141s1.457-1.431,1.738-1.623a6.647,6.647,0,0,1,1-.447,15.513,15.513,0,0,0,.575-2.415c0-.166.805-1.559,1.623-1.393a2.338,2.338,0,0,1,1.546,1.367,10.057,10.057,0,0,0,1.1,2.313c.358.383,2.211,1.009,2.709,1.623s2.006,3.4,2.006,3.4a4.5,4.5,0,0,0,1.814.23,11.5,11.5,0,0,0,2.658-2.121,4.971,4.971,0,0,0,.319-2.556,27,27,0,0,1-.856-3.655,44.624,44.624,0,0,1-.179-6.121c.179-1.278.958-6.389.958-6.389s1.124-4.817,1.38-5.7a28.687,28.687,0,0,0,.882-3.949V29.48l1.508-.677a3.335,3.335,0,0,0-.383-1.124,9.43,9.43,0,0,0-2.045-1.815,1.738,1.738,0,0,0-1.406.243c-.473.268-4.549,3.08-4.549,3.08l-5.444,3.322-8.1,4.345a1.38,1.38,0,0,1-.383-1,3.374,3.374,0,0,1,1.47-1.674,4.6,4.6,0,0,0,2.2-2.773c.575-1.725.716-2.287,2.76-3.105a7.131,7.131,0,0,0,2.4-1.47ZM196.542,35.4l3.233-3.45,4.626-6.773,3.961-5.827s1.457-2.466,1.035-3.706a30.063,30.063,0,0,0-2.39-4.14s-.192-.473.677-.473a18.925,18.925,0,0,1,5.214,1.15,3.322,3.322,0,0,1,.856,3.719,8.152,8.152,0,0,1-2.377,3.207c-.434.358-3.834,4.2-3.834,4.2s-3.131,3.834-3.463,4.319-3.5,5.469-3.744,5.9-2.1,2.453-2.16,2.556a3.463,3.463,0,0,1-1.406.1C196.478,36.112,196.312,35.78,196.542,35.4Zm7.258-.741,3.5-3.834a10.554,10.554,0,0,0,1.431-.652,9.929,9.929,0,0,0,.754-2.453c0-.153.856-1.278,1.533-.486s1.406,2.824.831,3.974a30.667,30.667,0,0,1-1.738,2.811l.447,1.009.831.179a6.888,6.888,0,0,1-1.661,1.866,2.428,2.428,0,0,1-2.006.243,3.322,3.322,0,0,1-.741-.626l.882-1.5.243-.434a1.942,1.942,0,0,0-1.278-.383,11.091,11.091,0,0,0-2.556,1.367c-.128.089-1.278.588-1.431.473s.5-1.073.5-1.073Zm14.861-8.165,7.169-3.961,4.2-2.083,2.377.217-.243.524-4.971,3.54a30.034,30.034,0,0,0-2.287,2.249,13.786,13.786,0,0,1-1.572,1.93c-.217.077-4.268-.664-4.46-.639s-1.1-.319-1.15-.549.077-.882.933-1.227Zm7.4,5.993-4.907.115v.843c0,.268.664,3.322.664,3.322a14.159,14.159,0,0,1-3.31,2.556,26.054,26.054,0,0,1-4.294.575,2.083,2.083,0,0,0,2.224,1.648c1.8-.192,2.479-1.278,3.361-1.815a9.328,9.328,0,0,1,2.045-.779l-.2,11.5s0,5.827.524,7.539.716,2.965,1.15,3.105a1.38,1.38,0,0,0,1.61-.716,48.009,48.009,0,0,0,1.278-9.7c.192-4.677,0-9.456,0-9.456a8.511,8.511,0,0,0,2.913-2.722,65.168,65.168,0,0,0,3.527-6.875l.141-.907a8.216,8.216,0,0,0-1.853-1.278,3.54,3.54,0,0,0-2.632.856,20.446,20.446,0,0,1-2.236,2.185ZM208.17,42.948s-.294,1.188-.473,1.623-.869,1.572-.716,2.006a18.821,18.821,0,0,0,1.763,2.287s.754.192.946-.473l1.38-4.869.141-1.482-1.418,1.521s-.294-1.521,0-1.9,1.38-2.045,1.38-2.045-.243-.767-.907-.767S208.4,40.38,208.4,40.38s-1.661,1.137-1.8,1.278-.434.805,0,1.048A4.485,4.485,0,0,0,208.17,42.948Zm-8.2-1.278.524,3.923a38.592,38.592,0,0,1-.089,4.766,6.569,6.569,0,0,0,1,2.556,1.725,1.725,0,0,0,2.1.141c.383-.371,2.006-2.913,1.431-4.92A15.961,15.961,0,0,0,201.64,42.6a17.189,17.189,0,0,0-1.674-1Zm54.7-21.583-2.045,1.431a1.278,1.278,0,0,1-.958-1.725,12.011,12.011,0,0,1,1.342-3l-.332-.524a6.389,6.389,0,0,0-3.961,4.536,12.434,12.434,0,0,0-.383,5.2s3.054-.281,4.051-1.533a29.112,29.112,0,0,0,2.338-3.834Zm3.195-2.16a15.9,15.9,0,0,0,1.572.524c.294.038,2.773,1.2,3.246,1.444a8.6,8.6,0,0,0,3.425-.383,2.293,2.293,0,0,0,1.278-1.866,2.262,2.262,0,0,1,.767-1.278c.332-.192-.294-.856-.294-1.1s-1.086.856-1.521.856-3.578-.524-4.191-.473a8.943,8.943,0,0,0-2.1.907,7.874,7.874,0,0,1-1.431.473c-.371.026-.754.856-.754.856ZM276.279,11.5l-1.1-.115c-.217,0-.575-.5-.575-.5a.652.652,0,0,1,.434-.434c.332-.064,1.661-.141,1.661-.141l1.533-1.457,3.642-.141a1.457,1.457,0,0,1,.549,1.022c0,.652,0,2.006-.294,2.223s-2.326,1.278-2.709,1.546a29.244,29.244,0,0,1-3.91,1.968,5.022,5.022,0,0,1-2.045-.192s-.294-.166.089-.511S276.2,12.7,276.2,12.7Zm1.38,15.334-.767-1.93a1.751,1.751,0,0,1,.358-1.048,32.728,32.728,0,0,1,2.556-2.338,1.776,1.776,0,0,1,.92.2,9.94,9.94,0,0,1,1.648,2.39l.332,1.6a1.2,1.2,0,0,1-.5.383,6.555,6.555,0,0,0-2.722,2.632,13.444,13.444,0,0,1-3.169,3.77c-.358.077.46,2.083.5,2.326a4.5,4.5,0,0,1-.281,1.789,3.2,3.2,0,0,1-1.853.141,4.024,4.024,0,0,1-1.048-1.789c0-.358-.626-3.834-.626-3.834a15.947,15.947,0,0,0,1.533-.575c.2-.141,1.942-2.3,2.108-2.556S277.659,26.835,277.659,26.835Zm-6.747,4.8s-1.278,7.667-1.278,7.859-.345,4.613-.345,4.613a35.773,35.773,0,0,0,.383,5.75c.383.984.933,1.15.933,1.15l2.1,1.022s2.39-.5,2.556-.549,3.552-.5,3.834-.5l8.306.128s1.942-.192,2.3-.984a2.8,2.8,0,0,0,.192-2.287c-.307-.46-1.354-2.223-1.521-2.556s-2.722-7.258-2.722-7.258l-.473-.409a7.462,7.462,0,0,0-.115,1.866c.115.409,1.636,5.52,1.636,5.52a21.022,21.022,0,0,1,0,3.118,4.013,4.013,0,0,1-2.875,1.278c-1.521.1-10.133-.089-10.862-.256s-1.2-.6-1.2-.958,1.84-6.389,1.955-7.092a8.943,8.943,0,0,0,0-2.837c-.166-.217-1.112-1.278-1.112-1.278s-.907-4.843-.907-4.958-.779-.422-.779-.422Zm-9.277.639.767,1.15s.895-.141,1.086-.422.243-1.15,0-1.342l-.383-.332Zm-.141,7.411L260.485,41.4l.818,1.061,1.048-.818V39.83Zm.665-12.472-1.1-.281-.281-1.917a2.709,2.709,0,0,0-1.763-.089c-.664.332-.575,1-.243,1.815a10.222,10.222,0,0,1,.434,2.428h-2.1a.626.626,0,0,0-.243.869,6.936,6.936,0,0,0,1.482,1.278v.524l-3.527,2.811a10.042,10.042,0,0,1-2.185,1.15c-.524,0-1.009-.856-1.009-1.188s-2.1,2.2-2.428,2.62-1,1.342-1,1.342a.85.85,0,0,0,.332.575c.332.294,2.236,1.137,2.671.946s1.661-2.338,2.428-3,2.722-2.479,3.719-2.556.664.664.664.958V36.3s-2.1.1-2.236.767,1.137.958,1.278,1.278A2.045,2.045,0,0,1,256.2,40.3c-.907.728-3.578,3.105-3.578,3.105s-.089.907.473.626,1.572-1.278,2.338-1.278,1.482.626,1.38,1.048a12.064,12.064,0,0,1-2.556,2.39,4.792,4.792,0,0,1-1.763.626,2.109,2.109,0,0,1-1-.486l.422-1.763a19.41,19.41,0,0,0-2.326,1.278,16.752,16.752,0,0,0-3.246,3.834,12.523,12.523,0,0,0-.332,2.556s1.188.524,4.051-1.278a25.173,25.173,0,0,0,4.626-3.731l.192-.281s1.188-.332,1.278.575,0,4.728,0,4.728L254.4,54.206a1.022,1.022,0,0,0,.243,1,5.112,5.112,0,0,0,1.661.907l.524,3.54,2.556.281a8.382,8.382,0,0,0,.383-3.834c-.192-2.556-1.048-5.674-.1-7.872a19.754,19.754,0,0,1,2.172-4.319,28.1,28.1,0,0,0,2.671-1.585c.23-.281,0-1.815,0-1.815l-.434-1.815a14.058,14.058,0,0,0,1.2-1.674c.179-.422.473-1.431.473-1.431s-1.15.818-1.763.716l-.626-.089s-.23-.767.818-2.2a18.167,18.167,0,0,0,1.955-3.246,10.448,10.448,0,0,0,.141-1.278,5.112,5.112,0,0,0-1.431-.626,1.764,1.764,0,0,0-.524,0A9.3,9.3,0,0,1,262.5,30.3c-.422.089-1.278-.141-1.278-.767a7.743,7.743,0,0,1,.933-2.351ZM303.714,40l-1.048,1.2a3.232,3.232,0,0,0,1.048,1.853,20.444,20.444,0,0,0,3.374,1.444h.677S311,41.811,311.6,41.389a7.667,7.667,0,0,1,2.556-1.1,10.81,10.81,0,0,1,1.763-.153s-.383,5.022-1.623,7.36a10.223,10.223,0,0,1-5.38,5.354,6.3,6.3,0,0,1-3.949.23l-2.236-.971s-.665.958-.332,1.533,1.278,1.572,3.667,1.278a28.112,28.112,0,0,0,6.888-2.134,12.357,12.357,0,0,0,3.437-5.507c.805-2.722,1.751-7.015,2.76-8.408s.383-1.955,5.329-3.437,7.667-2.39,7.667-2.39-.141,0,.664-1.048,1.917-2.556,1.917-2.556.089-.958-.524-.716-1.955,1.1-2.556.664-.626-.371-.626-.371l-1.623-.907s-.294.089-.192.805.473,2.556.473,2.556L323.431,34.3l-3.476.473a16.806,16.806,0,0,1,.664-5.635c.907-2.952,2.914-8.357,3.105-8.74a6.3,6.3,0,0,0-.294-3.834c-.664-1.521-2.556-3.834-3.143-4.92s-1.188-2.479-1.431-2.862-1.278,0-1.188.434a9.209,9.209,0,0,1,.958,2.479c0,.767-.486,2.492-.486,3.246s1.009,2.39,1.009,3.016-.524,1.815-.524,2.249-.345,5.584-.345,5.584S316.812,36.1,316.34,36.725a37.583,37.583,0,0,1-5,3.131,21.6,21.6,0,0,1-4.051,1.406,15.18,15.18,0,0,1-2.453-1.048Zm18.58,3.45,6.67,4.434s4.626,2.773,5.2,2.965a8.2,8.2,0,0,0,3.373.434c.626-.294,2.057-1.2,2.057-1.2s.716,0,.371.434a37.351,37.351,0,0,1-5.661,5.354c-1.572.856-3.195,1.482-4.051,1.048s-5.009-5.495-5.009-5.495-1.661-2.965-2.185-4.2A8.319,8.319,0,0,1,322.294,43.447Zm54.321-23.167a13.748,13.748,0,0,1,.767-3.489,11.5,11.5,0,0,0,.741-4.421,3.655,3.655,0,0,0-.383-1.278l-1.712-.141a.843.843,0,0,1,.089-.958,9.2,9.2,0,0,1,3.91-3.629,8.792,8.792,0,0,1,3.092-1.1,3.693,3.693,0,0,0,1.01,0l.754-.294s-.575,2.351-.805,2.913-3.054,6.888-3.527,7.884-1.431,1.955-1.623,2.441a9.182,9.182,0,0,1-1.048,1.815c-.268.192-1.214.524-1.265.281ZM371.9,17.455a10.025,10.025,0,0,1,.575,1.342l.281,1.048a8.307,8.307,0,0,0,1.278-2.39c.192-.907.1-1.712-.23-1.853s-1.712,1.278-1.712,1.278Zm-5.431,6.07a6.39,6.39,0,0,1,1.8-2.39l2.006-1.712h1l.958,1.278a10.939,10.939,0,0,1-2.556,2.006,9.085,9.085,0,0,1-3.207.843Zm-.192-11.654a4.485,4.485,0,0,0-1.188,2.441,3.335,3.335,0,0,0,.805,2.556l2.811-3.437a18.644,18.644,0,0,1-2.083.626.46.46,0,0,1-.332-.767c.332-.332.562-.613.422-.907a1.356,1.356,0,0,0-.434-.486Zm7.284,11.5a8.447,8.447,0,0,1-2.811.856c-1.278.1-3.514.243-4.332.958s-3.949,4.2-3.949,4.2l-4.2,5.252-.371,1.1a6.773,6.773,0,0,0,3.834-1.763c1.521-1.585,3.476-3.629,4.472-4.447s3.834-2.147,4.1-2.62a16.435,16.435,0,0,1,2.479-2.108s.805-.664.907-1a.421.421,0,0,0-.128-.447ZM369.178,9.507a6.568,6.568,0,0,1-1.469-.383,29.757,29.757,0,0,1-1.955-2.39L363.8,6.594,360.6,3.974H357.32s-.473-.153-.626.23a1.1,1.1,0,0,0,0,1.15c.281.332,2.262,2.057,2.262,2.057a5.481,5.481,0,0,0,1.278.805,3.143,3.143,0,0,1,1.815.677,23.3,23.3,0,0,1,1.278,4.1l.243,3.54-.383.383-.907-.345-.613.192a5.114,5.114,0,0,0,.613,1.342,2.045,2.045,0,0,1,.434.818v.907s-.664.946-.907,1a2.415,2.415,0,0,1-.716,0s-.371-2.671-.524-3.246a2.466,2.466,0,0,0-1.61-1.725,23.7,23.7,0,0,0-3.105,0,12.264,12.264,0,0,1,1.342,2.39c.141.664.562,4.575.8,5.392s.958,2.1,1.278,2.1a2.709,2.709,0,0,0,1.01-.383L362,23.5s-.192-.716.243-1.061,1.431-.422,1.712-.613a17.268,17.268,0,0,0,1.431-2.147,14.561,14.561,0,0,1,1.38-1.917,3,3,0,0,1,1.048-.243l.473,1.776-2.709,2.671-.856,1.431,1.048.1a43.83,43.83,0,0,1-2.977,3.642,31.392,31.392,0,0,0-4.472,4.434c-1.278,1.763-3.386,5.022-3.386,5.022s-2.045,2.2-2.556,2.913-.434,1.137-.192,1.482,1.137,1.431,1.521,1.521a9.111,9.111,0,0,0,4.562-1.623,36.735,36.735,0,0,0,4.523-4.869c.575-.907,2.862-4.115,3.386-4.728s4.472-3.4,4.472-3.4,3.246-2.338,3.476-2.428a23.771,23.771,0,0,0,2.556-.294c.307-.192,1.38-2.62,3.054-3.77a10.223,10.223,0,0,1,4.715-1.815h.613s.345.716-.422,1.955a52.108,52.108,0,0,1-4.677,4.971,62.274,62.274,0,0,1-5.29,3.386,28.43,28.43,0,0,1-3.706,1.1l-1.917,3.834a1.816,1.816,0,0,0,.575.434,5.587,5.587,0,0,0,.958.332s.805-1.2,1.137-1.2.524.434.524.958-.473,4.779-.473,4.779l-8.817,4.2s-6.006,3.246-7.245,4.728a7.245,7.245,0,0,0-1.521,3l4.485,1.2h.946l-1.137-1.968a26.834,26.834,0,0,1,6.1-2.913c3.834-1.278,6.057-2.045,6.057-2.045s1.048,10.4.805,10.644a8.715,8.715,0,0,1-2.952,0,36.566,36.566,0,0,1-4.677-2.556c-1.763-1.1-1.993-.767-1.993-.767v1.009l4.191,3.284s5.571,3.45,6.721,3.591a29.112,29.112,0,0,0,3.195.089,30.58,30.58,0,0,0,0-4.92c-.23-1.278-.894-2.862-.945-3.489s.141-3.386,0-4.817-.294-3.054-.294-3.054a7.833,7.833,0,0,1,2.862-1.776,65.264,65.264,0,0,1,6.67-.524s.575.1.716-.243a16.869,16.869,0,0,0,.907-2.62c0-.243-1.9-.958-1.9-.958a9.873,9.873,0,0,0-.332-1.712c-.192-.486-.856-.958-1.188-.869s-2.249,1.061-2.338,1.623a1.309,1.309,0,0,1-.958,1.061l-3.757-.1a5.317,5.317,0,0,1-.486-2.913,7.526,7.526,0,0,1,2.249-3.527c.907-.575,1.431-.958,1.431-.958l.141-.818s-1.572-.383-1.572-.805.332-1.1,1.38-1.482a10.453,10.453,0,0,0,3.949-2.338c1.342-1.342,4.345-5.495,4.345-5.495l1.048-1.674s-.1-1.482-2.1-1.623a14.541,14.541,0,0,0-4.383.575l1.572-5.444L385.6,7.3s1.1-2.057,1.674-2.249,1.572-1.15,1.278-1.674a2.351,2.351,0,0,0-2.952-.664,22.461,22.461,0,0,1-3.335,1.137l-1.815.383-4.472,3.68s-2.39,1.674-2.722,1.955a11.035,11.035,0,0,0-1.048,1.393s-1.661,1-2.045.524.332-2.249.958-2.722,3.335-2.441,4.23-3.156a4.383,4.383,0,0,0,1.278-2.147,8.946,8.946,0,0,0-2.556-2.2C372.756,1.278,371.133,0,370.9,0s-.575.294-.243.958,1.278,2.108,1.137,2.824a26.15,26.15,0,0,1-1.853,3.386,9.3,9.3,0,0,0-.664,1.278,2.287,2.287,0,0,0-.1,1.061ZM226.188,35.639a10.3,10.3,0,0,1,1.521-2.9c.6-.409,2.16-1.61,3.028-1.278s-3.22,7.22-3.834,7.118C226.239,38.719,226.137,36.687,226.188,35.639ZM95.72,23.947a52.626,52.626,0,0,0-3.527,4.741c-.664,1.278-.754,1.993-.6,2.147s.971-.268,1.278-.575,2.223-2.134,2.453-2.441a13.046,13.046,0,0,1,1.866-1.725,10.36,10.36,0,0,1,1.112-.422,3.4,3.4,0,0,0,1.278.639c.4,0,1.968.281,2.364,1.15s.728,2.211.907,2.556a6.387,6.387,0,0,1,.358.933s-.613-.166-.843.23a27.924,27.924,0,0,0-.894,3.322l-1.406,5.955-1.942,4.485a24.534,24.534,0,0,0-1.508,3.271c-.422,1.342-1.278,3.246-2.147,3.757s-1.073.383-1.073.383a29.927,29.927,0,0,1,.549-4.5,9.826,9.826,0,0,1,2.249-3.719,11.705,11.705,0,0,1,1.853-1.2,13.56,13.56,0,0,0,.332-2.671c-.141-.307-5.507-3.463-5.507-3.463s-3.45-2.032-3.834-2.147-1.482-.383-1.176.473,2.645,4.7,2.645,4.7A9.367,9.367,0,0,0,92.13,41.7a3.476,3.476,0,0,1,1.355,1.891c0,.4-.882,4.958-.882,4.958a20.522,20.522,0,0,1-1.1,3.834c-.422.6-1.47,1.8-1.47,1.8s-.077.473.115.664A17.009,17.009,0,0,1,91.542,57.5c.166.524.256,1.278.332,1.533a6.389,6.389,0,0,0,1.789.664c.243,0,.422-.307.243-.613s-.511-.958-.511-.958a18.644,18.644,0,0,0,2.747-.626,5.878,5.878,0,0,0,1.993-3c.358-1.7,1.278-5.111,1.559-5.776s1.712-4.779,1.712-4.779,1.431-5.188,1.572-5.763.971-6.543.971-6.543a8.523,8.523,0,0,0,1.981.575,5.2,5.2,0,0,0,1.533-.192,30.373,30.373,0,0,1,2.1-2.556,9.929,9.929,0,0,1,4.281-1.457,21.123,21.123,0,0,0,4.766-.767,58.779,58.779,0,0,0,6.53-2.556l5.674-2.364a22.76,22.76,0,0,1,4.524-1.878,18.157,18.157,0,0,1,2.556,0,14.89,14.89,0,0,0,1.623-1.674,2.824,2.824,0,0,0-.192-2.722,3.642,3.642,0,0,0-1.789-.664l-.971.907a23.091,23.091,0,0,0-2.364,0,6.006,6.006,0,0,0-1.93,1.035,7,7,0,0,1-2.786,1.738c-1.355.409-4.881,1.482-5.763,1.891s-7.437,3.054-8.153,3.322-5.546,1.878-5.546,1.878a34.5,34.5,0,0,1-3.629.818,7.884,7.884,0,0,1-2.121-.128c0-.141,0-4.345,0-4.345s-2.773-2.658-3.437-3.233a13.43,13.43,0,0,0-3.054-1.942,9.545,9.545,0,0,1-2.3-1.278C95.222,15.832,93.1,13,93.1,13a23.932,23.932,0,0,0-1.789-2.211,8,8,0,0,0-1.278-.831c-.268,0-.358.767-.192,1.367s.971,2.39,1.1,3.054a11.5,11.5,0,0,0,1.086,3.987c.69.882,1.93,2.556,2.172,2.824a11.4,11.4,0,0,1,1.278,1.981,7.03,7.03,0,0,1,.243.779Z" transform="translate(24.397)" fill="#fff" fill-rule="evenodd"/>
  </g>
</svg>
