<svg xmlns="http://www.w3.org/2000/svg" xmlns:xlink="http://www.w3.org/1999/xlink" width="64.289" height="63.461" viewBox="0 0 64.289 63.461">
  <defs>
    <linearGradient id="linear-gradient" x1="0.5" x2="0.835" y2="1" gradientUnits="objectBoundingBox">
      <stop offset="0" stop-color="#c67900"/>
      <stop offset="1" stop-color="#e6c25a"/>
    </linearGradient>
    <filter id="路径_45489" x="2.754" y="4.716" width="59.04" height="58.746" filterUnits="userSpaceOnUse">
      <feOffset dy="1" input="SourceAlpha"/>
      <feGaussianBlur stdDeviation="1" result="blur"/>
      <feFlood flood-color="#505a02" flood-opacity="0.486"/>
      <feComposite operator="in" in2="blur"/>
      <feComposite in="SourceGraphic"/>
    </filter>
  </defs>
  <g id="组_14681" data-name="组 14681" transform="translate(0.577 -0.001)">
    <g transform="matrix(1, 0, 0, 1, -0.58, 0)" filter="url(#路径_45489)">
      <path id="路径_45489-2" data-name="路径 45489" d="M1318.706-6061.357h-.267l-4.624-11.535a10.394,10.394,0,0,0-2.73-1.754,14.729,14.729,0,0,0-3.509-.881h-5.306l-5.711,1.825-2.724,2.546-3.444,2.2-1.912.288-5.709-.818-1.655-1.025-.548-3.066-.682-2.551-2.533-3.251.362-1.675.828-.953-.466-.96-2.457-2.937-.469-1.892.85-1.557.84-1.447v-3.344l2.383-2.63,1.345-6.546,2.2-1.181,1.177-2.82,2.487-1.436,2.983.229,1.78,2.63,1.8,3.193,1.492.592.718-1.835-.718-3.639-1.492-2.692v-1.481l.961-.909,3.081.628,2.452-1.041,1.834-.688,1.543-.3,2.364,1.4,1.249.909,2.213-.281,1.024-.37,3.658,1.5,3.719.633,3.756.619,1.654,2.572.853,1.648,2.774,2.118,2.063,3.849-1.021,4.63-2.4,4.041-4.643,5.052-2.344,3.04-1.535,4.749-.451,6.881a55.541,55.541,0,0,0,2.639,7.106c1.757,3.912,1.152,2.333,1.152,2.333Z" transform="translate(-1269.4 6120.78)" fill="url(#linear-gradient)"/>
    </g>
    <path id="交叉_65" data-name="交叉 65" d="M-1.871,52.527q.568-.51,1.134-1.023A.552.552,0,0,0-.7,51.464a2.536,2.536,0,0,0,.156-.224c-.475.365-.947.738-1.406,1.13-.1-.2-.191-.407-.279-.614a63.52,63.52,0,0,1,5.8-5.236c1.113-.9,2.284-1.689,3.438-2.511,1.036-.738,2.086-1.446,3.126-2.175a4.414,4.414,0,0,0,1.1-1.109,5.478,5.478,0,0,0,.8-2.042,11.479,11.479,0,0,0-.2-5.53c-.28-1-.58-2-.923-2.977a13.36,13.36,0,0,0-3.064-5.087,10.946,10.946,0,0,0-2.511-1.942A12.94,12.94,0,0,1,2.864,21.3a9.334,9.334,0,0,1-1.436-1.7,5.059,5.059,0,0,1-.754-1.582A17.394,17.394,0,0,1,0,13.64a9.742,9.742,0,0,1,.44-2.866,1.653,1.653,0,0,1,.223-.464l.024-.034c.024-.033.05-.066.077-.1a1.625,1.625,0,0,1,.244-.228A4.058,4.058,0,0,1,3.02,9.036,3.711,3.711,0,0,0,4.938,8.1,9.574,9.574,0,0,0,6.553,6.281a13.9,13.9,0,0,1,.971-1.208A4.13,4.13,0,0,1,8.3,4.427a1.22,1.22,0,0,1,1.3-.108c.226.115.46.212.693.305a.943.943,0,0,0,1.22-.4c.176-.251.339-.518.495-.79A9.563,9.563,0,0,1,14.055.952a5.845,5.845,0,0,1,.8-.592A2.04,2.04,0,0,1,16.922.228,3.543,3.543,0,0,0,19.767.41a6.823,6.823,0,0,1,.919-.253c.39-.071.785-.118,1.179-.151a2.253,2.253,0,0,1,1.308.338q.39.216.77.462a5.046,5.046,0,0,0,3.52.842c.556-.078,1.109-.185,1.661-.288a8.933,8.933,0,0,1,2-.206,1.948,1.948,0,0,1,1.5.793c.153.189.293.393.429.6a1.312,1.312,0,0,0,.936.642c.258.034.517.043.775.059.369.023.738.025,1.1.063a2.565,2.565,0,0,1,1.463.716,8.14,8.14,0,0,1,1.317,1.557,3.971,3.971,0,0,1,.636,2.209,2.312,2.312,0,0,1-.338,1.3,5.886,5.886,0,0,1-.656.885c-.558.582-1.138,1.135-1.715,1.69-.428.412-.869.8-1.292,1.22a2.3,2.3,0,0,0-.6.994,2.106,2.106,0,0,0-.067.234.74.74,0,0,0,.3.795,1.074,1.074,0,0,0,.79.193,5.006,5.006,0,0,0,.959-.239,11.237,11.237,0,0,0,2.514-1.32,13.1,13.1,0,0,0,1.165-1.007c.393-.356.77-.743,1.17-1.087a3.138,3.138,0,0,1,1.067-.617c.961-.317,1.849.4,1.942,1.607a11.273,11.273,0,0,1-.041,1.337c-.009.2-.038.4-.054.592a1.083,1.083,0,0,0,.32.921,7.519,7.519,0,0,0,.651.511c.416.316.849.6,1.247.95a3.7,3.7,0,0,1,1.179,2.357,7.082,7.082,0,0,1-.264,3.363c-.141.414-.264.836-.4,1.253a1.5,1.5,0,0,0,.106,1.189,3.725,3.725,0,0,0,.478.74,2.989,2.989,0,0,1,.57,2.693c-.074.4-.184.8-.254,1.2-.1.552-.189,1.1-.248,1.661A4.077,4.077,0,0,0,48,32.819a16.333,16.333,0,0,1,.521,3.857,3.477,3.477,0,0,1-.4,1.793,7.766,7.766,0,0,1-1.6,2.114c-.181.175-.366.347-.555.509a4.235,4.235,0,0,0-1.1,1.513q-.328.717-.665,1.427a10.3,10.3,0,0,1-.935,1.589l-.051.072a14.344,14.344,0,0,1-1.155,1.39,3.858,3.858,0,0,1-2.444,1.269,14.556,14.556,0,0,1-3.829.017,11.555,11.555,0,0,1-2.531-.656c-1.039-.356-2.074-.717-3.114-1.069a8.535,8.535,0,0,1-2.665-1.373,2.62,2.62,0,0,0-.318-.226c-.987-.565-1.971-1.137-2.966-1.68a3.916,3.916,0,0,0-.9-.328c-.734-.194-1.472-.36-2.209-.543a7.119,7.119,0,0,0-1.954-.193c-1.2.037-2.4.049-3.6.09a8.191,8.191,0,0,0-1.18.147c-.674.12-1.349.251-2.019.4a6.646,6.646,0,0,0-1.068.335,17.607,17.607,0,0,0-2.74,1.442c-.966.618-1.954,1.185-2.924,1.792a9.8,9.8,0,0,0-.9.682c-.466.375-.926.762-1.391,1.14A51.83,51.83,0,0,0-.656,51.954q-.5.5-.99,1C-1.724,52.816-1.8,52.672-1.871,52.527Zm4.4-4.157A25.005,25.005,0,0,0-.185,50.5a1.838,1.838,0,0,0-.182.241,1.275,1.275,0,0,0,.212-.11c.54-.412,1.085-.814,1.616-1.247.412-.335.8-.706,1.2-1.062A.425.425,0,0,0,2.525,48.37ZM34.1,47.118a3.831,3.831,0,0,0,.912.318,12.03,12.03,0,0,0,3.138.25c.586-.025,1.173-.057,1.756-.117a2.616,2.616,0,0,0,1.657-.891q.2-.217.4-.442c.117-.135.234-.273.349-.41.229-.275.45-.563.7-.887l-.032,0a5.39,5.39,0,0,1-.625.282,15.133,15.133,0,0,1-2.2,1.022,14.322,14.322,0,0,1-5,.869h-.114C34.725,47.109,34.414,47.115,34.1,47.118ZM5.366,46c-.554.337-1.114.66-1.655,1.026a5.745,5.745,0,0,0-.679.634,2.046,2.046,0,0,0,.274-.136q1.014-.682,2.025-1.378a2.427,2.427,0,0,0,.225-.2A.63.63,0,0,0,5.366,46Zm24.967-.061c.755.22,1.5.484,2.26.7a5.1,5.1,0,0,0,1.048.2c.4.031.808.03,1.213.03h.341a14.691,14.691,0,0,0,6.78-1.592A.036.036,0,0,1,42,45.251c.03-.009.059-.023.089-.032.1-.052.205-.105.308-.16a3.226,3.226,0,0,1,.381-.152.728.728,0,0,1,.119-.117,2.363,2.363,0,0,0,.5-.433A3.037,3.037,0,0,0,44,43.2c-.13.042-.246.078-.36.118-.656.229-1.305.492-1.967.684a29.173,29.173,0,0,1-8.229,1.21,21,21,0,0,1-5.049-.52c-.175-.043-.349-.076-.524-.12-.157-.04-.312-.088-.549-.155A8.634,8.634,0,0,0,30.333,45.935ZM5.56,45.942a.456.456,0,0,0,.293-.149.536.536,0,0,0,.053-.076A.442.442,0,0,0,5.56,45.942ZM25.9,43.772c.569.185,1.137.362,1.711.517a21.444,21.444,0,0,0,5.527.7,29.846,29.846,0,0,0,7.239-.859,26.077,26.077,0,0,0,3.37-1.048c.154-.06.305-.133.4-.176.354-.634.672-1.209,1.036-1.866-.445.162-.849.3-1.247.455a17.655,17.655,0,0,1-3.1.911,12.5,12.5,0,0,0-1.358.363,32.494,32.494,0,0,1-4.522,1.177,6.348,6.348,0,0,1-.651.076,52.511,52.511,0,0,1-5.646-.084,15.866,15.866,0,0,1-1.831-.245c-.49-.077-.979-.184-1.469-.277A1.31,1.31,0,0,0,25.9,43.772Zm-18.381.293c-.267.17-.517.382-.772.578a2.455,2.455,0,0,0,.284-.109q1.191-.594,2.377-1.194c.08-.039.155-.088.233-.132A6.719,6.719,0,0,0,7.518,44.066Zm25.41-.26a13.079,13.079,0,0,0,1.958-.128,23.986,23.986,0,0,0,3.528-.858,26.379,26.379,0,0,1,2.8-.729,18.086,18.086,0,0,0,1.956-.526c.738-.238,1.467-.518,2.2-.787a1.486,1.486,0,0,0,.444-.243,7.651,7.651,0,0,0,.861-.84,6.657,6.657,0,0,0,.422-.54c.094-.137.183-.282.331-.515a2.332,2.332,0,0,0-.339.024c-.48.124-.967.221-1.437.387a55.011,55.011,0,0,0-5.253,2.065,10.913,10.913,0,0,1-1.2.487,23.281,23.281,0,0,1-5.185,1.144c-.68.063-1.36.137-2.038.212a26.5,26.5,0,0,1-4.454.121c-1.13-.067-2.255-.254-3.381-.386-.1-.011-.2-.01-.293-.016a3.685,3.685,0,0,0,.987.364,19.925,19.925,0,0,0,4.831.655A22.552,22.552,0,0,0,32.927,43.806Zm-9.049-1.4c.264.047.525.107.788.138.978.113,1.956.257,2.936.312a26.265,26.265,0,0,0,4.619-.194,37.4,37.4,0,0,0,4.711-.7,21.987,21.987,0,0,0,3.514-1.148c1.077-.472,2.173-.89,3.268-1.3a19.923,19.923,0,0,1,3.728-1.139.507.507,0,0,0,.139-.066,4.123,4.123,0,0,0,.217-2.833l-.352.25c-.445.319-.888.648-1.339.958q-1,.686-2,1.353c-.311.2-.63.4-.954.57-1.638.869-3.295,1.682-4.982,2.408a14.682,14.682,0,0,1-2.856.862c-.78.161-1.566.276-2.349.41-.352.06-.7.128-1.057.16a38,38,0,0,1-4.293.176c-.464-.011-.927-.034-1.389-.063-.341-.022-.68-.062-1.021-.091-.367-.031-.734-.061-1.1-.085h-.033A1.611,1.611,0,0,0,23.879,42.406Zm-7.506-.8a.035.035,0,0,1,.022.006c.4,0,.8,0,1.2.017.859.024,1.718.058,2.575.122.38.029.753.167,1.133.206,1.183.117,2.366.211,3.55.311.231.02.464,0,.695.023a21.386,21.386,0,0,0,2.289.143,32.915,32.915,0,0,0,4.414-.252c1.071-.145,2.141-.311,3.2-.537a18.8,18.8,0,0,0,2.306-.674c.575-.2,1.129-.494,1.692-.75a31.71,31.71,0,0,0,5.739-3.146c.116-.085.243-.149.362-.231q.983-.668,1.963-1.341c.116-.082.22-.184.341-.286-.03-.388-.056-.749-.085-1.111a.282.282,0,0,0-.1-.219c-.211.221-.424.437-.643.646a16.762,16.762,0,0,1-1.945,1.6c-.007.006-.016.011-.022.016q-.548.383-1.119.715a.319.319,0,0,1-.028.021c-.371.248-.743.491-1.119.725-1.75,1.086-3.562,2.008-5.378,2.913a8.863,8.863,0,0,1-1.632.639,26.356,26.356,0,0,1-7.914.931c-1.526-.058-3.053-.117-4.576-.208-1.293-.076-2.584-.2-3.875-.3-.313-.025-.627-.037-.94-.047-.912-.028-1.826-.049-2.739-.077a4.727,4.727,0,0,0-1.263.084c-.246.058-.491.112-.736.167a11.9,11.9,0,0,1,1.813-.138Q15.964,41.582,16.373,41.609Zm-6.512.781c.38-.022.445-.026.586-.187.03-.034.062-.075.1-.124Zm4.12-.4a.2.2,0,0,0,.218-.021l-.032-.006Zm.227-.033v.008a2.479,2.479,0,0,0,.4-.023c.1-.021.2-.046.3-.07C14.675,41.891,14.441,41.92,14.208,41.952Zm-.792-.024.092-.006q.471-.081.942-.142C14.1,41.813,13.759,41.864,13.416,41.927Zm33.762-9.214c-1.107.751-2.216,1.5-3.368,2.155-.248.139-.49.292-.732.445-1.493.933-2.978,1.884-4.479,2.8-1.074.653-2.162,1.274-3.256,1.873a11.321,11.321,0,0,1-2.888,1.086c-.951.221-1.907.412-2.86.619-.169.038-.337.081-.506.122a.258.258,0,0,0,.206.081,36.417,36.417,0,0,0,4.569-.433,11.7,11.7,0,0,0,3.448-1.033,63.263,63.263,0,0,0,6.4-3.561,1.362,1.362,0,0,1,.309-.133l.079-.049a.361.361,0,0,1,.311-.205l.055-.036a.364.364,0,0,1,.285-.193l.105-.076a.585.585,0,0,1,.31-.225l.151-.112a.144.144,0,0,1,.014-.019q.8-.709,1.607-1.409a.3.3,0,0,1,.092-.049c.208-.2.413-.413.613-.629l.043-.137c-.087-.343-.172-.672-.262-1.031C47.32,32.625,47.247,32.665,47.178,32.713Zm-.258-1.265q-.832.424-1.659.853a9.035,9.035,0,0,0-.934.509c-1.323.9-2.647,1.792-3.953,2.722a36.593,36.593,0,0,1-6.068,3.7,19.728,19.728,0,0,1-6.048,1.673c-.49.051-.981.084-1.471.129-.693.062-1.387.14-2.082.189-.517.037-1.036.031-1.554.058a6.67,6.67,0,0,0-1.445.167c.231.036.462.046.691.06q2.106.139,4.211.276a1.247,1.247,0,0,0,.246-.008c.814-.105,1.63-.183,2.439-.327.972-.173,1.937-.407,2.905-.6a11.619,11.619,0,0,0,3.245-1.186c.9-.485,1.795-.979,2.673-1.514,1.562-.951,3.109-1.934,4.665-2.9.375-.234.755-.461,1.131-.7q1.509-.945,3.017-1.9c.155-.1.3-.22.446-.328-.023-.351-.044-.661-.07-1.049C47.143,31.344,47.03,31.391,46.92,31.448ZM10.836,41.705a.274.274,0,0,0,.3-.075.647.647,0,0,0,.105-.194Zm27.149-6.082a10.038,10.038,0,0,0-1.409.711.331.331,0,0,1-.106.066l-.236.152a.756.756,0,0,1-.248.17c-.088.062-.176.126-.264.192a1.025,1.025,0,0,1-.1.088c-.082.063-.163.124-.246.184l-.1.082s-.009,0-.014,0a20.137,20.137,0,0,1-2.754,1.609,4.378,4.378,0,0,1-.706.248q-.714.22-1.43.428c-.279.081-.558.158-.839.225-.322.076-.643.151-.968.208q-1.639.288-3.281.557c-.595.1-1.191.193-1.788.257-.8.085-1.606.136-2.408.205-.123.01-.245.032-.367.044-.436.04-.87.076-1.306.113-.081.007-.163.011-.245.017l-.222.022a.816.816,0,0,0,.366.076c.683-.011,1.364-.012,2.047-.047q1.8-.092,3.6-.221c.625-.045,1.251-.13,1.877-.184a25.86,25.86,0,0,0,3.817-.548,19.811,19.811,0,0,0,5.536-2.257c1.322-.787,2.6-1.692,3.886-2.561.823-.554,1.636-1.133,2.447-1.715a22.4,22.4,0,0,1,3.713-2.2c.368-.169.723-.385,1.1-.591.009-.151.019-.29.027-.421-.063-.019-.09-.037-.115-.033-.108.017-.217.036-.323.06a11.48,11.48,0,0,0-2.276.808c-1.24.575-2.424,1.3-3.622,1.981-1.58.9-3.152,1.833-4.725,2.757a26.069,26.069,0,0,1-4.692,2.338c-1.116.381-2.236.759-3.367,1.066a19.969,19.969,0,0,1-2.585.509,41.042,41.042,0,0,1-5.189.342,28.627,28.627,0,0,0-3.189.18,6.984,6.984,0,0,0-1.391.288,1.293,1.293,0,0,0,.324.037h.278a5.685,5.685,0,0,1,.581.017,16.275,16.275,0,0,0,3.72-.078c.244-.032.49-.032.735-.054.843-.07,1.689-.117,2.529-.222.978-.124,1.952-.282,2.923-.457s1.965-.4,2.947-.6c.161-.033.316-.1.475-.149.424-.125.851-.244,1.273-.374a4.35,4.35,0,0,0,.787-.265,25.052,25.052,0,0,0,3-1.724,2.553,2.553,0,0,1,.251-.152c.081-.062.162-.122.243-.182a.744.744,0,0,1,.219-.154c.088-.062.178-.121.268-.179a.383.383,0,0,1,.076-.049,9.147,9.147,0,0,1,1.452-.746.044.044,0,0,1,.016,0C38.031,35.494,38.043,35.6,37.985,35.623ZM14.473,40.791c.126.049.257.092.368-.012ZM25.217,2.148c0,.91-.015,1.821.01,2.73.041,1.455.129,2.909.158,4.364.019.959-.026,1.919-.047,2.878a41.772,41.772,0,0,1-.275,4.554c-.053.409-.074.823-.123,1.233-.09.753-.152,1.517-.293,2.256-.327,1.709-.68,3.41-1.047,5.108a16.541,16.541,0,0,1-1.144,3.553c-.715,1.525-1.4,3.071-2.18,4.55a12.222,12.222,0,0,1-1.9,2.768,21.814,21.814,0,0,1-2.953,2.664c-.47.339-.949.656-1.426.979a2.3,2.3,0,0,0-.762.788c.217-.127.391-.218.557-.324.469-.306.922-.654,1.4-.922a12.937,12.937,0,0,0,2.37-1.761,10.23,10.23,0,0,0,.866-.878,8.644,8.644,0,0,0,.706-.928c.808-1.23,1.6-2.479,2.388-3.725A24.9,24.9,0,0,0,23.141,28.7a1.94,1.94,0,0,0,.087-.225c.35-1.076.721-2.139,1.008-3.248a32.94,32.94,0,0,0,.926-4.423,4.407,4.407,0,0,1,.1-.479,11.446,11.446,0,0,0,.319-1.793c.032-.495.109-.984.175-1.474.062-.474.146-.944.2-1.418q.174-1.527.323-3.056c.1-1,.175-2.007.257-3.012.042-.526.056-1.058.118-1.582a24.19,24.19,0,0,1,1.351-5.607c.047-.126.074-.266.126-.455a7.182,7.182,0,0,1-2.864-.007A1.093,1.093,0,0,0,25.217,2.148ZM39.011,30.973a39.784,39.784,0,0,1-5.893,3.991,39.372,39.372,0,0,1-8.672,3.557c-.744.208-1.5.356-2.249.536a30.972,30.972,0,0,1-3.117.558c-.989.135-1.974.323-2.959.494a1.132,1.132,0,0,0-.58.247c.478-.037.95-.108,1.423-.174.433-.058.868-.115,1.3-.165.828-.095,1.66-.158,2.485-.282.786-.118,1.562-.306,2.344-.449a38.607,38.607,0,0,0,5.675-1.507,27.765,27.765,0,0,0,4.248-1.8c1.184-.643,2.358-1.312,3.5-2.051.783-.506,1.57-1,2.352-1.51.542-.352,1.081-.708,1.615-1.076.485-.335.983-.653,1.442-1.039A62.644,62.644,0,0,0,46.86,25.87c.069-.072.131-.157.184-.221a.553.553,0,0,0-.014-.081c-.033-.073-.065-.145-.1-.214a2.431,2.431,0,0,1-.212-1.895c.064-.236.126-.472.189-.707-.166.252-.333.5-.506.749q-.625.891-1.3,1.725a.529.529,0,0,1-.048.059q-.3.366-.607.72A28.308,28.308,0,0,1,42.427,28.1c-.031.028-.067,0-.076-.03C41.269,29.087,40.146,30.04,39.011,30.973Zm7.622-4.7c-.695.67-1.382,1.352-2.09,2-.675.62-1.363,1.222-2.065,1.8-.588.482-1.2.927-1.809,1.362-.659.469-1.332.909-2,1.357q-.737.491-1.479.966c-.458.294-.923.576-1.384.864a32.036,32.036,0,0,1-4.75,2.559,37.088,37.088,0,0,1-5.17,1.723q-1.824.454-3.659.848c-.7.149-1.4.246-2.164.378a1.376,1.376,0,0,0,.221.041c.833-.037,1.665-.066,2.5-.118a33.289,33.289,0,0,0,3.831-.422A31.856,31.856,0,0,0,30.8,38.46,20.413,20.413,0,0,0,34.566,36.8q2.228-1.264,4.448-2.539c1.372-.785,2.737-1.585,4.115-2.35A13.9,13.9,0,0,1,47.2,30.284a1.832,1.832,0,0,0,.239-.085c.095-.46.188-.906.279-1.355.029-.145.063-.289.077-.437.032-.361.079-.724.078-1.085a1.951,1.951,0,0,0-.775-1.5C46.949,25.966,46.793,26.123,46.633,26.276ZM14.916,39.923c-.015.01-.019.05-.038.109.144-.03.277-.05.4-.087a1.749,1.749,0,0,0,.349-.134c.41-.219.819-.438,1.223-.673a3.585,3.585,0,0,0,.4-.31A11.156,11.156,0,0,0,14.916,39.923Zm28.07-16.5q-.4.514-.828,1a31.375,31.375,0,0,1-4.587,4.265,27.484,27.484,0,0,1-2.543,1.7c-1.426.868-2.861,1.715-4.312,2.524-1.288.717-2.608,1.353-3.9,2.053A47.451,47.451,0,0,1,20.9,37.728c-1.3.486-2.579,1.072-3.866,1.619a4.265,4.265,0,0,0-.431.242.737.737,0,0,0,.227,0c.77-.211,1.552-.381,2.306-.656,1.043-.38,2.077-.8,3.094-1.277,1.541-.718,3.112-1.319,4.683-1.922a20.519,20.519,0,0,0,4.33-2.052c.715-.482,1.445-.926,2.169-1.386.028-.019.056-.036.085-.054a.043.043,0,0,1,.019-.037c.868-.63,1.729-1.275,2.6-1.89.056-.038.1.068.045.108-.493.365-.99.721-1.49,1.075a.04.04,0,0,1-.009.008l-.094.077c-.182.138-.364.274-.545.411l-.012-.022c0,.007.008.014.012.022-.124.1-.247.206-.373.3a33.417,33.417,0,0,1-2.94,1.964,9.676,9.676,0,0,1-1.573.835c-1.465.581-2.933,1.149-4.4,1.74-1.294.523-2.582,1.068-3.872,1.6a.223.223,0,0,0-.058.045,4.043,4.043,0,0,0,.51-.069c.508-.127,1.01-.285,1.519-.4,1.193-.28,2.353-.726,3.522-1.114a13.858,13.858,0,0,0,1.895-.8c1.332-.68,2.673-1.348,3.967-2.126a32.52,32.52,0,0,0,3.91-2.806,33.831,33.831,0,0,0,3.4-3.028c1.073-1.152,2.151-2.3,3.2-3.481.85-.958,1.66-1.966,2.493-2.947a2.934,2.934,0,0,1,.3-.283l.065-.074a.489.489,0,0,1,.247-.288c.022-.027.045-.054.067-.08a.5.5,0,0,1,.218-.258q.47-.56.927-1.139c0-.01.011-.019.015-.029l0,.005.157-.2c-.029-.2-.06-.394-.093-.591a4.447,4.447,0,0,0-.171-.562c-.063.087-.113.16-.158.226-.158.247-.317.493-.481.734l-.113.167a2.122,2.122,0,0,1-.128.186,45.234,45.234,0,0,1-2.827,3.7c-.031.036-.07.006-.076-.034C43.109,23.273,43.046,23.347,42.986,23.425Zm1.989-1.213c-.463.581-.925,1.163-1.406,1.721-.076.089-.152.176-.229.265-.824.949-1.666,1.878-2.506,2.807A30.888,30.888,0,0,1,37.4,30.376c-.7.571-1.4,1.156-2.115,1.7a31.717,31.717,0,0,1-4.189,2.812c-.562.3-1.118.617-1.681.913-.438.229-.883.443-1.33.646s-.9.388-1.354.57c-.35.14-.7.272-1.057.393-.511.177-1.026.34-1.54.509-.223.074-.447.154-.672.214-1.534.4-3.069.795-4.6,1.2a2.836,2.836,0,0,0-.276.1,1.233,1.233,0,0,0,.139.027,34.737,34.737,0,0,0,5.133-.981,37.7,37.7,0,0,0,8.144-3.141,38.482,38.482,0,0,0,5.6-3.507,64.567,64.567,0,0,0,5.48-4.622,4.682,4.682,0,0,1,.373-.293.062.062,0,0,0,.012-.01c.027-.028.055-.056.081-.085l.014-.014a1.058,1.058,0,0,1,.411-.447l.205-.229a.723.723,0,0,1,.207-.236,35.909,35.909,0,0,0,2.6-3.4c.034-.118.068-.234.105-.35a5.16,5.16,0,0,0,.222-1.205,6.76,6.76,0,0,0-.073-1.468C46.514,20.426,45.762,21.343,44.975,22.212ZM17.963,33.223c-.384.681-.791,1.345-1.174,2.026A19.523,19.523,0,0,1,14.2,38.8a1.972,1.972,0,0,0-.184.282,13.783,13.783,0,0,0,1.567-1.536q.356-.41.688-.858a23.681,23.681,0,0,0,2.416-4.358,16.039,16.039,0,0,0,.9-2.445q.418-1.557.79-3.13c.238-1.019.47-2.04.659-3.073a24.6,24.6,0,0,0,.419-5.568c-.059-1.239-.052-2.483-.212-3.711a52.471,52.471,0,0,1-.451-8.8A15.247,15.247,0,0,1,21.577.963a2.549,2.549,0,0,0,.067-.338,4.615,4.615,0,0,0-1.3.261l-.055.078q-.2,1.148-.369,2.3c-.029.233-.058.464-.09.7-.006.043-.014.087-.02.131-.028.232-.059.466-.083.7a.048.048,0,0,1-.023.037,7.884,7.884,0,0,0-.089,1.2c.011.992,0,1.984,0,2.976,0,.562-.02,1.127.016,1.687.058.89.144,1.778.239,2.664.068.639.168,1.273.26,1.91.21,1.452.284,2.924.374,4.389.072,1.166,0,2.347-.032,3.521a10.827,10.827,0,0,1-.113,1.231c-.08.571-.182,1.138-.277,1.705-.041.243-.073.49-.134.726A24.515,24.515,0,0,1,18.8,30.29a43.992,43.992,0,0,1-1.938,4.256,3.39,3.39,0,0,0-.17.418,1.7,1.7,0,0,0,.153-.2c.369-.6.731-1.2,1.1-1.793.084-.135.188-.253.284-.379A5.686,5.686,0,0,1,17.963,33.223Zm-2.377,4.905c-.205.163-.4.352-.59.538-.11.107-.209.234-.311.353a1.2,1.2,0,0,0,.243-.12c.664-.519,1.347-1.012,1.984-1.579.581-.517,1.111-1.122,1.67-1.678.09-.091.177-.184.262-.282a7.449,7.449,0,0,0,.959-1.443c.766-1.45,1.465-2.948,2.174-4.439a21.909,21.909,0,0,0,1.6-4.82c.169-.785.34-1.569.491-2.359.189-.983.382-1.967.532-2.958s.255-2,.363-3c.071-.656.13-1.317.161-1.976.046-.976.061-1.952.092-2.927.051-1.573.05-3.145-.038-4.716-.076-1.37-.171-2.739-.118-4.115.009-.23.006-.46.009-.7a1.665,1.665,0,0,0-.271-.149,5.978,5.978,0,0,1-1.256-.592,6.142,6.142,0,0,0-.675-.358,1.624,1.624,0,0,0-.888-.168c-.05.105-.1.2-.14.3a11.639,11.639,0,0,0-.58,2.168,22.9,22.9,0,0,0-.27,3.556,55.715,55.715,0,0,0,.343,6.736c.077.723.176,1.444.2,2.17a38.361,38.361,0,0,1-.022,5.505c-.084.77-.14,1.55-.278,2.306q-.35,1.914-.795,3.8c-.264,1.13-.545,2.258-.887,3.356a25.038,25.038,0,0,1-2.107,4.645c-.088.158-.17.318-.254.478.093-.108.193-.208.276-.324a25.731,25.731,0,0,0,2.618-4.493,27.193,27.193,0,0,0,1.607-4.124c.294-1.134.655-2.24.862-3.414a32.893,32.893,0,0,0,.517-6.061c-.013-1.143-.089-2.283-.076-3.424.02-1.589,0-3.176.085-4.764.071-1.288.166-2.574.292-3.855.093-.937.238-1.866.365-2.8.027-.2.069-.4.105-.6a.553.553,0,0,1,.01.25c-.311,2.239-.5,4.493-.619,6.757-.085,1.589-.046,3.177-.057,4.764-.013,1.752.133,3.5.056,5.26a21.983,21.983,0,0,1-.159,2.323q-.112.733-.21,1.468a19.674,19.674,0,0,1-.631,2.978,39.134,39.134,0,0,1-1.276,3.812,30.129,30.129,0,0,1-3.608,6.481,2.216,2.216,0,0,0-.154.282c.237-.245.484-.474.707-.735.362-.424.712-.868,1.065-1.305.124-.154.247-.31.365-.471A17.2,17.2,0,0,0,20.945,30.7c.343-.753.654-1.528.981-2.291a3.154,3.154,0,0,1,.162-.291,6.948,6.948,0,0,1-.369,1.211c-.434,1.069-.889,2.121-1.421,3.129a10.865,10.865,0,0,1-1.427,2.1c-.237.273-.461.563-.692.844-.154.187-.3.382-.463.562-.537.6-1.067,1.219-1.65,1.755-.014.02-.029.038-.042.059a.061.061,0,0,1-.055.029C15.845,37.915,15.718,38.024,15.586,38.128ZM16.893,32.5a21.718,21.718,0,0,1-1.359,3c-.309.567-.617,1.134-.942,1.686-.246.416-.519.809-.779,1.212-.087.135-.175.272-.264.408a1.427,1.427,0,0,0,.42-.345,5,5,0,0,0,.353-.483c.475-.706.95-1.416,1.37-2.168a23.785,23.785,0,0,0,2.162-5,39.271,39.271,0,0,0,.923-4.424,31.585,31.585,0,0,0,.356-3.149,29.248,29.248,0,0,0,.094-3.074c-.076-1.885-.148-3.772-.283-5.653-.153-2.129-.257-4.26-.25-6.4,0-1.175.037-2.351.068-3.526a24.9,24.9,0,0,1,.191-2.92c.017-.124.012-.254.019-.408l-1.036.013c-.1.612-.235,1.2-.3,1.805-.127,1.215-.224,2.435-.318,3.657a15.309,15.309,0,0,0-.059,1.587q.034,1.315.133,2.627a55.825,55.825,0,0,0,.778,5.981,24.888,24.888,0,0,1,.442,5.616c-.012.266-.018.531-.04.795-.033.394-.054.794-.122,1.181-.153.874-.325,1.745-.5,2.614-.109.548-.221,1.094-.357,1.631-.128.506-.309.993-.431,1.5a16.736,16.736,0,0,1-1.355,3.551c-.319.635-.639,1.273-.929,1.929a16.341,16.341,0,0,1-1.027,1.972c-.151.246-.289.5-.432.753a3.394,3.394,0,0,0,.78-1.03c.224-.375.418-.777.638-1.155A28.742,28.742,0,0,0,16.9,31.941c.047-.125.114-.241.209-.438A2.453,2.453,0,0,1,16.893,32.5Zm2.018,5.125-.362.207c-.034.022-.068.045-.1.066a.038.038,0,0,1-.021.005c-.307.177-.614.353-.922.529-.007,0-.011.021-.014.033a2.6,2.6,0,0,0,1.432-.824l.243-.167Zm-6.052.764a2.367,2.367,0,0,0,.319-1.01A2.993,2.993,0,0,0,12.859,38.385ZM41.132,23.039l-.167.193a56.459,56.459,0,0,1-5.274,5.212c-.385.338-.8.634-1.2.951s-.827.64-1.232.976a12.974,12.974,0,0,1-1.8,1.271q-1.624.944-3.239,1.9c-1.249.743-2.48,1.526-3.778,2.145q-.991.471-1.994.893c-1.146.481-2.275,1.02-3.41,1.542a2.432,2.432,0,0,0-.365.25c.085-.025.172-.048.254-.081.491-.2.978-.421,1.474-.6a42.328,42.328,0,0,0,4.889-2.145q2.881-1.49,5.76-2.992.435-.225.856-.48,2.014-1.223,4.023-2.457a28.207,28.207,0,0,0,5.874-5.03c.72-.786,1.382-1.648,2.075-2.471a3.121,3.121,0,0,1,.313-.285c.005-.032,0-.07.019-.089.365-.462.732-.918,1.1-1.374a.071.071,0,0,1,.038-.018c.014-.018.027-.036.04-.055a.273.273,0,0,1,.144-.2l.062-.085a.266.266,0,0,1,.124-.172l.145-.2a2.256,2.256,0,0,1,.445-.628c.056-.082.113-.162.169-.243.122-.235.245-.472.379-.728a4.239,4.239,0,0,0-.952-1.183q-.436.651-.886,1.289c0,.005-.007.012-.01.018v0s0,0-.007.005c-.7,1-1.436,1.972-2.2,2.9a.033.033,0,0,1-.055,0C42.208,21.731,41.681,22.4,41.132,23.039ZM16.245,35.622q-.509.745-1.005,1.5c-.073.11-.131.234-.194.351a.444.444,0,0,0,.114-.078l.008-.011a13.763,13.763,0,0,0,1.3-2A2.051,2.051,0,0,0,16.245,35.622ZM43.073,15.767q-2.385,2.974-4.776,5.939c-.842,1.04-1.692,2.07-2.562,3.075-.722.833-1.476,1.625-2.219,2.431a19.512,19.512,0,0,1-2.525,2.368c-1.121.853-2.27,1.656-3.406,2.478q-1.179.855-2.357,1.7c-.282.2-.559.416-.848.6-1.291.83-2.584,1.652-3.876,2.479-.2.131-.409.266-.608.41a.935.935,0,0,0-.148.15l-.059.068a4.108,4.108,0,0,0,.456-.175,36.419,36.419,0,0,0,3.989-2.414c1.615-1.108,3.253-2.163,4.928-3.124a40.375,40.375,0,0,0,4.65-3.224c.436-.337.848-.723,1.263-1.1,1.674-1.516,3.23-3.2,4.814-4.853A47.863,47.863,0,0,0,44.6,16.568a2.891,2.891,0,0,1,.228-.252c0-.1.008-.192.011-.275-.041-.049-.067-.088-.1-.118a1.977,1.977,0,0,1-.669-1.137c-.011-.056-.068-.1-.1-.144l0,0a1.524,1.524,0,0,0,.144-.7c.041-.407.077-.815.084-1.224a1.465,1.465,0,0,0-.382-1.134c-.07.058-.131.11-.191.158l-.156.218a.316.316,0,0,1-.068.1l-.137.189a.29.29,0,0,1-.05.068c-.053.074-.107.147-.161.22a.263.263,0,0,1-.019.025c-.1.139-.2.275-.308.412a.163.163,0,0,1-.016.024c-.52.679-1.047,1.35-1.57,2.027-.55.713-1.1,1.423-1.647,2.144-.58.771-1.149,1.552-1.719,2.336-.6.832-1.2,1.675-1.806,2.5-.408.558-.81,1.126-1.248,1.644-.95,1.119-1.9,2.235-2.891,3.306A25.272,25.272,0,0,1,28.367,30.2c-.209.155-.4.345-.6.516q-1.912,1.624-3.822,3.253c-.5.425-.981.867-1.471,1.3a1.321,1.321,0,0,0,.209-.085,22.6,22.6,0,0,0,3.139-2.13,2.975,2.975,0,0,1,.247-.18c1-.682,1.993-1.369,2.993-2.047a21.432,21.432,0,0,0,3.5-2.842c1.057-1.1,2.082-2.237,3.118-3.364.223-.243.442-.493.653-.752,1.2-1.474,2.388-2.953,3.586-4.427q1.508-1.854,3.028-3.7a3.816,3.816,0,0,1,.347-.336A3.07,3.07,0,0,1,43.073,15.767ZM6.5,6.632c0,.124-.01.208,0,.288a16.831,16.831,0,0,0,.748,3.654c.278.793.544,1.591.826,2.382.229.637.461,1.274.714,1.9.665,1.634,1.348,3.256,2.015,4.891a40.313,40.313,0,0,1,2.1,6.463,13.2,13.2,0,0,1,.293,1.7c.082.888.12,1.783.146,2.675a21.842,21.842,0,0,1-.014,2.185c-.081,1.121-.221,2.236-.338,3.353-.046.442-.1.882-.148,1.324l.068.026a.618.618,0,0,0,.059-.117,28.342,28.342,0,0,0,.729-3.819,1.829,1.829,0,0,0,.012-.2,33.521,33.521,0,0,0-.367-5.981,18.718,18.718,0,0,0-.723-3.358c-.147-.41-.3-.817-.433-1.236-.391-1.256-.842-2.479-1.327-3.686-.573-1.429-1.148-2.857-1.622-4.343-.331-1.033-.708-2.045-1.057-3.07q-.555-1.631-1.1-3.267a6.979,6.979,0,0,1-.292-1.545c-.005-.061,0-.123,0-.184a1.624,1.624,0,0,1,.158.5c.07.337.119.684.22,1.006.3.958.621,1.91.944,2.858q.725,2.137,1.467,4.263c.229.656.445,1.322.714,1.953.951,2.222,1.723,4.542,2.527,6.845a9.5,9.5,0,0,1,.441,1.807c.025.178.058.356.093.534a25.859,25.859,0,0,1,.5,4.471c.012.456.042.913.065,1.369a13.149,13.149,0,0,0,.148-1.632,26.076,26.076,0,0,0-.726-6.773,34.1,34.1,0,0,0-2.371-6.589c-.466-.992-.92-2-1.32-3.03A40.585,40.585,0,0,1,7.369,6.121a.855.855,0,0,0-.155-.485Q6.838,6.162,6.5,6.632ZM26.234,25.791a33.193,33.193,0,0,1-1.378,3.263c-.269.517-.534,1.037-.794,1.563a8.142,8.142,0,0,1-.77,1.277,10.462,10.462,0,0,0-.6.878,30.078,30.078,0,0,1-1.86,2.5,1.985,1.985,0,0,1-.245.261l-1.726,1.589a1.754,1.754,0,0,0-.139.154.622.622,0,0,0,.18-.052,4.8,4.8,0,0,0,1.2-.94l.482-.555.066-.075c.382-.44.763-.88,1.126-1.343a52.2,52.2,0,0,0,3.632-5.248A19.206,19.206,0,0,0,26.92,26.01a21.126,21.126,0,0,0,1.1-4.41c.247-1.595.362-3.216.454-4.837.028-.51.068-1.022.094-1.535.039-.76.042-1.524.109-2.281.075-.855.2-1.7.306-2.555a18.051,18.051,0,0,1,.734-3.2,24.059,24.059,0,0,1,1.547-4.049c.2-.375.371-.772.554-1.16.032-.07.059-.145.087-.213a.889.889,0,0,0-.891-.217c-.1.178-.23.373-.334.586-.437.9-.883,1.791-1.3,2.706A18.359,18.359,0,0,0,28.1,8.655a37.517,37.517,0,0,0-.6,3.8c-.034.328-.065.658-.082.989-.07,1.4-.131,2.81-.329,4.2-.1.734-.194,1.472-.3,2.207-.046.325-.1.652-.175.97-.258,1.116-.506,2.236-.793,3.34a30.566,30.566,0,0,1-2.02,5.584A36.69,36.69,0,0,1,21.5,33.79a16.689,16.689,0,0,1-1.269,1.753,3.507,3.507,0,0,0-.239.353c.113-.1.229-.2.337-.308a19.514,19.514,0,0,0,1.884-2.407c.4-.562.778-1.15,1.159-1.732a6.454,6.454,0,0,0,.38-.645c.714-1.426,1.465-2.827,2.054-4.341.094-.238.193-.474.3-.7a2.113,2.113,0,0,1,.193-.288A1.784,1.784,0,0,1,26.234,25.791Zm2.142-23.91c-.077.185-.155.357-.22.536a23.961,23.961,0,0,0-1.1,4.153,17.89,17.89,0,0,0-.289,2.307c-.059,1.359-.208,2.7-.337,4.051-.094.986-.206,1.971-.314,2.957-.031.278-.076.554-.112.833-.087.7-.172,1.407-.262,2.11a7.346,7.346,0,0,1-.114.731q-.255,1.1-.416,2.226c-.1.667-.238,1.326-.392,1.978q-.289,1.215-.633,2.412c-.185.639-.408,1.263-.62,1.89a21.949,21.949,0,0,1-1.767,3.91c-.227.394-.454.788-.7,1.166a43.267,43.267,0,0,1-2.524,3.715,2.1,2.1,0,0,0-.156.252,17.4,17.4,0,0,0,1.369-1.4,15.891,15.891,0,0,0,1.4-1.859c.235-.365.463-.736.7-1.1A29.055,29.055,0,0,0,25.2,25.529a44.938,44.938,0,0,0,1.329-5.474,43.017,43.017,0,0,0,.6-5.311,31.463,31.463,0,0,1,.292-3.556c.067-.406.148-.809.207-1.217a18.949,18.949,0,0,1,1.105-4.146c.539-1.379,1.2-2.67,1.854-3.974.046-.093.081-.192.147-.346A10.772,10.772,0,0,0,28.376,1.881ZM13.525,36.929c.059-.226.117-.45.176-.676A.932.932,0,0,0,13.525,36.929Zm.113-34.9c0,.229,0,.442.008.653.046.875.115,1.748.14,2.624a24.284,24.284,0,0,0,.832,5.149c.22.888.471,1.765.7,2.649.175.678.328,1.367.515,2.039a13.154,13.154,0,0,1,.478,2.511c.027.344.095.684.133,1.03.168,1.49.409,2.968.448,4.48a18.433,18.433,0,0,1-.677,5.909c-.052.171-.108.341-.146.517a19.8,19.8,0,0,1-1.253,3.873,21.8,21.8,0,0,0-1.044,3.451c.069-.14.14-.279.206-.421.211-.464.4-.942.631-1.392.687-1.341,1.157-2.812,1.726-4.224a2.567,2.567,0,0,0,.1-.326,33.121,33.121,0,0,0,.662-3.431,40.387,40.387,0,0,0,.438-4.932,22.443,22.443,0,0,0-.188-4.253c-.184-1.221-.375-2.443-.614-3.648-.212-1.078-.511-2.129-.743-3.2-.363-1.681-.715-3.366-1.043-5.058a15.566,15.566,0,0,1-.239-1.911c-.054-.824-.056-1.652-.083-2.479,0-.111-.023-.22-.04-.363A4.044,4.044,0,0,0,13.638,2.027ZM44.83,16.314a4,4,0,0,1-.248.5,47.662,47.662,0,0,1-3.489,4.567q-.409.471-.832.928c-.938,1.013-1.884,2.017-2.848,2.994a38.572,38.572,0,0,1-4.484,4.081A34.207,34.207,0,0,1,29.7,31.627c-1.1.626-2.181,1.3-3.271,1.948a2.354,2.354,0,0,0-.218.14,41.561,41.561,0,0,1-3.83,2.475,3.567,3.567,0,0,0-.4.3,1.707,1.707,0,0,0,.26-.052,23.81,23.81,0,0,0,4.02-1.951c1.772-1.024,3.534-2.077,5.292-3.139.51-.309,1-.685,1.482-1.049.52-.392,1.03-.808,1.543-1.213.265-.206.537-.4.788-.622.9-.806,1.807-1.6,2.683-2.442a49.764,49.764,0,0,0,4.6-5.068c.292-.369.6-.725.9-1.082a1.269,1.269,0,0,1,.165-.154c.723-.955,1.432-1.927,2.114-2.926-.248-.217-.508-.415-.769-.612ZM32.073,1.948c-.049.083-.109.173-.157.271a30.521,30.521,0,0,0-1.984,4.949A27.831,27.831,0,0,0,28.92,12.38c-.04.394-.064.79-.086,1.186-.041.745-.059,1.49-.119,2.231-.122,1.533-.213,3.068-.368,4.6a35.337,35.337,0,0,1-.692,3.93,14.562,14.562,0,0,1-.845,2.419,11.985,11.985,0,0,1-.743,1.541,53.847,53.847,0,0,1-5.089,7.323,1.8,1.8,0,0,0-.158.256c.268-.216.537-.43.806-.645A15.114,15.114,0,0,0,23.6,33.312a20.169,20.169,0,0,0,2.632-3.933,36.443,36.443,0,0,0,2.441-5.949,20.354,20.354,0,0,0,.858-4.032c.145-1.412.268-2.831.4-4.245.015-.165.022-.331.038-.495.126-1.216.22-2.438.388-3.647.174-1.255.415-2.5.628-3.748.018-.1.039-.194.059-.29.266-1.305.641-2.566,1.022-3.825.1-.337.205-.676.313-1.026-.087-.076-.148-.135-.215-.184a.03.03,0,0,0-.019-.005C32.13,1.933,32.1,1.943,32.073,1.948ZM22.727,34.61c-.368.306-.735.617-1.1.925.393-.307.781-.622,1.163-.952A.144.144,0,0,0,22.727,34.61ZM19.648,1.069c-.143.041-.284.089-.436.138-.065.494-.153.949-.177,1.407-.1,1.8-.173,3.6-.151,5.411.018,1.589.011,3.179.131,4.764.2,2.606.327,5.216.335,7.835a33.4,33.4,0,0,1-.2,3.712,33.131,33.131,0,0,1-.49,3.325c-.135.624-.223,1.263-.363,1.885a20.482,20.482,0,0,1-1.487,4.346c-.187.393-.361.8-.541,1.2.038-.039.081-.074.117-.115a.265.265,0,0,0,.045-.066c.446-.888.9-1.777,1.328-2.678.239-.5.453-1.018.67-1.534.192-.456.382-.915.552-1.383.176-.483.325-.984.493-1.471a9.2,9.2,0,0,0,.43-1.758c.067-.489.172-.97.243-1.459.063-.44.12-.883.146-1.327.036-.627.041-1.256.061-1.885a18.832,18.832,0,0,0-.094-3.022c-.062-.471-.085-.952-.1-1.431a13.055,13.055,0,0,0-.185-1.771c-.061-.339-.123-.68-.156-1.025-.116-1.232-.222-2.466-.329-3.7-.009-.1,0-.2,0-.3L19.5,6.939a13.42,13.42,0,0,1,.053-1.784c.165-1.174.316-2.352.481-3.526a2.613,2.613,0,0,1,.122-.434c0-.024.009-.05.014-.075L20.1.953C19.939.994,19.792,1.028,19.648,1.069ZM10.575,4.942c.032.125.055.235.089.338.967,2.92,1.912,5.852,2.911,8.756a41.387,41.387,0,0,1,1.728,7.34c.157,1.047.142,2.111.2,3.168a14.276,14.276,0,0,1-.062,2.329c-.06.575-.109,1.152-.175,1.726q-.088.787-.205,1.57c-.069.455-.158.907-.241,1.36-.03.161-.06.323-.1.479-.149.534-.305,1.062-.454,1.6-.093.335-.174.676-.26,1.015l.054.025c.04-.084.085-.164.119-.25a4.729,4.729,0,0,0,.156-.458q.572-2.179.952-4.418a46.345,46.345,0,0,0,.7-7.1,15.019,15.019,0,0,0-.555-4.546c-.284-.949-.566-1.9-.885-2.832-.3-.872-.637-1.724-.973-2.574A32.065,32.065,0,0,1,11.43,4.934a1.126,1.126,0,0,0-.071-.21ZM1.536,10.089c.144.722.273,1.416.424,2.1a12.857,12.857,0,0,0,.915,2.6,20.427,20.427,0,0,0,2.838,4.719c1.247,1.486,2.47,3,3.707,4.5a8.974,8.974,0,0,1,1.365,2.221c.093.22.184.445.293.653a8.507,8.507,0,0,1,.811,2.482c.078.437.16.872.229,1.311.2,1.266.389,2.535.581,3.8a.256.256,0,0,0,.067-.18c-.023-.446-.018-.9-.084-1.335-.152-1.009-.333-2.012-.513-3.015a15.193,15.193,0,0,0-.59-2.219,18.076,18.076,0,0,0-1.472-3.372c-1.05-1.777-2.075-3.576-3.133-5.344A36.538,36.538,0,0,1,4.5,14.04c-.55-1.351-1.066-2.722-1.6-4.082-.063-.16-.135-.315-.205-.482A3,3,0,0,0,1.536,10.089Zm7.1-5.606c-.008.095-.02.175-.019.257a13.528,13.528,0,0,0,.2,2.268,21.308,21.308,0,0,0,1.181,4.226c.651,1.567,1.3,3.138,2.057,4.638a21.622,21.622,0,0,1,.956,2.083,26.45,26.45,0,0,1,1.74,8.979,19.454,19.454,0,0,1-.187,3.165c-.082.554-.182,1.1-.274,1.654-.123.731-.248,1.459-.372,2.189.012.009.023.018.036.026.041-.137.081-.277.126-.414a24.33,24.33,0,0,0,.962-4.713c.089-.738.147-1.48.218-2.22.011-.1.02-.2.024-.3a30.3,30.3,0,0,0-.2-4.706c-.114-1-.33-1.978-.5-2.966a23.748,23.748,0,0,0-.787-3.134C12.7,12.042,11.517,8.6,10.476,5.094a2.01,2.01,0,0,0-.1-.239c-.289-.134-.554-.27-.824-.379a1.4,1.4,0,0,0-.508-.127A.66.66,0,0,0,8.641,4.483ZM4.1,9c.046.223.082.433.133.637.21.839.427,1.677.637,2.516a12.176,12.176,0,0,0,1.173,3c.665,1.192,1.345,2.372,2.021,3.557.085.15.182.291.272.435.583.94,1.174,1.872,1.746,2.819a16.02,16.02,0,0,1,1.493,3.188A29.594,29.594,0,0,1,12.8,30.7c.134,1.022.191,2.055.237,3.094.03-.609.063-1.218.092-1.827a8.413,8.413,0,0,0-.071-1.682c-.061-.406-.1-.817-.181-1.22a16.221,16.221,0,0,0-.365-1.729q-.516-1.7-1.111-3.365c-.325-.912-.709-1.79-1.049-2.693a21.889,21.889,0,0,0-1.237-2.8c-.175-.317-.331-.648-.481-.983-.461-1.033-.929-2.064-1.37-3.11a16.6,16.6,0,0,1-.676-1.861C6.2,11.165,5.774,9.821,5.3,8.5c-.036-.1-.08-.2-.129-.307ZM34.9,15.76c-.867,1.854-1.679,3.749-2.631,5.547-.087.166-.167.34-.244.515a40.941,40.941,0,0,1-2.974,5.458c-.465.714-.926,1.435-1.442,2.092a31.255,31.255,0,0,1-2.8,3.2,4.847,4.847,0,0,0-.319.378c-.021.027-.043.053-.065.078l.085-.047a4.077,4.077,0,0,0,1.037-.864c.4-.4.772-.836,1.158-1.255.589-.64,1.188-1.265,1.766-1.919A27.644,27.644,0,0,0,30.753,25.9c1.053-1.584,2.092-3.181,3.134-4.775,0,0,0-.007.005-.01.3-.468.584-.943.871-1.419.977-1.618,1.919-3.266,2.858-4.915l-.069.041.007.013-.01-.011,0,0a1.624,1.624,0,0,0-.275.069,3.575,3.575,0,0,1-2.164.432C35.037,15.479,34.963,15.617,34.9,15.76ZM11.593,4.5c.012.135.013.267.035.4.107.63.192,1.271.337,1.891a35.924,35.924,0,0,0,1.759,5.5A45.545,45.545,0,0,1,15.6,17.735a16.771,16.771,0,0,1,.539,4.994c-.035,1.074-.1,2.149-.205,3.217-.113,1.133-.264,2.263-.445,3.382-.167,1.021-.4,2.029-.6,3.042-.02.1-.027.2-.04.3a7.561,7.561,0,0,0,.706-1.8c.183-.692.345-1.395.549-2.079a11.337,11.337,0,0,0,.421-2.015c.046-.411.092-.822.132-1.232a20.008,20.008,0,0,0-.059-4.061c-.152-1.46-.344-2.915-.528-4.37a9.854,9.854,0,0,0-.214-1.162c-.472-1.866-.967-3.724-1.427-5.6a23.461,23.461,0,0,1-.742-4.469c-.057-1.139-.106-2.277-.159-3.417,0-.076-.017-.151-.033-.289A14.191,14.191,0,0,0,11.593,4.5Zm4.658,27.83a8,8,0,0,0,.667-1.961A8.237,8.237,0,0,0,16.251,32.331ZM2.918,9.446c.042.138.071.247.111.348.364.946.708,1.905,1.1,2.834C4.66,13.9,5.179,15.18,5.8,16.388c.771,1.5,1.63,2.941,2.462,4.4.749,1.306,1.519,2.593,2.269,3.9a9.325,9.325,0,0,1,.521,1.069A21.5,21.5,0,0,1,12.507,31c.055.4.148.784.225,1.175,0-.154,0-.307-.011-.46a27.905,27.905,0,0,0-.743-4.574,15.642,15.642,0,0,0-1.657-4.412C9.73,21.7,9.107,20.692,8.494,19.678c-.257-.428-.531-.842-.782-1.275-.47-.814-.924-1.641-1.4-2.454a14.539,14.539,0,0,1-1.655-4.081c-.191-.829-.4-1.651-.609-2.475a2.5,2.5,0,0,0-.119-.307ZM42.9,11.111a2.137,2.137,0,0,0-.626.2,4.193,4.193,0,0,0-1.8,1.732,57.9,57.9,0,0,1-3.35,5.323c-.95,1.365-1.937,2.69-2.9,4.041-1.063,1.492-2.2,2.894-3.353,4.28-.362.437-.74.853-1.118,1.27-.308.341-.617.68-.917,1.031a17.882,17.882,0,0,1-2.158,2.2,2.622,2.622,0,0,0-.722.828c.11-.086.221-.168.328-.261.989-.852,1.967-1.723,2.973-2.552a28.424,28.424,0,0,0,2.81-2.807,44.331,44.331,0,0,0,4.54-5.643c.034-.052.072-.1.108-.149,1.923-2.594,3.846-5.186,5.867-7.668l.015-.018c.328-.429.656-.858.98-1.291l.086-.209c-.259-.243-.373-.33-.565-.33A1.17,1.17,0,0,0,42.9,11.111ZM28.963,25.27a33.12,33.12,0,0,1-1.913,3.317q-.886,1.417-1.768,2.837a1.8,1.8,0,0,0-.109.238c.1-.1.212-.183.3-.29.019-.022.038-.046.056-.07q.709-1,1.4-2.014A23.84,23.84,0,0,0,29,25.362a2.222,2.222,0,0,0,.08-.259A.952.952,0,0,0,28.963,25.27ZM7.443,5.433c.013.1.023.215.041.328a41.861,41.861,0,0,0,3.457,11.05,44.539,44.539,0,0,1,1.819,4.444,27.24,27.24,0,0,1,1.253,5.387,28.147,28.147,0,0,1,.216,4.552,19.937,19.937,0,0,0,.277-6.163,27.373,27.373,0,0,0-1.153-5.472,16.411,16.411,0,0,0-1.072-2.731c-.724-1.406-1.353-2.875-2-4.332A24.437,24.437,0,0,1,8.69,7.245a12.876,12.876,0,0,1-.231-2.312c0-.111-.024-.223-.037-.338A2.224,2.224,0,0,0,7.443,5.433ZM.41,13.861a16.37,16.37,0,0,0,.58,3.4,5.135,5.135,0,0,0,.816,1.763,11.05,11.05,0,0,0,2.145,2.288,14.365,14.365,0,0,0,2,1.353A11.991,11.991,0,0,1,9.445,25.74a13.275,13.275,0,0,1,2.106,4c.053.157.125.3.192.451a9.225,9.225,0,0,0-.72-2.439,13.019,13.019,0,0,0-2.531-3.743q-1.539-1.6-3.168-3.068A15.941,15.941,0,0,1,2.479,17.67a9.142,9.142,0,0,1-1.3-3.178c-.18-.9-.342-1.807-.513-2.71a.8.8,0,0,0-.057-.135A8.383,8.383,0,0,0,.41,13.861Zm17.32,7.687c-.053.955-.074,1.913-.166,2.862-.114,1.163-.277,2.319-.442,3.474-.107.752-.254,1.5-.383,2.244a5.947,5.947,0,0,0,.239-.7c.2-.894.4-1.789.569-2.693a11.939,11.939,0,0,0,.249-2.408c-.009-.463.027-.927.023-1.389-.005-.688-.027-1.378-.043-2.066C17.761,21.1,17.743,21.323,17.73,21.548ZM5.521,7.823c-.058.068-.113.14-.193.239.1.288.182.582.289.864.4,1.039.739,2.1,1.036,3.186a16.058,16.058,0,0,0,.954,2.579c.154.33.3.667.448,1,.478,1.08.941,2.168,1.509,3.184a6.281,6.281,0,0,1,.344.733c.3.759.582,1.534.9,2.286.612,1.463,1.105,2.988,1.6,4.514a16.108,16.108,0,0,1,.608,2.521c.022.137.06.27.092.405a10.943,10.943,0,0,0-.234-2.479c-.284-1.192-.571-2.387-.939-3.543-.392-1.233-.857-2.436-1.329-3.629-.651-1.641-1.357-3.249-2-4.89-.429-1.089-.788-2.218-1.2-3.319a15.768,15.768,0,0,1-.976-4.186c-.01-.123-.041-.244-.074-.417C6.053,7.216,5.785,7.519,5.521,7.823Zm31.9-2.578c-.188.326-.377.65-.55.987q-1.251,2.446-2.493,4.9a8.536,8.536,0,0,0-.423,1.017c-.219.625-.419,1.258-.625,1.889-.067.2-.147.394-.2.6-.2.791-.388,1.588-.58,2.381-.258,1.065-.489,2.139-.78,3.189a33.157,33.157,0,0,1-1.417,3.8,11.624,11.624,0,0,1-.64,1.385c-.664,1.152-1.3,2.336-2.05,3.409a4.407,4.407,0,0,0-.258.455,3.014,3.014,0,0,0,.308-.334c.277-.389.55-.782.81-1.187a40.64,40.64,0,0,0,2.337-3.951c.478-.967.942-1.942,1.44-2.89.9-1.721,1.672-3.533,2.515-5.293a2.412,2.412,0,0,0,.1-.3c-.046-.054-.07-.1-.1-.12a1.278,1.278,0,0,1-.386-1.542,2.926,2.926,0,0,1,.542-.985c.249-.282.508-.552.774-.811.617-.6,1.253-1.177,1.859-1.794.093-.094.183-.192.271-.292.218-.252.425-.521.631-.788a1.972,1.972,0,0,0,.363-1.379,4.207,4.207,0,0,0-.153-.87,4.452,4.452,0,0,0-1.083-1.739A2.268,2.268,0,0,0,37.416,5.244ZM16.037.72c-.022.131-.053.271-.067.415-.05.492-.094.986-.137,1.479-.02.23-.034.464-.047.692-.039.644-.06,1.29-.116,1.931a8.592,8.592,0,0,0,.006,1.832,23.65,23.65,0,0,0,.82,4.24c.044.139.073.284.107.428.127.541.253,1.081.382,1.621.144.6.309,1.2.434,1.812a18.518,18.518,0,0,1,.448,2.521c.049.759.114,1.518.122,2.279.012,1.338-.026,2.678-.023,4.018a11.867,11.867,0,0,1-.156,2.27c-.121.628-.248,1.254-.368,1.884-.056.3-.1.6-.148.9a3.26,3.26,0,0,0,.28-.953c.184-.949.337-1.911.558-2.848a15.95,15.95,0,0,0,.344-3.788,21.045,21.045,0,0,0-.3-3.55c-.242-1.342-.446-2.692-.643-4.045-.269-1.849-.325-3.716-.44-5.58a2.076,2.076,0,0,1,.006-.248q.1-1.461.208-2.918c.015-.2.038-.394.052-.592a19.279,19.279,0,0,1,.382-2.837c.031-.14.039-.286.056-.419A3.664,3.664,0,0,0,16.191.708.971.971,0,0,0,16.037.72ZM32.431,2.543c-.353,1.235-.754,2.452-1.039,3.708-.323,1.418-.552,2.867-.8,4.307-.276,1.606-.366,3.245-.529,4.871-.158,1.592-.31,3.186-.481,4.777a15.685,15.685,0,0,1-.6,2.781,38.929,38.929,0,0,1-1.655,4.586,2.24,2.24,0,0,0-.086.256c.048-.053.1-.1.147-.157a.617.617,0,0,0,.072-.1c.3-.494.6-.982.878-1.495a11.477,11.477,0,0,0,1.2-2.919c.057-.256.12-.509.184-.761.211-.822.449-1.633.627-2.462a35.375,35.375,0,0,0,.807-4.9c.087-1.216.3-2.417.471-3.624.122-.879.249-1.759.389-2.636.085-.535.181-1.066.3-1.592.192-.879.391-1.756.611-2.624a3.259,3.259,0,0,1,.388-1.116h0a1.407,1.407,0,0,0-.126-.294c-.152-.212-.316-.41-.478-.611-.053-.067-.113-.125-.186-.2A2.227,2.227,0,0,0,32.431,2.543Zm3.92,1.8c-.306.626-.628,1.243-.906,1.888C35,7.259,34.586,8.3,34.163,9.342c-.114.282-.215.572-.315.862-.486,1.423-.953,2.853-1.343,4.32-.205.772-.464,1.523-.652,2.3-.373,1.542-.778,3.068-1.28,4.557-.267.8-.495,1.614-.769,2.407a30.343,30.343,0,0,1-1.433,3.348c-.075.156-.131.324-.194.488-.006.01-.012.022-.019.031a.293.293,0,0,0,.02-.031,4.185,4.185,0,0,0,.269-.364q.52-.891,1.027-1.8c.115-.2.224-.416.324-.632.6-1.3,1.12-2.651,1.6-4.021.167-.472.29-.966.41-1.456.208-.84.385-1.691.6-2.528a38.545,38.545,0,0,1,1.223-4.262,1.564,1.564,0,0,0,.06-.184,7.4,7.4,0,0,1,.692-1.683q.888-1.666,1.751-3.357a23,23,0,0,1,1.28-2.365.771.771,0,0,0,.059-.151,2.435,2.435,0,0,0-.924-.8A3.4,3.4,0,0,0,36.351,4.345ZM36.218,17.5c-.035.06-.071.12-.107.18L36,17.86l-.109.167c-.035.059-.071.121-.105.181s-.069.131-.1.2c-.016.018-.031.037-.047.057q-.628,1.084-1.283,2.142c-.023.047-.047.094-.073.138-1.3,2.185-2.7,4.282-4.138,6.331-.1.141-.185.294-.275.443.154-.156.319-.3.464-.469.014-.017.029-.033.042-.05q1.153-1.4,2.3-2.822c.4-.5.8-1,1.178-1.515.871-1.182,1.74-2.368,2.594-3.569,1.327-1.866,2.6-3.781,3.768-5.8a3.485,3.485,0,0,0,.148-.333.633.633,0,0,0-.133.085,8.967,8.967,0,0,1-1.907,1.332c-.167.093-.333.19-.5.288-.272.472-.547.942-.819,1.417q-.541.949-1.085,1.9c.027-.042.055-.084.081-.125.037-.061.071-.122.107-.181s.071-.122.107-.181l.1-.2.111-.165.107-.177c.013-.023.023-.044.029-.058,0,.015-.014.039-.024.064l0-.006,0,.007c-.035.059-.072.119-.107.179s-.074.108-.111.164h0ZM.77,11.349a7.292,7.292,0,0,0,.114.981c.155.788.32,1.575.5,2.355A8.159,8.159,0,0,0,2.448,17.24,13.953,13.953,0,0,0,4.675,20c.432.4.869.8,1.292,1.217q1.4,1.373,2.789,2.763a10.308,10.308,0,0,1,1.305,1.642c.164.252.343.487.516.729a3.617,3.617,0,0,0-.142-.425,7.393,7.393,0,0,0-.967-1.536q-1.54-1.886-3.1-3.758a23.012,23.012,0,0,1-2.759-3.915,17.779,17.779,0,0,1-2.1-5.932,2.834,2.834,0,0,0-.054-.29c-.023-.089-.061-.172-.092-.258A.98.98,0,0,0,.77,11.349ZM33.315,3.443c-.035.154-.067.311-.1.466-.079.316-.168.629-.241.947-.18.779-.347,1.562-.532,2.341a12.63,12.63,0,0,0-.352,2.236c-.018.312-.063.623-.108.933-.1.7-.212,1.4-.315,2.1q-.1.709-.183,1.422c-.077.67-.143,1.344-.219,2.015-.041.343-.076.689-.136,1.028q-.212,1.187-.451,2.367c-.174.85-.353,1.7-.606,2.522-.192.625-.319,1.28-.474,1.922a2.071,2.071,0,0,0,.177-.351c.349-1.1.712-2.185,1.029-3.293.345-1.2.64-2.426.966-3.635.135-.5.31-.992.436-1.5a46.445,46.445,0,0,1,1.424-4.7c.418-1.148.9-2.264,1.352-3.394a18.537,18.537,0,0,1,1.26-2.607,3.243,3.243,0,0,0,.148-.332,2.136,2.136,0,0,0-.37-.142c-.3-.053-.594-.1-.894-.129a5.691,5.691,0,0,1-1.457-.22.327.327,0,0,0-.109-.016C33.478,3.421,33.395,3.439,33.315,3.443ZM44.194,21.834c-.027.046-.053.1-.078.142.051-.067.1-.131.155-.2C44.244,21.8,44.218,21.814,44.194,21.834ZM17.078,14.862c.095.6.194,1.193.3,1.79a26.418,26.418,0,0,1,.373,3.867,2.38,2.38,0,0,0,.032.263c.015-.3.048-.6.04-.9-.01-.444-.068-.885-.075-1.328a19.516,19.516,0,0,0-.634-3.957.644.644,0,0,0-.069-.152C17.051,14.583,17.057,14.724,17.078,14.862ZM14.82,1.12c.013.694.03,1.4.038,2.114a19.32,19.32,0,0,0,.7,4.631c-.008-.236-.006-.473-.031-.7a8.111,8.111,0,0,1-.012-1.73c.055-.524.074-1.054.112-1.58.048-.673.094-1.348.147-2.022.021-.262.065-.522.087-.786a2.186,2.186,0,0,0-.02-.317l-.092,0A1.24,1.24,0,0,0,14.82,1.12ZM38.81,35.213a.078.078,0,0,1,.01-.068l.011-.008c.236-.107.469-.22.706-.319a.042.042,0,0,1,.061.024.062.062,0,0,1-.021.075c-.232.113-.469.215-.7.321a.053.053,0,0,1-.022.005A.043.043,0,0,1,38.81,35.213Zm1.285-.562,0,0q.381-.2.76-.4c.04-.021.069.055.03.072l-.781.351h0A.013.013,0,0,1,40.1,34.651ZM18.246,32.572a.405.405,0,0,1,.027-.043c0,.006-.014.027-.024.05a.085.085,0,0,1-.014.017Zm-.91-1.512a1.992,1.992,0,0,0,.159-.5c.04-.178.078-.357.118-.536.078-.358.163-.715.244-1.071a.066.066,0,0,1,.014-.03c.034-.039.1,0,.089.069-.085.37-.171.74-.261,1.11a4.284,4.284,0,0,1-.293,1.01.038.038,0,0,1-.033.023A.051.051,0,0,1,17.336,31.06Zm19.458-1.088c-.032-.006-.038-.053-.021-.074a.025.025,0,0,1,.024-.008c.04.008.039.082,0,.082Zm1.043-.7c-.041-.008-.049-.069-.026-.1a.033.033,0,0,1,.031-.011c.051.011.051.107,0,.107Zm-19.816-.815a.054.054,0,0,1-.042-.057,2.209,2.209,0,0,1,.119-.517.1.1,0,0,1,.016-.026.041.041,0,0,1,.054-.011.071.071,0,0,1,.022.089,2.014,2.014,0,0,0-.122.47c0,.029-.02.052-.045.052Zm.266-1.465a.048.048,0,0,1-.022-.054c.015-.055.031-.111.048-.167a.047.047,0,0,1,.01-.019.035.035,0,0,1,.038-.011.049.049,0,0,1,.025.058c-.018.055-.036.11-.053.166a.037.037,0,0,1-.033.029ZM26.3,25.457l0,.006a.04.04,0,0,1-.007.01A.1.1,0,0,0,26.3,25.457Zm0,0a.078.078,0,0,0,.009-.014c0,.007,0,.014,0,.021Zm.037-.147.04.024-.068.108C26.321,25.4,26.33,25.354,26.339,25.31Zm17.036-9.973.2-.265-.2.265.008-.007-.008.007v0c-.033.028-.064.056-.1.083C43.312,15.393,43.343,15.365,43.376,15.337Zm.2-.265,0,0Zm.1-.088c-.033.03-.066.057-.1.088C43.61,15.041,43.643,15.014,43.676,14.984Zm-.1.082s0,0,0,.006S43.58,15.069,43.581,15.066Zm.184-.158-.1.085Zm0,0,0,0Zm.006-.005-.006.005Zm.1-.178s0,0-.006.005,0,0,.006-.005l-.109.184Zm0,0Zm0-.005s0,0,0,.005S43.875,14.72,43.877,14.719Zm0,.005.093-.082-.093.082Z" transform="matrix(0.259, -0.966, 0.966, 0.259, 0, 46.87)" fill="#ead797"/>
  </g>
</svg>
