<svg xmlns="http://www.w3.org/2000/svg" width="19.341" height="19.361" viewBox="0 0 19.341 19.361">
  <path id="网络" d="M72.01,0a9.372,9.372,0,0,1,3.763.763,9.71,9.71,0,0,1,5.145,5.145A9.372,9.372,0,0,1,81.68,9.67a9.423,9.423,0,0,1-.763,3.784A9.71,9.71,0,0,1,75.773,18.6a9.662,9.662,0,0,1-7.526,0A9.71,9.71,0,0,1,63.1,13.454a9.423,9.423,0,0,1-.763-3.784A9.372,9.372,0,0,1,63.1,5.907,9.71,9.71,0,0,1,68.247.763,9.372,9.372,0,0,1,72.01,0Zm2.639,12.351q.062-.082-.062-.206t-.289-.278a2.476,2.476,0,0,1-.289-.32.349.349,0,0,1-.082-.309A1.1,1.1,0,0,0,74,10.753a.261.261,0,0,0-.2-.206,1.506,1.506,0,0,0-.474-.041q-.309.01-.742.01a2.716,2.716,0,0,0-.371.021q-.144.021-.268.031l-.268.021a1.835,1.835,0,0,1-.33-.01,1.136,1.136,0,0,1-.443-.1q-.155-.082-.289-.165a1.445,1.445,0,0,0-.34-.144,2.7,2.7,0,0,0-.6-.082q-.557-.021-.794-.052a2.407,2.407,0,0,1-.34-.062,1.421,1.421,0,0,0-.165-.041,1.864,1.864,0,0,0-.247-.01,2.257,2.257,0,0,0-.567.186q-.381.165-.773.381a5.075,5.075,0,0,0-.68.443q-.289.227-.289.371a3.368,3.368,0,0,0,.052.66,1.054,1.054,0,0,0,.144.381,1.012,1.012,0,0,0,.2.217,2.509,2.509,0,0,1,.206.186.567.567,0,0,0,.278.144,2.131,2.131,0,0,0,.381.052,2.131,2.131,0,0,1,.381.052.567.567,0,0,1,.278.144.456.456,0,0,0,.433.206,1.384,1.384,0,0,0,.4-.134.468.468,0,0,1,.289-.072q.113.021.134.392a.41.41,0,0,0,.062.247.375.375,0,0,0,.165.124l.247.124a1.947,1.947,0,0,1,.309.227q.165.165.113.309a1.018,1.018,0,0,1-.155.278,3.026,3.026,0,0,0-.2.289.253.253,0,0,0,.01.3,1.031,1.031,0,0,0,.309.33,3,3,0,0,0,.32.175,1.566,1.566,0,0,1,.278.165.472.472,0,0,1,.165.3.551.551,0,0,0,.144.237q.144.175.278.361t.216.309q.082.124-.041.1a3.2,3.2,0,0,0,.526.041.46.46,0,0,0,.361-.1l.041-.041v-.021l.062-.021q.041-.021.113-.052a.9.9,0,0,0,.2-.134A2.3,2.3,0,0,0,73,16.64a3.125,3.125,0,0,0,.392-.588,4.859,4.859,0,0,0,.278-.65,3.387,3.387,0,0,0,.155-.619.891.891,0,0,1,.134-.392q.093-.124.165-.217a.83.83,0,0,0,.124-.247,1.227,1.227,0,0,0-.01-.526.9.9,0,0,1,.113-.691Q74.525,12.5,74.649,12.351Zm2.041,3.237a1.1,1.1,0,0,0,.3-.577q.01-.227-.485-.351a4.592,4.592,0,0,0-.732-.134.491.491,0,0,0-.4.217,1.53,1.53,0,0,0-.268.464,1.091,1.091,0,0,0,.041.65q.062.186.1.3a.246.246,0,0,0,.1.144.362.362,0,0,0,.186.021,2.108,2.108,0,0,0,.351-.072,1.032,1.032,0,0,0,.474-.289A3.209,3.209,0,0,0,76.69,15.588Zm.557-6.021a.966.966,0,0,1,.485-.217,6.888,6.888,0,0,0,.691-.186,2.029,2.029,0,0,0,.619-.32.742.742,0,0,0,.289-.577,5.6,5.6,0,0,0,0-.68,2.47,2.47,0,0,0-.124-.619,4.61,4.61,0,0,0-.278-.65q-.175-.34-.443-.773-.289-.454-.526-.763a4.576,4.576,0,0,0-.464-.526,4.217,4.217,0,0,0-.474-.392q-.247-.175-.557-.361-.33-.186-.65-.4a1.85,1.85,0,0,0-.691-.289,1.458,1.458,0,0,0-.8.093,3.054,3.054,0,0,0-.99.722L72.979,4q-.227.206-.474.392a5.233,5.233,0,0,1-.474.32.827.827,0,0,1-.412.134,4.918,4.918,0,0,0-.515.041,2.378,2.378,0,0,0-.711.206,1.789,1.789,0,0,0-.619.464,1.034,1.034,0,0,0-.216.794,1.088,1.088,0,0,0,.2.722.716.716,0,0,0,.454.186q.278.021.66.041a1.86,1.86,0,0,1,.814.268q.515.124.969.247a7.6,7.6,0,0,1,.794.258,4.1,4.1,0,0,1,.67.32.434.434,0,0,1,.247.485,2.49,2.49,0,0,1-.216.608,5.412,5.412,0,0,0-.258.6.359.359,0,0,0,.124.454,2.736,2.736,0,0,0,.454.289.523.523,0,0,0,.309.031q.165-.031.454-.093a4.617,4.617,0,0,1,.887-.062q-.165,0-.062-.124a2.822,2.822,0,0,1,.32-.309q.216-.186.464-.381t.412-.32Z" transform="translate(-62.339)" fill="#fff"/>
</svg>
