<svg xmlns="http://www.w3.org/2000/svg" width="61.4" height="63.476" viewBox="0 0 61.4 63.476">
  <path id="交叉_12" data-name="交叉 12" d="M40.553,79.688a.384.384,0,0,1-.343-.392c0-.041,0-.082,0-.122-.857-2.393-4.3-2.759-4.3-2.759a20.833,20.833,0,0,1-12.867-2.224C11.882,68.942,10.977,51.38,10.977,51.38V18.212h59.4V51.38s-.928,17.562-12.083,22.811a20.723,20.723,0,0,1-12.843,2.224,8.821,8.821,0,0,0-1.151.233,4.417,4.417,0,0,0-3.155,2.526.925.925,0,0,1,0,.122s-.232.392-.559.392ZM43.2,76.1l-.343-1.728-.244-1.228,2.151-1.93-2.886-.292L40.7,68.256,39.451,70.92l-2.886.292,2.348,2.052L38.3,76.1l2.446-1.441Z" transform="translate(-9.977 -17.212)" fill="rgba(255,255,255,0.42)" stroke="#fff" stroke-width="2" opacity="0.33"/>
</svg>
