<svg xmlns="http://www.w3.org/2000/svg" width="363.926" height="61.926" viewBox="0 0 363.926 61.926">
  <g id="组_14684" data-name="组 14684" transform="translate(-9358.321 5856.896)">
    <g id="组_2451" data-name="组 2451" transform="translate(9660.321 -5856.896)">
      <circle id="椭圆_358" data-name="椭圆 358" cx="30.963" cy="30.963" r="30.963" transform="translate(0)" fill="#fff" opacity="0.1"/>
      <g id="bilibili" transform="translate(12.083 13.529)">
        <path id="路径_50" data-name="路径 50" d="M87.846,85.022h-6.34l2.873-2.873a1.191,1.191,0,0,0-1.684-1.684l-4.854,4.854H73.086l-4.854-4.854a1.216,1.216,0,0,0-1.585-.3c-.1,0-.1.1-.2.2a1.14,1.14,0,0,0,0,1.684l2.972,2.972h-6.34a6.384,6.384,0,0,0-6.34,6.34v15.75a6.365,6.365,0,0,0,6.34,6.241h.991a2.093,2.093,0,0,0,2.08,2.08,2.161,2.161,0,0,0,2.08-2.08H82.893a2.135,2.135,0,0,0,4.26,0h.792a6.384,6.384,0,0,0,6.34-6.34V91.263A6.451,6.451,0,0,0,87.846,85.022Zm-.2,24.468H63.478a2.479,2.479,0,0,1-2.377-2.377L61,91.065a2.41,2.41,0,0,1,2.377-2.377H87.549a2.479,2.479,0,0,1,2.377,2.377l.1,16.048a2.409,2.409,0,0,1-2.377,2.377Z" transform="translate(-56.741 -80.001)" fill="#fff"/>
        <path id="路径_51" data-name="路径 51" d="M225.946,423.458l.594,2.972-7.925,1.486-.594-2.972Zm7.628,2.972.594-2.972,7.925,1.486-.594,2.972Zm1.585,6.241a.593.593,0,0,1-.1.4,3.349,3.349,0,0,1-2.873,1.882,2.788,2.788,0,0,1-2.08-.991,2.961,2.961,0,0,1-2.08.991,3.621,3.621,0,0,1-2.873-1.882c0-.1-.1-.2-.1-.4a.84.84,0,0,1,.693-.792h.1a.543.543,0,0,1,.594.4s.792,1.09,1.486,1.09c1.387,0,1.387-1.189,2.179-2.08.892.991.892,2.08,2.179,2.08.892,0,1.486-1.09,1.486-1.09a.815.815,0,0,1,.594-.4c.4-.1.693.2.792.594v.2Z" transform="translate(-211.384 -409.323)" fill="#fff"/>
      </g>
    </g>
    <g id="组_2448" data-name="组 2448" transform="translate(9358.321 -5856.896)">
      <circle id="椭圆_359" data-name="椭圆 359" cx="30.963" cy="30.963" r="30.963" fill="#fff" opacity="0.1"/>
      <path id="微信" d="M38.883,115.336c0-5.388-5.387-9.775-11.447-9.775-6.421,0-11.462,4.387-11.462,9.775s5.042,9.773,11.462,9.773a17.4,17.4,0,0,0,4.044-.67l3.7,2.028L34.167,123.1C36.867,121.067,38.883,118.366,38.883,115.336Zm-15.165-1.687a1.343,1.343,0,0,1,0-2.685,1.378,1.378,0,1,1,0,2.685Zm7.419,0a1.343,1.343,0,0,1,0-2.685,1.378,1.378,0,1,1,0,2.685Zm-4.813-9.279a12.953,12.953,0,0,1,1.325.076c-1.188-5.549-7.116-9.662-13.885-9.662C6.2,94.784,0,99.935,0,106.489c0,3.781,2.058,6.889,5.5,9.3l-1.371,4.144,4.816-2.422a24.034,24.034,0,0,0,4.817.686,12.57,12.57,0,0,0,1.281-.059,10.053,10.053,0,0,1-.427-2.881C14.617,109.248,19.786,104.37,26.324,104.37Zm-7.409-3.734a1.722,1.722,0,0,1,0,3.444,1.752,1.752,0,1,1,0-3.444Zm-9.632,3.443a1.751,1.751,0,1,1,0-3.444,1.722,1.722,0,1,1,0,3.444Z" transform="translate(13.679 -79.717)" fill="#fff"/>
    </g>
    <g id="组_2449" data-name="组 2449" transform="translate(9495.321 -5856.896)">
      <circle id="椭圆_360" data-name="椭圆 360" cx="30.208" cy="30.208" r="30.208" transform="translate(-35)" fill="#fff" opacity="0.1"/>
      <path id="微博" d="M72.456,136.656c0,.555-.555.833-1.111.833a1.527,1.527,0,0,1-1.388-.833.845.845,0,0,1,0-1.111,7,7,0,0,0-1.666-7.22,7.217,7.217,0,0,0-6.943-2.222,1.67,1.67,0,0,1-1.111-.278.736.736,0,0,1-.833-.833c-.278-.833.278-1.389,1.111-1.666a9.869,9.869,0,0,1,9.72,3.055,10.257,10.257,0,0,1,2.222,10.275ZM62.181,131.1a1.02,1.02,0,0,1-.833-.278c-.278-.278-.555-.555-.555-.833-.278-.555.278-1.389,1.111-1.389a5.087,5.087,0,0,1,4.721,1.666,5.5,5.5,0,0,1,1.111,5c0,.278-.278.555-.555.833s-.555.278-1.111,0a1.348,1.348,0,0,1-.833-1.666,2.833,2.833,0,0,0-.555-2.5,2.375,2.375,0,0,0-2.5-.833Zm1.111,7.22c2.222.555,4.721,2.5,4.721,5.276,0,5-6.943,11.108-17.5,11.108-8.053,0-16.384-3.888-16.384-10.275,0-3.332,2.222-7.22,5.832-10.83,5-5,10.553-7.22,12.774-5,.833.833,1.111,2.5.555,4.443-.555.833.833.278.833.278,3.888-1.666,7.5-1.666,8.609,0,.555.833.555,2.222,0,3.888-.278.833,0,.833.555,1.111ZM50.517,152.485c6.387-.555,11.386-4.721,10.83-8.886s-6.109-7.22-12.5-6.387c-6.387.555-11.108,4.443-10.83,8.609.555,4.166,6.109,7.22,12.5,6.665Zm.555-12.219a5.032,5.032,0,0,1,3.61,6.665,7.143,7.143,0,0,1-8.331,3.61c-3.055-1.111-4.443-4.166-3.055-6.943a7.109,7.109,0,0,1,7.776-3.332Zm-2.222,6.943a1.7,1.7,0,0,0-.833-2.5,2.029,2.029,0,0,0-2.777,1.111,1.752,1.752,0,0,0,.555,2.5c1.111.555,2.222,0,3.055-1.111Zm0,0" transform="translate(-56.88 -107.99)" fill="#fff"/>
    </g>
    <g id="组_2450" data-name="组 2450" transform="translate(9560.321 -5856.896)">
      <circle id="椭圆_361" data-name="椭圆 361" cx="30.208" cy="30.208" r="30.208" transform="translate(0)" fill="#fff" opacity="0.1"/>
      <path id="抖音" d="M121.476,40.172a9.048,9.048,0,0,1-4.1-7.542H110.9l-.008,25.932a5.438,5.438,0,1,1-5.432-5.646,5.207,5.207,0,0,1,1.607.256v-6.6a11.534,11.534,0,0,0-1.607-.115,11.911,11.911,0,1,0,11.911,11.911V45.217a15.387,15.387,0,0,0,9,2.893V41.64A8.98,8.98,0,0,1,121.476,40.172Z" transform="translate(-80.409 -20.639)" fill="#fff"/>
    </g>
  </g>
</svg>
