<svg id="图层_2" data-name="图层 2" xmlns="http://www.w3.org/2000/svg" width="215.67" height="46.383" viewBox="0 0 215.67 46.383">
  <g id="图层_1" data-name="图层 1" transform="translate(0)">
    <path id="路径_2088" data-name="路径 2088" d="M31.663,45.889l3.5-3.6s.214.187.587-.053,4.618-2.723,6.273-2.723,2.215.4,1.495,1.174-2,1.121-1.868,1.628.667.347.934.427,1.842.454,1.682,1.281c0,0-.107.667-1.014.374a3.17,3.17,0,0,0-3.1.4c-1.441.854-3.924,2.456-6.726,1.708l-1.762-.614M23.7,6.432,24.91,9.468,22.241,14s-.113.1.113.38.167.3.334.347.3.147.581-.18,2.756-4.8,2.756-4.8L24.843,6.412l-.18-.48s-.267.634-.467.614A2.249,2.249,0,0,1,23.7,6.432Zm1.335,0a.874.874,0,0,0,.581.067A1.375,1.375,0,0,0,26,6.085l1.335,4L24.67,14.76s-.247.667-.928.22c0,0-.287-.234-.32-.414l2.669-4.818s.12.087-.047-.494Zm8.334,8.695.454-.534h.667s-.294,1.495-.988,1.521c0,0-.534,0-.48-.24s.327.073.454-.133A.6.6,0,0,0,33.365,15.127Zm1.174-.587a3.757,3.757,0,0,1,.3-1.548,9.2,9.2,0,0,0-1.655.087l.454.4.774-.194-.24.754Zm-3.223-.214a1.061,1.061,0,0,1,.714-1.154,1.448,1.448,0,0,1,.934-.053v.567l-.614.347A1.034,1.034,0,0,0,31.316,14.326ZM12.872,7.3A6.673,6.673,0,0,0,7.02,11.463a2.429,2.429,0,0,0-.08,1.2A4.544,4.544,0,0,1,6.166,13.9a5.26,5.26,0,0,1-.908,1.094s.561-3.663-.16-4.838c0,0-3.283,2.589-1.121,7.4,0,0-.454,2.135-.507,3.016,0,0-.08-.587-.214-1.335a11.691,11.691,0,0,0-1.335-2.723A12.118,12.118,0,0,1,1.2,14.806S-.08,18.33.881,19.9a3.6,3.6,0,0,0,2.456,1.762s-.133,4.057,0,4.591A8.088,8.088,0,0,0,2.322,23.8a12.085,12.085,0,0,1-1.335-2c-.24-.507-.427-.534-.427-.534s-1.094,2.963.667,5.158a12.265,12.265,0,0,0,2.3,1.521L3.95,30s0,.16-.534-.534a6.293,6.293,0,0,0-1.6-1.388A8.308,8.308,0,0,1,.4,26.744L0,26.611s.133,2.669,1.228,3.95c0,0,.32.881,3.23,1.655l1.255,2.349A5.852,5.852,0,0,0,2.8,33.15a4.771,4.771,0,0,1-1.281-.561A2.6,2.6,0,0,0,.4,32.216a4.155,4.155,0,0,0,3.336,3.63,8.314,8.314,0,0,0,3.07.294L9.7,39.016s.133.207-.667-.434-1.014-1.014-2-1.094-2.109.053-2.669,0a3.336,3.336,0,0,0-1.021.04A9.062,9.062,0,0,0,6.78,39.643a12.9,12.9,0,0,0,4.331.4l1.948,1.174.614-.32-.881-.881a7.627,7.627,0,0,0-.667-3.877c-.908-1.708-1.281-2.349-1.2-3.15,0,0-2.429,2.909.561,6.466,0,0-2.215-1.335-2.616-2.356,0,0,.8-.8.587-3.737a6.172,6.172,0,0,0-.614-2.135,2.3,2.3,0,0,1,.107-1.495S6.279,30.908,7.58,35.819A8.741,8.741,0,0,1,5.659,32.99s2-2.135,2.215-4.057.274-2.969.941-3.4c0,0-1.875-.614-3.8,4.544a1.535,1.535,0,0,0,.08,1.068,6.4,6.4,0,0,1-.667-2.322A7.827,7.827,0,0,0,6.806,25.49a9.191,9.191,0,0,1,1.662-3.737,7.035,7.035,0,0,0-4.3,4.971,7.3,7.3,0,0,1-.187-2.969s.534-.507,1.335-1.2a12.679,12.679,0,0,0,2.135-2.669c.541-.854,1.421-1.9,1.715-1.922a.494.494,0,0,0-.561-.24,6.166,6.166,0,0,0-4.571,3.71A14.794,14.794,0,0,1,4.4,18.763a5.852,5.852,0,0,0,2.989-2.109c1.154-1.628,2-2.989,2-2.989a1.335,1.335,0,0,0-.908,0,5.619,5.619,0,0,0-2.669,2.082l-.561.294a28.331,28.331,0,0,1,2.349-3.2,18.017,18.017,0,0,0,2.943-2.669C11.591,8.988,12.872,7.3,12.872,7.3Zm3.1,38.59-3.5-3.6s-.214.187-.587-.053S7.26,39.509,5.605,39.509s-2.215.4-1.495,1.174,2,1.121,1.868,1.628-.667.347-.934.427S3.2,43.193,3.336,44.02c0,0,.107.667,1.014.374a3.17,3.17,0,0,1,3.1.4c1.448.854,3.93,2.456,6.733,1.708Zm6.806-30.028H15.708v9.062s.247,4.8,3.29,6.233a5.679,5.679,0,0,0,3.51.607s.941.1,1.174.754a.285.285,0,0,0,0,.033h0a.1.1,0,0,0,.093.107c.093.007.16-.107.16-.107a.285.285,0,0,0,0-.033c.234-.667,1.174-.754,1.174-.754a5.645,5.645,0,0,0,3.5-.607c3.043-1.435,3.3-6.233,3.3-6.233V15.861Zm1.488,23.028a31.7,31.7,0,0,0-3.523.147c-5.2.667-8.221,2.262-8.181,2.669a1.12,1.12,0,0,0,.14.534l3.316,3.343s.107-.861.667-1.034a29.3,29.3,0,0,1,7.147-1.141,29.213,29.213,0,0,1,7.14,1.141c.574.173.667,1.034.667,1.034l3.3-3.3s.107-.107.14-.534-2.823-1.915-8.782-2.669a12.171,12.171,0,0,0-2-.167ZM14.253,15.1l-.454-.534h-.667s.294,1.495.988,1.521c0,0,.534,0,.48-.24s-.334.073-.454-.133a.6.6,0,0,1,.113-.587Zm-1.174-.587a3.757,3.757,0,0,0-.287-1.521,9.2,9.2,0,0,1,1.655.087l-.454.4-.774-.194.24.754Zm3.236-.187a1.061,1.061,0,0,0-.721-1.181,1.448,1.448,0,0,0-.934-.053l.02.567.614.347A1.034,1.034,0,0,1,16.315,14.326ZM34.759,7.3A6.673,6.673,0,0,1,40.6,11.463a2.429,2.429,0,0,1,.08,1.2,4.544,4.544,0,0,0,.774,1.234c.747,1.014.908,1.068.908,1.068s-.561-3.663.16-4.838c0,0,3.283,2.589,1.121,7.4,0,0,.454,2.135.507,3.016,0,0,.08-.587.214-1.335A11.691,11.691,0,0,1,45.7,16.488a12.117,12.117,0,0,0,.721-1.655s1.288,3.523.32,5.1a3.6,3.6,0,0,1-2.456,1.735s.133,4.057,0,4.591A8.088,8.088,0,0,1,45.3,23.8a12.085,12.085,0,0,0,1.335-2c.24-.507.434-.534.434-.534s1.094,2.963-.667,5.158a12.265,12.265,0,0,1-2.3,1.521L43.681,30s0,.16.534-.534a6.293,6.293,0,0,1,1.6-1.388,8.061,8.061,0,0,0,1.415-1.335l.407-.133S47.5,29.28,46.4,30.561c0,0-.32.881-3.23,1.655l-1.255,2.349a5.852,5.852,0,0,1,2.909-1.495,4.771,4.771,0,0,0,1.281-.561,2.6,2.6,0,0,1,1.121-.374s-.047,2.669-3.336,3.63a8.314,8.314,0,0,1-3.07.294l-2.889,2.956s-.133.207.667-.434,1.014-1.014,2-1.094,2.109.053,2.669,0a3.337,3.337,0,0,1,.988.053,9.062,9.062,0,0,1-3.443,2.115,12.852,12.852,0,0,1-4.324.4l-1.949,1.161-.614-.32.908-.881a7.627,7.627,0,0,1,.667-3.877c.908-1.708,1.281-2.349,1.2-3.15,0,0,2.429,2.909-.561,6.466,0,0,2.215-1.335,2.616-2.356,0,0-.8-.8-.587-3.737a6.173,6.173,0,0,1,.614-2.135,2.3,2.3,0,0,0-.087-1.495s2.669,1.174,1.335,6.086a8.741,8.741,0,0,0,1.922-2.829s-2-2.135-2.215-4.057-.267-2.969-.934-3.4c0,0,1.868-.614,3.79,4.544a1.535,1.535,0,0,1-.08,1.068,6.4,6.4,0,0,0,.667-2.322,7.827,7.827,0,0,1-2.376-3.336,9.3,9.3,0,0,0-1.655-3.737,7.034,7.034,0,0,1,4.3,4.971,7.3,7.3,0,0,0,.187-2.969s-.534-.507-1.335-1.2a12.679,12.679,0,0,1-2.135-2.669c-.534-.854-1.415-1.9-1.708-1.922a.487.487,0,0,1,.561-.24,6.146,6.146,0,0,1,4.564,3.71,14.8,14.8,0,0,0-.374-2.669,5.852,5.852,0,0,1-2.989-2.109c-1.148-1.628-2-2.989-2-2.989a1.335,1.335,0,0,1,.908,0A5.639,5.639,0,0,1,41.8,15.747l.561.294a28.331,28.331,0,0,0-2.349-3.2,18.07,18.07,0,0,1-2.936-2.669C36.034,8.988,34.759,7.3,34.759,7.3ZM17.71,9.908s.374-5.532,6.006-5.725c5.378.187,5.952,5.265,6.006,5.7h.007a1,1,0,0,0-.194.04.829.829,0,0,0-.48,1.148c.187.587,1.335.667,1.335.667a1.8,1.8,0,0,1-1.742.614,1.014,1.014,0,0,1-.614-1.335,1.335,1.335,0,0,0,.827,0c.08-.214.267-1.281-.747-1.148s-.988,1.415-.934,1.815.133,1.368,1.842,1.521a2.236,2.236,0,0,0,2.222-1.655c.667-1.228,1.548-.8,1.548-.8,1.468,1.174-.053,1.682-.053,1.682l-.24-.32c.614-.107.561-.4.427-.774s-.721-.267-.721-.267a.827.827,0,0,0-.667,1.014,1.635,1.635,0,0,0,.427.534,1.782,1.782,0,0,0-1.5,1.041,1.481,1.481,0,0,0,1.2,1.735c.961.107.721-1.041.721-1.041l.667.053.053.587c-.614,0-.774.347-.774.347-.614,1.121.854,1.521.854,1.521,1.335.32,1.762-1.388,1.762-1.388a1.008,1.008,0,0,0,.961.454c1.041-.427.587-1.121.214-1.255s-.721.267-.721.267a.314.314,0,0,0-.187-.267,1.074,1.074,0,0,1,1.708.347c0,1.014-1.174,1.575-1.174,1.575a2,2,0,0,0-.827,2.509c1.335,2.376,3.043.961,3.043.961a28.859,28.859,0,0,1-.667,8.495c-.1.367-.48.347-.908.587s-.774.48-.8.934-.187.427-.187.427a6.172,6.172,0,0,0-.4-1.5c-.267-.587-.587-.24-.587-.24.24,5.418-3.016,5.712-3.016,5.712a11.644,11.644,0,0,0,.908-1.842s1.148.587,1.174-.454a1.088,1.088,0,0,0-1.762-.667c-.747.614-.934,2.669-.934,2.669-.807,1.735-1.181,1.094-1.181,1.094a1.948,1.948,0,0,0-.24-2.609c-.374-.294-1.575-.48-1.788.48S28.8,34.4,28.8,34.4c-.107,1.575-1.068,1.842-1.068,1.842a1.408,1.408,0,0,0,.08-1.441,1.241,1.241,0,0,0-1.548-.347c-.747,1.041.747,1.335.747,1.335-.427,1.041-3.176,1.735-3.176,1.735v0s-2.749-.667-3.176-1.735c0,0,1.495-.32.747-1.335a1.241,1.241,0,0,0-1.548.347,1.408,1.408,0,0,0,.08,1.441s-.961-.267-1.068-1.842c0,0,1.441-.294,1.228-1.255s-1.415-.774-1.788-.48a1.949,1.949,0,0,0-.294,2.589s-.374.667-1.174-1.094c0,0-.187-2.055-.934-2.669a1.081,1.081,0,0,0-1.762.667c0,1.041,1.174.454,1.174.454a11.645,11.645,0,0,0,.908,1.842s-3.256-.294-3.016-5.712c0,0-.32-.347-.587.24a6.173,6.173,0,0,0-.374,1.495s-.16,0-.187-.427-.374-.667-.8-.934-.814-.22-.908-.587a28.859,28.859,0,0,1-.667-8.495s1.682,1.415,3.043-.961a2,2,0,0,0-.827-2.509s-1.174-.561-1.174-1.575a1.074,1.074,0,0,1,1.708-.347.314.314,0,0,0-.187.267s-.347-.4-.721-.267-.827.827.214,1.255a1.008,1.008,0,0,0,.961-.454s.427,1.708,1.762,1.388c0,0,1.468-.4.854-1.521,0,0-.16-.374-.774-.347l.053-.587.667-.053s-.24,1.148.721,1.041a1.481,1.481,0,0,0,1.2-1.735,1.782,1.782,0,0,0-1.415-1.074,1.635,1.635,0,0,0,.427-.534.827.827,0,0,0-.667-1.014s-.587-.107-.721.267-.187.667.427.774l-.24.32s-1.521-.507-.053-1.682c0,0,.908-.427,1.548.8a2.212,2.212,0,0,0,2.215,1.655c1.708-.167,1.788-1.121,1.842-1.521a2.669,2.669,0,0,0,0-.44.447.447,0,0,0,.067.2s1.335,2.622,1.4,2.669.173.08.14,0a.414.414,0,0,1,0-.2L24.83,9.415,23.2,5.651s-1.842,3.4-2.369,4.411a2.336,2.336,0,0,0-.307,1.008,1.194,1.194,0,0,0-.948-1.234c-1.014-.133-.827.934-.747,1.148a1.335,1.335,0,0,0,.827,0,1.014,1.014,0,0,1-.614,1.335A1.788,1.788,0,0,1,17.3,11.7s1.148-.053,1.335-.667-.053-1.014-.48-1.148a1.008,1.008,0,0,0-.447.02ZM24.149.94h-.908v.387l.04,2.709h-.387L22.781,2l-.761.173.307,2-.4.08-.9-2.8-.667.247.994,2.729-.374.14-.854-1.642-.667.374,1.081,1.535-.387.28L18.017,2.982l-.514.607,2.169,1.882-.354.327L17.723,4.677l-.387.667L18.9,6.2l-.274.44L15.615,5.558l-.26.667,3.05.827-.26.52-2.215-.267v.607l2,.22-.173.454H14.42v.734h3.236l-.14.567H17.7a.554.554,0,0,0-.514.514.52.52,0,0,0,.507.4c.4,0,.24.133.16.187a.561.561,0,0,1-.774,0c-.32-.347-.667-1.335-1.762-1.281a2.169,2.169,0,0,0-1.708,2.669s-1.842,0-1.788-1.041c0,0,.294-1.014,1.014-.747,0,0,.08,0-.214.24s-.667.614.133.908c0,0,.781.08.934-1.014.107-.774-.721-.988-.854-.988s-1.014,0-1.468,1.335c0,0-.427.08-.187-.347a2.489,2.489,0,0,1,.454-.614s-.374-.214-.961.374-1.088.874-1.088,1.174.187.32.4.16.427-.48.667-.4.214.187.214.187-1.528.721-1.041,1.868c0,0,.721,1.148,1.868-.194,0,0,.053-.667-.507-.721s-.614.3-.614.427-.347-.561.4-.747c0,0,.747-.347,1.2.827l.08.7s-2.562-.16-2.482,1.441.721,1.335.988,1.495c0,0,.561.667-.107,1.014A.554.554,0,0,0,10.283,17s-.961.133-.614,1.014a1.041,1.041,0,0,0,1.6,0,.908.908,0,0,0,.294-.667s1.628,1.174-.4,2.349a.567.567,0,0,1-.667-.053.667.667,0,0,0,.507-.8.948.948,0,0,0-1.548.24s-.08.934-.08,1.628c0,.567-.5,9.209,3.5,12.872a13.874,13.874,0,0,0,7.661,4.057,12.012,12.012,0,0,1,3.223,1.054v.04h0v-.04a12.011,12.011,0,0,1,3.223-1.054,13.877,13.877,0,0,0,7.667-4.057c4-3.663,3.5-12.3,3.5-12.872,0-.667-.08-1.628-.08-1.628a.948.948,0,0,0-1.548-.24.667.667,0,0,0,.507.8.567.567,0,0,1-.667.053c-2-1.174-.4-2.349-.4-2.349a.908.908,0,0,0,.294.667,1.041,1.041,0,0,0,1.6,0A.634.634,0,0,0,37.368,17a.554.554,0,0,0-.374.721c-.667-.374-.107-1.014-.107-1.014.267-.133.908.107.988-1.495s-2.509-1.441-2.509-1.441l.08-.7c.454-1.174,1.2-.827,1.2-.827.747.187.454.961.4.747s-.053-.507-.614-.427-.507.721-.507.721c1.148,1.335,1.868.194,1.868.194.48-1.154-1.068-1.875-1.068-1.875s-.053-.107.214-.187.48.24.667.4.4.133.4-.16S37.5,11.09,36.915,10.5s-.961-.374-.961-.374a2.489,2.489,0,0,1,.454.614c.24.427-.187.347-.187.347-.454-1.335-1.335-1.335-1.468-1.335s-.961.214-.854.988c.147,1.094.934,1.014.934,1.014.8-.294.427-.667.133-.908s-.214-.24-.214-.24c.721-.267,1.014.747,1.014.747.053,1.068-1.788,1.041-1.788,1.041A2.169,2.169,0,0,0,32.27,9.728c-1.094-.08-1.441.934-1.762,1.281a.567.567,0,0,1-.781,0c-.08-.053-.24-.214.16-.187a.52.52,0,0,0,.514-.4.561.561,0,0,0-.567-.52L29.7,9.341h3.236V8.607H29.6l-.167-.454,2-.22V7.326l-2.215.267-.267-.52,3.076-.827-.267-.667L28.774,6.652l-.28-.44,1.568-.861-.387-.667L28.093,5.791l-.36-.327L29.9,3.582l-.507-.6L27.252,5.117l-.387-.28L27.953,3.3l-.667-.374-.9,1.642-.36-.14,1-2.743-.667-.247-.894,2.8-.4-.08.307-2-.761-.153L24.5,4.043h-.387l.04-2.709Zm-.334,28.593.32.727.787.08-.587.527.16.807-.667-.394-.667.394.167-.774-.641-.561.787-.08Zm-3.5-2.289v.374h.374c.22,0,.334-.04.347-.167l.26-.754h-.541l-.147.46c0,.067-.04.093-.087.087Zm.247-.807a.28.28,0,0,0,.267.12h.46V26.17H21c-.06,0-.053-.067-.12-.087h-.567Zm.921-1.061v1.962c0,.18.08.254.274.254h1.862v-.42H22.107c-.093,0-.12,0-.12-.113V25.817h1.061v.394c0,.047,0,.073-.073.073h-.567V26.7h.861c.22,0,.307-.087.307-.294V25.376Zm-.173.46v-.394H21.1c-.073,0-.093-.053-.147-.067l-.113-.04h-.527l.28.347a.354.354,0,0,0,.307.153Zm-.974-1.268V25h.314l.113.22h.767L21.453,25h1.121l-.093.22h.667l.093-.22h.36v-.434h-.32v-.153h-.594l-.073.153H21.407l-.053-.167h-.667l-.127.167Zm7.273,1.054v.42h1.815l-.347.22v.227H27.546V26.9h1.528v.367c0,.06,0,.08-.087.08h-.394v.354h.767a.254.254,0,0,0,.26-.267V26.9h1.234v-.414H29.641v-.06l1.054-.487v-.32Zm-.087-.113h.6v-.167h2.042v.14h.667v-.52h-.274l.173-.574h-.7l-.133.487h-.4l-.133-.487h-.534l.113.5h-.38l-.227-.5h-.44l.16.5h-.534Zm-3.61-.667v.541H25.19L24.3,27a.24.24,0,0,1-.247.127h-.147v.414h.2a1.335,1.335,0,0,0,.427-.04.414.414,0,0,0,.187-.207l.841-1.515.874,1.528a.52.52,0,0,0,.527.254h.26v-.447h-.133a.2.2,0,0,1-.227-.127l-.8-1.428h-.307l.08-.234h1.388v-.541H25.891V24.4h-.627v.42Zm-7.16,2H17.2v-2.3h-.454Zm.6-2.349v2.669c0,.16.147.04-.047.04h-.354v.467h.614c.187,0,.267-.1.267-.334V24.455Zm1.408.434v.247h-.741v2.4h.467v-2h.274v2.069h.467V25.57H19.5v1.581a.039.039,0,0,1-.04.04h-.107v.36h.38c.187,0,.247-.073.247-.274V25.136h-.754v-.247h.727v-.42H18.017v.42Zm8.982-4.364v.287h-.914v-.287Zm-2.442,0H26.2v.287H25.3Zm0-1.061h2.442v.667h-.38l.187-.527h-.667l-.2.527h-.254l-.207-.547h-.667l.187.547h-.42ZM24.59,18.8h1.495V19H24.69v2.756H25.3v-.48H26.2v.48h.621v-.48h.914v.1c0,.073,0,.093-.12.093h-.314v.287h.534a.714.714,0,0,0,.407-.08.44.44,0,0,0,.1-.334V19H26.825v-.254h1.6V18.33h-1.6v-.153h-.741v.153H24.59Zm-3.236,2.829c.294,0,.42-.113.42-.38v-2.2H20.085v2.582Zm-2.242-.367c0,.073.033.093-.047.093h-.2v.414h.227c.247,0,.574-.08.594-.274l.093-.921h-.587Zm1.969-.214c0,.08-.033.12-.113.12h-.28V19.5h.387Zm-2.035-1c.06.214.16.294.34.294H19.9v-.374h-.06a.167.167,0,0,1-.167-.14l-.1-.354H18.9Zm.994-1.194h2v2.336c0,.1,0,.153-.14.153h-.08v.44h.367a.375.375,0,0,0,.427-.44V18.85h.147v-.52H20.019Zm-.974.194c.033.187.147.194.354.194h.48V18.83h-.06a.133.133,0,0,1-.153-.12l-.067-.38h-.667ZM29.741,42.285h.06a.107.107,0,0,1,.06,0q.32.2.08.667c-.167.287-.347.394-.547.307a.334.334,0,0,1-.153-.287.347.347,0,0,0-.133-.267.2.2,0,0,0-.28.073c-.06.18.053.354.347.534a.881.881,0,0,0,1.288-.294.594.594,0,0,0-.214-.854h0a.667.667,0,0,0,.621-.287.48.48,0,0,0-.254-.621.741.741,0,0,0-.867.14l.08.093a.42.42,0,0,1,.454-.067.267.267,0,0,1,.1.387c-.067.153-.28.267-.627.334Zm-4.951.254,1.415.04.087-.667h-.113a.234.234,0,0,1-.274.26h-.667c.12-.127.287-.28.494-.46.36-.287.534-.547.52-.794a.621.621,0,0,0-.614-.667.727.727,0,0,0-.741.667h.14a.447.447,0,0,1,.42-.4c.234,0,.354.174.354.474s-.22.621-.827,1.208l-.173.173Zm-3.6-1.928a.38.38,0,0,0-.08-.167.153.153,0,0,0-.147,0,.1.1,0,0,0-.1.073.46.46,0,0,0,0,.22l.18.754a.42.42,0,0,0,.073.194.113.113,0,0,0,.113,0,.16.16,0,0,0,.127-.093.334.334,0,0,0,0-.2Zm-.153,2.242v-.067a.667.667,0,0,0,.434-.38,1.154,1.154,0,0,0,0-.667v-.067a.46.46,0,0,1-.127.127.514.514,0,0,1-.167.067.54.54,0,0,1-.467-.1.761.761,0,0,1-.294-.46.787.787,0,0,1,.08-.581.721.721,0,0,1,.467-.34.747.747,0,0,1,.667.14,1.288,1.288,0,0,1,.4.7,1.335,1.335,0,0,1-.127,1,1.448,1.448,0,0,1-.854.627Zm-3.95-1.061c-.073-.14-.147-.087-.194-.113a.127.127,0,0,0-.147,0v-.04c.153-.113.38-.467.561-.627l.714,1.395a2.943,2.943,0,0,0,.327.534.234.234,0,0,0,.207.087h0l-.2.093-.194.107-.2.107-.207.12v-.04a.26.26,0,0,0,.053-.227,2.309,2.309,0,0,0-.227-.514l-.047-.093Zm6.733-7.914.507,1.048,1.154.167-.834.807.2,1.148L23.816,36.5l-1.028.547.2-1.148-.841-.807,1.154-.167Z" transform="translate(0 -0.313)" fill="#fff" fill-rule="evenodd"/>
    <path id="路径_2089" data-name="路径 2089" d="M240.875,63.517V60.535l-2.716-4.064h1.134l1.388,2.129c.254.394.494.794.714,1.188.214-.367.467-.781.767-1.241l1.368-2.075h1.088L241.8,60.535v2.983h-.928m-6.753,0V57.3H231.8v-.834h5.585V57.3h-2.329v6.212Zm-4.918,0V56.471h.934v7.047Zm-7.614-2.262.881-.08a1.882,1.882,0,0,0,.294.867,1.6,1.6,0,0,0,.707.554,2.789,2.789,0,0,0,1.081.207,2.576,2.576,0,0,0,.941-.16,1.288,1.288,0,0,0,.607-.434,1.014,1.014,0,0,0,.2-.6.887.887,0,0,0-.194-.581,1.334,1.334,0,0,0-.634-.414,11.512,11.512,0,0,0-1.255-.347,6.186,6.186,0,0,1-1.335-.44,1.861,1.861,0,0,1-.747-.667,1.6,1.6,0,0,1-.247-.881,1.789,1.789,0,0,1,.3-.994,1.915,1.915,0,0,1,.881-.707,3.75,3.75,0,0,1,2.669,0,2,2,0,0,1,.921.741,2.135,2.135,0,0,1,.347,1.114l-.894.067a1.415,1.415,0,0,0-.487-1.008,1.908,1.908,0,0,0-1.228-.34,2,2,0,0,0-1.234.307.941.941,0,0,0-.387.747.821.821,0,0,0,.274.627,3.817,3.817,0,0,0,1.408.5,9.824,9.824,0,0,1,1.561.447,2.2,2.2,0,0,1,.908.721,1.748,1.748,0,0,1,.294,1,1.888,1.888,0,0,1-.327,1.061,2.162,2.162,0,0,1-.921.774,3.276,3.276,0,0,1-1.335.274,4.064,4.064,0,0,1-1.608-.28,2.229,2.229,0,0,1-1.014-.834A2.423,2.423,0,0,1,221.59,61.255ZM215.2,59.58h2a3.069,3.069,0,0,0,.981-.133,1.108,1.108,0,0,0,.734-1.054,1.074,1.074,0,0,0-.36-.827,1.722,1.722,0,0,0-1.148-.32h-2.229Zm-.934,3.937V56.471h3.123a4.157,4.157,0,0,1,1.435.194,1.548,1.548,0,0,1,.781.667A2,2,0,0,1,219.9,58.4a1.768,1.768,0,0,1-.487,1.261,2.456,2.456,0,0,1-1.495.667,2.489,2.489,0,0,1,.561.347,5.11,5.11,0,0,1,.774.941l1.221,1.915h-1.168l-.934-1.468c-.274-.42-.494-.741-.667-.968a1.909,1.909,0,0,0-.474-.467,1.482,1.482,0,0,0-.42-.194,3.068,3.068,0,0,0-.521-.033h-1.081v3.116Zm-7.107,0V56.471h5.091V57.3H208.1v2.142h3.9v.827h-3.9v2.4h4.324v.841Zm-5.118,0-2.729-7.047h1.008l1.848,5.118c.147.414.267.8.367,1.154.113-.38.234-.767.38-1.154l1.922-5.118h.954L203,63.517Zm-5.132,0V56.471h.928v7.047Zm-7.827,0V56.471h.954l3.7,5.532V56.471h.894v7.047h-.954l-3.7-5.532v5.532Zm-3.023-7.047H187v4.077a4.8,4.8,0,0,1-.24,1.682,2,2,0,0,1-.868,1.014,3.029,3.029,0,0,1-1.648.394,3.37,3.37,0,0,1-1.615-.34,1.942,1.942,0,0,1-.9-.988,4.671,4.671,0,0,1-.267-1.762V56.471h.928v4.07a3.929,3.929,0,0,0,.173,1.335,1.288,1.288,0,0,0,.587.667,2.055,2.055,0,0,0,1.008.24,1.935,1.935,0,0,0,1.468-.467,2.669,2.669,0,0,0,.434-1.788Zm-15.054,7.047V56.471h.934V62.69h3.47v.827ZM165.2,60.628h2.389l-.741-1.955c-.22-.587-.387-1.074-.494-1.461a9.914,9.914,0,0,1-.38,1.335Zm-2.035,2.889,2.709-7.047h1l2.883,7.047h-1.061l-.821-2.135h-2.949l-.787,2.135Zm-8.008,0V56.471h1.408l1.668,4.978.34,1.041c.08-.254.2-.667.374-1.128l1.688-4.9h1.255v7.06h-.9v-5.9l-2.049,5.9h-.807l-2-6.006v6.006Zm-6.673-3.937h2a3.023,3.023,0,0,0,.974-.133,1.094,1.094,0,0,0,.554-.427,1.168,1.168,0,0,0,.187-.627,1.054,1.054,0,0,0-.367-.827,1.7,1.7,0,0,0-1.148-.32h-2.229Zm-.928,3.937V56.471h3.123a4.117,4.117,0,0,1,1.428.194,1.588,1.588,0,0,1,.787.667,2,2,0,0,1,.294,1.068,1.768,1.768,0,0,1-.487,1.261,2.5,2.5,0,0,1-1.5.667,2.488,2.488,0,0,1,.561.347,4.858,4.858,0,0,1,.774.941l1.228,1.915h-1.174l-.928-1.468c-.274-.42-.5-.741-.667-.968a2,2,0,0,0-.474-.467,1.435,1.435,0,0,0-.427-.194,3.068,3.068,0,0,0-.52-.033h-1.081v3.116Zm-7.54-3.4a2.829,2.829,0,0,0,.667,2,2.4,2.4,0,0,0,3.457,0,3.029,3.029,0,0,0,.667-2.1,3.61,3.61,0,0,0-.294-1.5,2.229,2.229,0,0,0-.854-.994,2.309,2.309,0,0,0-1.255-.354,2.376,2.376,0,0,0-1.7.667,3.043,3.043,0,0,0-.687,2.282Zm-.961,0a3.85,3.85,0,0,1,.941-2.749,3.2,3.2,0,0,1,2.429-.988,3.337,3.337,0,0,1,1.762.467,3.03,3.03,0,0,1,1.194,1.268,4.251,4.251,0,0,1,.407,1.9,4.151,4.151,0,0,1-.427,1.915,3,3,0,0,1-1.241,1.281,3.457,3.457,0,0,1-1.708.434,3.336,3.336,0,0,1-1.782-.48,3.1,3.1,0,0,1-1.188-1.335A3.957,3.957,0,0,1,139.052,60.114Zm-7.38,3.4V56.471h.954L136.33,62V56.471h.894v7.047h-.961l-3.7-5.532v5.532Zm-12.011,0V56.471h.961l3.7,5.532V56.471h.894v7.047h-.954l-3.7-5.532v5.532Zm-5.839-2.889h2.389l-.787-1.955c-.22-.587-.387-1.074-.494-1.461a9.916,9.916,0,0,1-.38,1.335Zm-2,2.889,2.709-7.047h1l2.829,7.047H117.3l-.821-2.135h-2.949l-.774,2.135Zm-6.893,0V56.471h.961l3.7,5.532V56.471h.894v7.047h-.954l-3.7-5.532v5.532Zm-7.08,0V56.471h5.091V57.3h-4.2v2.142h3.9v.827h-3.9v2.4h4.324v.841Zm-7.647,0V56.471h.934v2.9h3.6v-2.9h.934v7.047h-.934V60.181H91.081v3.336Z" transform="translate(-30.01 -18.742)" fill="#fff"/>
    <path id="路径_2090" data-name="路径 2090" d="M97.645,20.686A10.036,10.036,0,0,0,97.7,21.82a10.678,10.678,0,0,0,.234,1.074c.06.26,0,.44.2.514s.761,0,.994.087a1.628,1.628,0,0,0,.881.047c.274-.087.374-.621.34-.861s-.214-.961-.214-1.068v-.627h1.054a2.182,2.182,0,0,1-.187.46c-.1.147-.447.761-.274,1.048a1.028,1.028,0,0,0,.667.434c.073,0,.46-.374.667-.487a9.649,9.649,0,0,0,1.255-.707c.14-.153.14-.667.4-.827s.994-.534.994-.534a5.108,5.108,0,0,1-.2-.587c0-.147.087-.774.347-.667a1.114,1.114,0,0,1,.447.974c0,.42.093,7.607.093,7.607a7.2,7.2,0,0,1-.173,1.448c-.127.173-1,.194-1,.194l-1.295-.173s-.32.574-.22.8a41.546,41.546,0,0,0,3.7,2.135.741.741,0,0,0,.5-.08,10.063,10.063,0,0,0,1.481-1.682c0-.173-.04-6.006-.04-6.006l-.073-2.963V16.8s.194-.974.194-1.181a2.549,2.549,0,0,0-.841-1.2,6.713,6.713,0,0,0-1.448-.561,1.555,1.555,0,0,0-.767.988,22.8,22.8,0,0,0-.08,2.3l.067.667-1.9-.741a2.341,2.341,0,0,0-.274.287,3.637,3.637,0,0,1-1.128,1.088,13.066,13.066,0,0,0-1.668.514c-.227.187-1.628,1.441-1.628,1.441a2.109,2.109,0,0,0-.747-.347c-.247,0-.414.634-.414.634m32.5,3.336a2.282,2.282,0,0,1-.994,0c-.274-.133-.153-.32-.073-.667a4.672,4.672,0,0,1,.888-1.328c.22-.214,1.4-1.461,1.575-1.695a1.568,1.568,0,0,0,.187-1.034,2.956,2.956,0,0,0-1.441-.2,26.392,26.392,0,0,0-1.915,1.955c-.113.127-1.615,1.188-2.169,1.128s-.821-.267-.821-.567.814-.961,1.495-1.255,5.131-3.11,5.131-3.11l3.036-1.548s.6-.394.8-.32a.9.9,0,0,1,.494,1.074c-.1.721-.721,3.143-.767,3.737s-.547,4.764-.547,4.764-.133,2.122-.16,2.756a3.877,3.877,0,0,1-.234,1.588c-.187.274-.667.16-.821.107a14.47,14.47,0,0,1-2-1.395c-.587-.507-.921-.434-1.081-.667s-.3-.374-.113-.5a2.1,2.1,0,0,0,.621-.721c0-.133-.214-.173-.387-.127s-.734.44-.867.44,0-1.261.033-1.461.127-.948.127-.948Zm1.335-10.009c.113-.167.567-.667.948-1.141s1.335-.794,1.508-.954.1-.541-.073-.914a2.122,2.122,0,0,0-1.228-.707,5.411,5.411,0,0,0-.988.587,4.277,4.277,0,0,1-.881.387,2.042,2.042,0,0,1-.04-1.088,13.349,13.349,0,0,0,.5-1.822,1.915,1.915,0,0,0-.667-1.248c-.474-.507-2.8-2.943-2.8-2.943a1.188,1.188,0,0,0-.274.053c-.1,0-.207.28-.207.634a7.007,7.007,0,0,0,.334,1.508,15.469,15.469,0,0,1,.374,2.055,10.843,10.843,0,0,1-.667,2.409,14.68,14.68,0,0,0-.46,2.055,18.116,18.116,0,0,1-2.636,1.5,27.286,27.286,0,0,1-3.236.847s-.133.427,0,.561a8.388,8.388,0,0,0,2.209,1.288,14.821,14.821,0,0,0,2.169.534,1.715,1.715,0,0,1,.407.08,1.114,1.114,0,0,1,0,.767,11.732,11.732,0,0,1-1.808,2.162,27.955,27.955,0,0,1-2.989,1.735,8.508,8.508,0,0,0-2.142,1.108,1.455,1.455,0,0,0-.407,1.074,4.218,4.218,0,0,1-.067,1.508,2.823,2.823,0,0,0-.434,1.515,6.5,6.5,0,0,0,.861,2.956c.567.647,1.068.474,1.161.407a4.238,4.238,0,0,0,.634-1.648,8.594,8.594,0,0,0,.033-1.735,10.051,10.051,0,0,0-.894-1.561,3.41,3.41,0,0,1-.587-1.468c0-.44,0-.527.073-.574a20.294,20.294,0,0,1,2-.921c.427-.127,1.421-.5,1.808-.554s.781-.1.994.214.52.861.867.961a4,4,0,0,0,1.221.1,11.583,11.583,0,0,0,1.281-1.288,11.606,11.606,0,0,1,1.395-1.255,2,2,0,0,1,.721-.287,1.789,1.789,0,0,1,0,1.108,19.288,19.288,0,0,1-2,2.155,7.928,7.928,0,0,0-1.141,1.435c-.127.374-.087.6.073.747l.4.4s-.941,1.108-1.074,1.335a2.1,2.1,0,0,0-.1.867c0,.2.087.761.18.767s.667,0,.667,0a1.22,1.22,0,0,1-.067-.347c0-.073.174-.093.174-.093l.667.327.06,1.241.347-.073s.761-.747.908-.847a3.471,3.471,0,0,1,.521-.234,8.1,8.1,0,0,0,.3-1.261c0-.087.42-.814.847-.727a1.221,1.221,0,0,1,.807.714,5.253,5.253,0,0,0,.574,1.208c.187.2,1.154.527,1.415.847s1.048,1.775,1.048,1.775a2.349,2.349,0,0,0,.948.12,6.005,6.005,0,0,0,1.388-1.108,2.6,2.6,0,0,0,.167-1.335,14.1,14.1,0,0,1-.447-1.908,23.3,23.3,0,0,1-.093-3.2c.093-.667.5-3.336.5-3.336s.587-2.516.721-2.976a14.979,14.979,0,0,0,.46-2.062V15.394l.787-.354a1.742,1.742,0,0,0-.2-.587,4.925,4.925,0,0,0-1.068-.948.908.908,0,0,0-.734.127c-.247.14-2.376,1.608-2.376,1.608l-2.843,1.735-4.231,2.269a.721.721,0,0,1-.2-.52,1.762,1.762,0,0,1,.767-.874A2.4,2.4,0,0,0,128.8,16.4c.3-.9.374-1.194,1.441-1.622a3.724,3.724,0,0,0,1.254-.767Zm13.1,4.478,1.688-1.8,2.416-3.537,2.069-3.043s.761-1.288.541-1.935a15.7,15.7,0,0,0-1.248-2.162s-.1-.247.354-.247a9.883,9.883,0,0,1,2.723.6,1.735,1.735,0,0,1,.447,1.942,4.257,4.257,0,0,1-1.241,1.675c-.227.187-2,2.2-2,2.2s-1.635,2-1.808,2.255-1.828,2.856-1.955,3.083-1.094,1.281-1.128,1.335a1.808,1.808,0,0,1-.734.053C144.556,18.858,144.469,18.684,144.589,18.484Zm3.79-.387,1.828-2a5.51,5.51,0,0,0,.747-.34,5.185,5.185,0,0,0,.394-1.281c0-.08.447-.667.8-.254a2.335,2.335,0,0,1,.434,2.075,16.016,16.016,0,0,1-.908,1.468l.234.527.434.093a3.6,3.6,0,0,1-.867.974,1.268,1.268,0,0,1-1.048.127,1.734,1.734,0,0,1-.387-.327l.46-.781.127-.227a1.014,1.014,0,0,0-.667-.2,5.792,5.792,0,0,0-1.335.714c-.067.047-.667.307-.747.247s.26-.561.26-.561Zm7.761-4.264,3.743-2.069,2.2-1.088,1.241.113-.127.274-2.6,1.848a15.683,15.683,0,0,0-1.194,1.174,7.2,7.2,0,0,1-.821,1.008c-.113.04-2.229-.347-2.329-.334s-.574-.167-.6-.287.04-.46.487-.641ZM160,16.963l-2.562.06v.44c0,.14.347,1.735.347,1.735a7.394,7.394,0,0,1-1.728,1.335,13.606,13.606,0,0,1-2.242.3,1.088,1.088,0,0,0,1.161.861c.941-.1,1.295-.667,1.755-.948a4.871,4.871,0,0,1,1.068-.407l-.107,6.006a23.915,23.915,0,0,0,.274,3.937c.274.894.374,1.548.6,1.622a.721.721,0,0,0,.841-.374,25.069,25.069,0,0,0,.667-5.065c.1-2.442,0-4.938,0-4.938a4.444,4.444,0,0,0,1.521-1.421,34.033,34.033,0,0,0,1.842-3.59l.073-.474a4.291,4.291,0,0,0-.968-.667,1.848,1.848,0,0,0-1.375.447A10.676,10.676,0,0,1,160,16.963Zm-9.342,5.465s-.153.621-.247.847-.454.821-.374,1.048a9.828,9.828,0,0,0,.921,1.194s.394.1.494-.247l.721-2.542.073-.774-.741.794s-.153-.794,0-.994.721-1.068.721-1.068-.127-.4-.474-.4-.974.8-.974.8-.867.594-.941.667-.227.42,0,.547A2.342,2.342,0,0,0,150.662,22.428Zm-4.284-.667.274,2.049A20.153,20.153,0,0,1,146.6,26.3a3.43,3.43,0,0,0,.52,1.335.9.9,0,0,0,1.094.073,3.342,3.342,0,0,0,.747-2.569,8.334,8.334,0,0,0-1.715-2.889,8.974,8.974,0,0,0-.874-.52ZM174.944,10.49l-1.068.747a.667.667,0,0,1-.5-.9,6.272,6.272,0,0,1,.7-1.568l-.173-.274a3.337,3.337,0,0,0-2.069,2.369,6.493,6.493,0,0,0-.2,2.716s1.595-.147,2.115-.8a15.2,15.2,0,0,0,1.221-2Zm1.668-1.128a8.3,8.3,0,0,0,.821.274c.153.02,1.448.627,1.695.754a4.491,4.491,0,0,0,1.788-.2,1.2,1.2,0,0,0,.667-.974,1.181,1.181,0,0,1,.4-.667c.174-.1-.153-.447-.153-.574s-.567.447-.794.447-1.868-.274-2.189-.247a4.67,4.67,0,0,0-1.094.474,4.112,4.112,0,0,1-.747.247c-.193.013-.394.447-.394.447Zm9.616-3.356-.574-.06c-.113,0-.3-.26-.3-.26a.34.34,0,0,1,.227-.227c.173-.033.868-.073.868-.073l.8-.761,1.9-.073a.761.761,0,0,1,.287.534c0,.34,0,1.048-.153,1.161s-1.214.667-1.415.807a15.271,15.271,0,0,1-2.042,1.028,2.623,2.623,0,0,1-1.068-.1s-.153-.087.047-.267,1.381-1.081,1.381-1.081Zm.721,8.008-.4-1.008a.914.914,0,0,1,.187-.547,17.091,17.091,0,0,1,1.335-1.221.928.928,0,0,1,.48.107,5.19,5.19,0,0,1,.861,1.248l.174.834a.627.627,0,0,1-.26.2A3.423,3.423,0,0,0,187.9,15a7.021,7.021,0,0,1-1.655,1.969c-.187.04.24,1.088.26,1.214a2.349,2.349,0,0,1-.147.934,1.668,1.668,0,0,1-.968.073,2.1,2.1,0,0,1-.547-.934c0-.187-.327-2-.327-2a8.329,8.329,0,0,0,.8-.3c.107-.073,1.014-1.2,1.1-1.335S186.949,14.013,186.949,14.013Zm-3.523,2.509s-.667,4-.667,4.1-.18,2.409-.18,2.409a18.679,18.679,0,0,0,.2,3c.2.514.487.6.487.6l1.094.534s1.248-.26,1.335-.287,1.855-.26,2-.26l4.337.067s1.014-.1,1.2-.514a1.461,1.461,0,0,0,.1-1.194c-.16-.24-.707-1.161-.794-1.335s-1.421-3.79-1.421-3.79l-.247-.214a3.9,3.9,0,0,0-.06.974c.06.214.854,2.883.854,2.883a10.979,10.979,0,0,1,0,1.628,2.1,2.1,0,0,1-1.5.667c-.794.053-5.292-.047-5.672-.133s-.627-.314-.627-.5.961-3.336,1.021-3.7a4.67,4.67,0,0,0,0-1.481c-.087-.113-.581-.667-.581-.667s-.474-2.529-.474-2.589-.407-.22-.407-.22Zm-4.845.334.4.6s.467-.073.567-.22.127-.6,0-.7l-.2-.173Zm-.073,3.87-.527.894.427.554.547-.427V20.8Zm.347-6.513-.574-.147-.147-1a1.415,1.415,0,0,0-.921-.047c-.347.173-.3.52-.127.948a5.338,5.338,0,0,1,.227,1.268h-1.094a.327.327,0,0,0-.127.454,3.622,3.622,0,0,0,.774.667v.274L175.025,18.1a5.244,5.244,0,0,1-1.141.6c-.274,0-.527-.447-.527-.621s-1.094,1.148-1.268,1.368-.52.7-.52.7a.444.444,0,0,0,.174.3,2.888,2.888,0,0,0,1.395.494c.227-.1.867-1.221,1.268-1.568s1.421-1.295,1.942-1.335.347.347.347.5v.42s-1.094.053-1.168.4.594.5.667.667a1.068,1.068,0,0,1-.447,1.021c-.474.38-1.868,1.622-1.868,1.622s-.047.474.247.327.821-.667,1.221-.667.774.327.721.547a6.3,6.3,0,0,1-1.335,1.248,2.5,2.5,0,0,1-.921.327,1.1,1.1,0,0,1-.521-.254l.22-.921a10.136,10.136,0,0,0-1.214.667,8.748,8.748,0,0,0-1.695,2,6.538,6.538,0,0,0-.173,1.335s.621.274,2.115-.667a13.145,13.145,0,0,0,2.416-1.948l.1-.147s.621-.173.667.3,0,2.469,0,2.469l-.921,1.021a.534.534,0,0,0,.127.52,2.67,2.67,0,0,0,.867.474l.274,1.848,1.335.147a4.377,4.377,0,0,0,.2-2c-.1-1.335-.547-2.963-.053-4.111a10.315,10.315,0,0,1,1.134-2.255,14.676,14.676,0,0,0,1.395-.827c.12-.147,0-.948,0-.948l-.227-.948a7.343,7.343,0,0,0,.627-.874c.093-.22.247-.747.247-.747s-.6.427-.921.374l-.327-.047s-.12-.4.427-1.148a9.487,9.487,0,0,0,1.021-1.695A5.451,5.451,0,0,0,181,15.4a2.669,2.669,0,0,0-.747-.327.921.921,0,0,0-.274,0,4.858,4.858,0,0,1-.948.747c-.22.047-.667-.073-.667-.4a4.043,4.043,0,0,1,.487-1.228Zm21.7,6.673-.547.627a1.688,1.688,0,0,0,.547.968,10.676,10.676,0,0,0,1.762.754h.354s1.688-1.4,2-1.622a4,4,0,0,1,1.335-.574,5.645,5.645,0,0,1,.921-.08,13.166,13.166,0,0,1-.847,3.844,5.338,5.338,0,0,1-2.809,2.8,3.29,3.29,0,0,1-2.062.12l-1.168-.507s-.347.5-.173.8.667.821,1.915.667a14.68,14.68,0,0,0,3.6-1.114,6.453,6.453,0,0,0,1.8-2.876,22.225,22.225,0,0,1,1.441-4.391c.527-.727.2-1.021,2.783-1.8s4-1.248,4-1.248-.073,0,.347-.547,1-1.335,1-1.335.047-.5-.274-.374-1.021.574-1.335.347-.327-.194-.327-.194l-.847-.474s-.154.047-.1.42.247,1.335.247,1.335l-3.263,1.475-1.815.247a8.776,8.776,0,0,1,.347-2.943c.474-1.541,1.521-4.364,1.622-4.564a3.29,3.29,0,0,0-.154-2c-.347-.794-1.335-2-1.642-2.569s-.621-1.295-.747-1.495-.667,0-.621.227a4.809,4.809,0,0,1,.5,1.295c0,.4-.254,1.3-.254,1.695s.527,1.248.527,1.575-.274.948-.274,1.174-.18,2.916-.18,2.916-.767,5.385-1.014,5.712a19.627,19.627,0,0,1-2.609,1.635,11.278,11.278,0,0,1-2.115.734A7.927,7.927,0,0,1,201.142,21Zm9.7,1.8L213.741,25s2.416,1.448,2.716,1.548a4.284,4.284,0,0,0,1.762.227c.327-.153,1.074-.627,1.074-.627s.374,0,.194.227a19.5,19.5,0,0,1-2.956,2.8c-.821.447-1.668.774-2.115.547a28.1,28.1,0,0,1-2.616-2.869s-.867-1.548-1.141-2.2A4.344,4.344,0,0,1,210.258,22.688Zm28.367-12.1a7.179,7.179,0,0,1,.4-1.822,6.005,6.005,0,0,0,.387-2.309,1.909,1.909,0,0,0-.2-.667l-.894-.073a.44.44,0,0,1,.047-.5,4.8,4.8,0,0,1,2.042-1.9,4.591,4.591,0,0,1,1.615-.574,1.929,1.929,0,0,0,.527,0l.394-.153s-.3,1.228-.42,1.521-1.595,3.6-1.842,4.117-.747,1.021-.847,1.275a4.8,4.8,0,0,1-.547.948c-.14.1-.634.274-.661.147Zm-2.462-1.475a5.231,5.231,0,0,1,.3.7l.147.547a4.338,4.338,0,0,0,.667-1.248c.1-.474.053-.894-.12-.968s-.894.667-.894.667Zm-2.836,3.17a3.337,3.337,0,0,1,.941-1.248l1.048-.894h.521l.5.667A5.713,5.713,0,0,1,235,11.858a4.744,4.744,0,0,1-1.675.44Zm-.1-6.086a2.342,2.342,0,0,0-.621,1.275,1.741,1.741,0,0,0,.42,1.335l1.468-1.8a9.736,9.736,0,0,1-1.088.327.24.24,0,0,1-.174-.4c.174-.173.294-.32.22-.474a.708.708,0,0,0-.227-.254Zm3.8,6.006a4.411,4.411,0,0,1-1.468.447,4.962,4.962,0,0,0-2.262.5c-.427.374-2.062,2.2-2.062,2.2l-2.2,2.743-.194.574a3.537,3.537,0,0,0,2-.921c.794-.827,1.815-1.9,2.335-2.322s2-1.121,2.142-1.368a8.582,8.582,0,0,1,1.295-1.1s.42-.347.474-.52a.22.22,0,0,0-.067-.234Zm-2.289-7.24a3.43,3.43,0,0,1-.767-.2,15.54,15.54,0,0,1-1.021-1.248l-1.021-.073-1.668-1.368h-1.715s-.247-.08-.327.12a.572.572,0,0,0,0,.6c.147.173,1.181,1.074,1.181,1.074a2.862,2.862,0,0,0,.667.42,1.642,1.642,0,0,1,.948.354,12.165,12.165,0,0,1,.667,2.142l.127,1.848-.2.2-.474-.18-.32.1a2.67,2.67,0,0,0,.32.7,1.068,1.068,0,0,1,.227.427v.474s-.347.494-.474.52a1.261,1.261,0,0,1-.374,0s-.194-1.395-.274-1.695a1.288,1.288,0,0,0-.841-.9,12.378,12.378,0,0,0-1.622,0,6.4,6.4,0,0,1,.7,1.248c.073.347.294,2.389.42,2.816s.5,1.094.667,1.094a1.415,1.415,0,0,0,.527-.2l.894-.968s-.1-.374.127-.554.747-.22.894-.32a9.015,9.015,0,0,0,.747-1.121,7.6,7.6,0,0,1,.721-1,1.568,1.568,0,0,1,.547-.127l.247.928-1.415,1.395-.447.747.547.053a22.881,22.881,0,0,1-1.555,1.9,16.393,16.393,0,0,0-2.336,2.315c-.667.921-1.768,2.622-1.768,2.622s-1.068,1.148-1.335,1.521-.227.594-.1.774.594.747.794.794a4.758,4.758,0,0,0,2.382-.847,19.183,19.183,0,0,0,2.362-2.542c.3-.474,1.495-2.149,1.768-2.469s2.336-1.775,2.336-1.775,1.695-1.221,1.815-1.268a12.413,12.413,0,0,0,1.335-.153,8.427,8.427,0,0,1,1.595-1.969,5.338,5.338,0,0,1,2.462-.948h.32s.18.374-.22,1.021a27.211,27.211,0,0,1-2.442,2.6,32.521,32.521,0,0,1-2.763,1.768,14.846,14.846,0,0,1-1.935.574l-1,2a.948.948,0,0,0,.3.227,2.917,2.917,0,0,0,.5.174s.42-.627.594-.627.274.227.274.5-.247,2.5-.247,2.5l-4.6,2.2a22.567,22.567,0,0,0-3.784,2.469,3.784,3.784,0,0,0-.794,1.568l2.342.627h.494l-.594-1.028a14.013,14.013,0,0,1,3.183-1.521c2-.667,3.163-1.068,3.163-1.068s.547,5.432.42,5.559a4.551,4.551,0,0,1-1.541,0,19.092,19.092,0,0,1-2.442-1.335c-.921-.574-1.041-.4-1.041-.4v.527l2.189,1.715a23.953,23.953,0,0,0,3.51,1.875,15.2,15.2,0,0,0,1.668.047,15.972,15.972,0,0,0,0-2.569c-.12-.667-.467-1.495-.494-1.822s.073-1.768,0-2.516-.154-1.595-.154-1.595a4.091,4.091,0,0,1,1.495-.928,34.083,34.083,0,0,1,3.483-.274s.3.053.374-.127a8.809,8.809,0,0,0,.474-1.368c0-.127-.994-.5-.994-.5a5.155,5.155,0,0,0-.174-.894c-.1-.254-.447-.5-.621-.454s-1.174.554-1.221.847a.683.683,0,0,1-.5.554l-1.962-.053a2.777,2.777,0,0,1-.254-1.521,3.93,3.93,0,0,1,1.174-1.842c.474-.3.747-.5.747-.5l.073-.427s-.821-.2-.821-.42.174-.574.721-.774a5.459,5.459,0,0,0,2.062-1.221c.7-.7,2.269-2.869,2.269-2.869l.547-.874s-.053-.774-1.094-.847a7.594,7.594,0,0,0-2.289.3l.821-2.843,1.388-2.843s.574-1.074.874-1.174.821-.6.667-.874a1.228,1.228,0,0,0-1.541-.347,11.729,11.729,0,0,1-1.742.594l-.948.2-2.335,1.922s-1.248.874-1.421,1.021a5.763,5.763,0,0,0-.547.727s-.868.52-1.068.274.174-1.174.5-1.421,1.742-1.275,2.209-1.648a2.289,2.289,0,0,0,.667-1.121A4.671,4.671,0,0,0,237.3.814,9.061,9.061,0,0,1,235.641,0c-.12,0-.3.153-.127.5s.667,1.1.594,1.475a13.659,13.659,0,0,1-.968,1.768,4.853,4.853,0,0,0-.347.667,1.194,1.194,0,0,0-.053.554ZM160.07,18.611a5.379,5.379,0,0,1,.794-1.515c.314-.214,1.128-.841,1.581-.667s-1.682,3.77-2,3.717C160.1,20.219,160.044,19.158,160.07,18.611ZM91.94,12.505A27.483,27.483,0,0,0,90.1,14.981c-.347.667-.394,1.041-.314,1.121s.507-.14.667-.3,1.161-1.114,1.281-1.275a6.813,6.813,0,0,1,.974-.9,5.411,5.411,0,0,1,.581-.22,1.775,1.775,0,0,0,.667.334c.207,0,1.028.147,1.234.6s.38,1.154.474,1.335a3.336,3.336,0,0,1,.187.487s-.32-.087-.44.12a14.583,14.583,0,0,0-.467,1.735l-.734,3.11-1.014,2.342a12.81,12.81,0,0,0-.787,1.708,4.121,4.121,0,0,1-1.121,1.962c-.454.267-.561.2-.561.2a15.628,15.628,0,0,1,.287-2.349,5.131,5.131,0,0,1,1.174-1.942,6.112,6.112,0,0,1,.968-.627,7.082,7.082,0,0,0,.173-1.395c-.073-.16-2.876-1.808-2.876-1.808s-1.8-1.061-2-1.121-.774-.2-.614.247S89.217,20.8,89.217,20.8a4.892,4.892,0,0,0,.847.974,1.815,1.815,0,0,1,.707.988c0,.207-.46,2.589-.46,2.589a10.716,10.716,0,0,1-.574,2c-.22.314-.767.941-.767.941s-.04.247.06.347a8.882,8.882,0,0,1,.727,1.388c.087.274.133.667.174.8a3.337,3.337,0,0,0,.934.347c.127,0,.22-.16.127-.32s-.267-.5-.267-.5a9.736,9.736,0,0,0,1.435-.327A3.07,3.07,0,0,0,93.2,28.46c.187-.888.667-2.669.814-3.016s.894-2.5.894-2.5.747-2.709.821-3.009.507-3.417.507-3.417a4.451,4.451,0,0,0,1.034.3,2.716,2.716,0,0,0,.8-.1,15.859,15.859,0,0,1,1.094-1.335,5.185,5.185,0,0,1,2.235-.761,11.031,11.031,0,0,0,2.489-.4,30.7,30.7,0,0,0,3.41-1.335l2.963-1.234a11.885,11.885,0,0,1,2.362-.981,9.482,9.482,0,0,1,1.335,0,7.776,7.776,0,0,0,.847-.874,1.475,1.475,0,0,0-.1-1.421,1.9,1.9,0,0,0-.934-.347l-.507.474a12.058,12.058,0,0,0-1.234,0,3.136,3.136,0,0,0-1.008.541,3.657,3.657,0,0,1-1.455.908c-.707.214-2.549.774-3.009.988s-3.884,1.595-4.257,1.735-2.9.981-2.9.981a18.016,18.016,0,0,1-1.9.427A4.117,4.117,0,0,1,96.4,14.02c0-.073,0-2.269,0-2.269s-1.448-1.388-1.8-1.688a7.013,7.013,0,0,0-1.595-1.014,4.984,4.984,0,0,1-1.2-.667c-.133-.113-1.241-1.595-1.241-1.595a12.5,12.5,0,0,0-.934-1.154A4.178,4.178,0,0,0,88.97,5.2c-.14,0-.187.4-.1.714s.507,1.248.574,1.595a6.005,6.005,0,0,0,.567,2.082c.36.46,1.008,1.335,1.134,1.475a5.952,5.952,0,0,1,.667,1.034,3.671,3.671,0,0,1,.127.407Z" transform="translate(-29.214)" fill="#fff" fill-rule="evenodd"/>
  </g>
</svg>
